<svg width="40" height="40" viewBox="0 0 40 40" fill="none" xmlns="http://www.w3.org/2000/svg">
<path d="M12.9167 4.16669C12.9167 3.83517 12.785 3.51722 12.5505 3.2828C12.3161 3.04838 11.9982 2.91669 11.6667 2.91669C11.3351 2.91669 11.0172 3.04838 10.7828 3.2828C10.5484 3.51722 10.4167 3.83517 10.4167 4.16669V6.80002C8.01666 6.99169 6.44333 7.46169 5.28666 8.62002C4.12833 9.77669 3.65833 11.3517 3.465 13.75H36.535C36.3417 11.35 35.8717 9.77669 34.7133 8.62002C33.5567 7.46169 31.9817 6.99169 29.5833 6.79835V4.16669C29.5833 3.83517 29.4516 3.51722 29.2172 3.2828C28.9828 3.04838 28.6648 2.91669 28.3333 2.91669C28.0018 2.91669 27.6839 3.04838 27.4494 3.2828C27.215 3.51722 27.0833 3.83517 27.0833 4.16669V6.68835C25.975 6.66669 24.7317 6.66669 23.3333 6.66669H16.6667C15.2683 6.66669 14.025 6.66669 12.9167 6.68835V4.16669Z" fill="white"/>
<path fill-rule="evenodd" clip-rule="evenodd" d="M3.33334 20C3.33334 18.6017 3.33334 17.3583 3.355 16.25H36.645C36.6667 17.3583 36.6667 18.6017 36.6667 20V23.3333C36.6667 29.6183 36.6667 32.7617 34.7133 34.7133C32.7617 36.6667 29.6183 36.6667 23.3333 36.6667H16.6667C10.3817 36.6667 7.23834 36.6667 5.28667 34.7133C3.33334 32.7617 3.33334 29.6183 3.33334 23.3333V20ZM28.3333 23.3333C28.7754 23.3333 29.1993 23.1577 29.5118 22.8452C29.8244 22.5326 30 22.1087 30 21.6667C30 21.2246 29.8244 20.8007 29.5118 20.4882C29.1993 20.1756 28.7754 20 28.3333 20C27.8913 20 27.4674 20.1756 27.1548 20.4882C26.8423 20.8007 26.6667 21.2246 26.6667 21.6667C26.6667 22.1087 26.8423 22.5326 27.1548 22.8452C27.4674 23.1577 27.8913 23.3333 28.3333 23.3333ZM28.3333 30C28.7754 30 29.1993 29.8244 29.5118 29.5118C29.8244 29.1993 30 28.7754 30 28.3333C30 27.8913 29.8244 27.4674 29.5118 27.1548C29.1993 26.8423 28.7754 26.6667 28.3333 26.6667C27.8913 26.6667 27.4674 26.8423 27.1548 27.1548C26.8423 27.4674 26.6667 27.8913 26.6667 28.3333C26.6667 28.7754 26.8423 29.1993 27.1548 29.5118C27.4674 29.8244 27.8913 30 28.3333 30ZM21.6667 21.6667C21.6667 22.1087 21.4911 22.5326 21.1785 22.8452C20.866 23.1577 20.442 23.3333 20 23.3333C19.558 23.3333 19.1341 23.1577 18.8215 22.8452C18.5089 22.5326 18.3333 22.1087 18.3333 21.6667C18.3333 21.2246 18.5089 20.8007 18.8215 20.4882C19.1341 20.1756 19.558 20 20 20C20.442 20 20.866 20.1756 21.1785 20.4882C21.4911 20.8007 21.6667 21.2246 21.6667 21.6667ZM21.6667 28.3333C21.6667 28.7754 21.4911 29.1993 21.1785 29.5118C20.866 29.8244 20.442 30 20 30C19.558 30 19.1341 29.8244 18.8215 29.5118C18.5089 29.1993 18.3333 28.7754 18.3333 28.3333C18.3333 27.8913 18.5089 27.4674 18.8215 27.1548C19.1341 26.8423 19.558 26.6667 20 26.6667C20.442 26.6667 20.866 26.8423 21.1785 27.1548C21.4911 27.4674 21.6667 27.8913 21.6667 28.3333ZM11.6667 23.3333C12.1087 23.3333 12.5326 23.1577 12.8452 22.8452C13.1577 22.5326 13.3333 22.1087 13.3333 21.6667C13.3333 21.2246 13.1577 20.8007 12.8452 20.4882C12.5326 20.1756 12.1087 20 11.6667 20C11.2246 20 10.8007 20.1756 10.4882 20.4882C10.1756 20.8007 10 21.2246 10 21.6667C10 22.1087 10.1756 22.5326 10.4882 22.8452C10.8007 23.1577 11.2246 23.3333 11.6667 23.3333ZM11.6667 30C12.1087 30 12.5326 29.8244 12.8452 29.5118C13.1577 29.1993 13.3333 28.7754 13.3333 28.3333C13.3333 27.8913 13.1577 27.4674 12.8452 27.1548C12.5326 26.8423 12.1087 26.6667 11.6667 26.6667C11.2246 26.6667 10.8007 26.8423 10.4882 27.1548C10.1756 27.4674 10 27.8913 10 28.3333C10 28.7754 10.1756 29.1993 10.4882 29.5118C10.8007 29.8244 11.2246 30 11.6667 30Z" fill="white"/>
</svg>
