<svg width="67" height="67" viewBox="0 0 67 67" fill="none" xmlns="http://www.w3.org/2000/svg">
<g clip-path="url(#clip0_363_66)">
<path d="M59.8513 12.8159H61.9214C62.6435 12.8159 63.2291 12.2303 63.2291 11.5082C63.2291 10.7861 62.6435 10.2005 61.9214 10.2005H56.952C56.2299 10.2005 55.6443 10.7861 55.6443 11.5082V16.4776C55.6443 17.1997 56.2299 17.7853 56.952 17.7853C57.6741 17.7853 58.2598 17.1997 58.2598 16.4776V15.0387C62.2277 20.3509 64.3845 26.7963 64.3845 33.5C64.3845 50.5299 50.5299 64.3845 33.5 64.3845C16.4701 64.3845 2.61547 50.5299 2.61547 33.5C2.61547 16.4701 16.4701 2.61547 33.5 2.61547C34.7595 2.61547 36.0271 2.69197 37.2678 2.84276C37.9838 2.92933 38.6368 2.41944 38.7239 1.70241C38.8111 0.98551 38.3006 0.333473 37.5835 0.246377C36.2384 0.0829104 34.8646 0 33.5 0C24.5518 0 16.1392 3.48459 9.81194 9.81194C3.48459 16.1392 0 24.5518 0 33.5C0 42.4482 3.48459 50.8608 9.81194 57.1881C16.1392 63.5154 24.5518 67 33.5 67C42.4482 67 50.8608 63.5154 57.1881 57.1881C63.5154 50.8608 67 42.4482 67 33.5C67 25.949 64.4774 18.7 59.8513 12.8159Z" fill="white"/>
<path d="M14.1853 19.7482C13.5749 19.3619 12.7672 19.5436 12.3807 20.1536C9.39529 24.8687 8.07369 30.5394 8.65942 36.1209C9.25379 41.7852 11.8032 47.1268 15.8381 51.1618C20.7075 56.0312 27.1037 58.4659 33.5001 58.4659C39.8965 58.4659 46.2926 56.0313 51.1621 51.1618C60.901 41.423 60.901 25.5766 51.1621 15.8379C47.1334 11.8093 41.8006 9.26079 36.1457 8.66185C30.5745 8.07141 24.91 9.38267 20.1968 12.3535C19.5857 12.7386 19.4027 13.5461 19.7877 14.1571C20.1729 14.7682 20.9804 14.9511 21.5914 14.5661C30.4759 8.96642 41.875 10.2497 49.3126 17.6873C58.0317 26.4064 58.0317 40.5932 49.3126 49.3123C40.5937 58.0315 26.4066 58.0315 17.6876 49.3123C10.3528 41.9775 9.0503 30.3029 14.5907 21.5529C14.9768 20.9425 14.7954 20.1346 14.1853 19.7482Z" fill="white"/>
<path d="M50.5007 34.8293H52.1134C52.8355 34.8293 53.4211 34.2437 53.4211 33.5216C53.4211 32.7995 52.8355 32.2139 52.1134 32.2139H50.5007C49.7786 32.2139 49.193 32.7995 49.193 33.5216C49.193 34.2437 49.7784 34.8293 50.5007 34.8293Z" fill="white"/>
<path d="M13.5789 33.4786C13.5789 34.2008 14.1645 34.7864 14.8866 34.7864H16.4993C17.2215 34.7864 17.8071 34.2008 17.8071 33.4786C17.8071 32.7565 17.2215 32.1709 16.4993 32.1709H14.8866C14.1645 32.1709 13.5789 32.7564 13.5789 33.4786Z" fill="white"/>
<path d="M34.8289 16.4995V14.8868C34.8289 14.1647 34.2433 13.5791 33.5212 13.5791C32.799 13.5791 32.2134 14.1647 32.2134 14.8868V16.4995C32.2134 17.2217 32.799 17.8073 33.5212 17.8073C34.2433 17.8073 34.8289 17.2217 34.8289 16.4995Z" fill="white"/>
<path d="M32.1711 50.5011V52.1138C32.1711 52.8359 32.7567 53.4215 33.4788 53.4215C34.201 53.4215 34.7866 52.8359 34.7866 52.1138V50.5011C34.7866 49.779 34.201 49.1934 33.4788 49.1934C32.7567 49.1934 32.1711 49.7788 32.1711 50.5011Z" fill="white"/>
<path d="M26.9451 25.0957C26.4343 24.5852 25.6065 24.5852 25.0956 25.0957C24.5849 25.6064 24.5849 26.4344 25.0956 26.9452L29.5276 31.3773C29.188 32.0102 28.9949 32.733 28.9949 33.5001C28.9949 35.9843 31.0158 38.0053 33.5 38.0053C35.9842 38.0053 38.0052 35.9843 38.0052 33.5001C38.0052 32.733 37.8119 32.0102 37.4724 31.3773L46.4151 22.4346C46.9257 21.9239 46.9257 21.0959 46.4151 20.5851C45.9043 20.0745 45.0765 20.0745 44.5655 20.5851L35.6229 29.5277C34.9899 29.1881 34.2671 28.995 33.5 28.995C32.7329 28.995 32.0101 29.1883 31.3772 29.5277L26.9451 25.0957ZM35.3897 33.5001C35.3897 34.5421 34.542 35.3898 33.5 35.3898C32.458 35.3898 31.6103 34.5421 31.6103 33.5001C31.6103 32.4581 32.458 31.6104 33.5 31.6104C34.542 31.6104 35.3897 32.4581 35.3897 33.5001Z" fill="white"/>
<path d="M17.6869 17.6864C17.9314 17.4432 18.0712 17.1058 18.0712 16.7618C18.0712 16.4179 17.9314 16.0818 17.6869 15.8373C17.4436 15.5942 17.1074 15.4541 16.7623 15.4541C16.4184 15.4541 16.081 15.594 15.8377 15.8373C15.5946 16.0805 15.4546 16.4179 15.4546 16.7618C15.4546 17.1071 15.5945 17.4432 15.8377 17.6864C16.081 17.9295 16.4184 18.0696 16.7623 18.0696C17.1074 18.0696 17.4436 17.9295 17.6869 17.6864Z" fill="white"/>
<path d="M42.5587 3.90746C42.9041 3.90746 43.2415 3.76871 43.4846 3.5243C43.7278 3.28106 43.8679 2.94484 43.8679 2.59973C43.8679 2.25579 43.7279 1.9184 43.4846 1.67516C43.2415 1.43205 42.9041 1.29199 42.5587 1.29199C42.2147 1.29199 41.8774 1.43192 41.6342 1.67516C41.391 1.9184 41.2509 2.25579 41.2509 2.59973C41.2509 2.94497 41.3909 3.28106 41.6342 3.5243C41.8774 3.76871 42.2147 3.90746 42.5587 3.90746Z" fill="white"/>
</g>
<defs>
<clipPath id="clip0_363_66">
<rect width="67" height="67" fill="white"/>
</clipPath>
</defs>
</svg>
