<svg width="60" height="60" viewBox="0 0 60 60" fill="none" xmlns="http://www.w3.org/2000/svg">
<path d="M55.7868 26.1595C55.5572 19.6148 52.9068 13.4948 48.2531 8.84105C43.3753 3.9623 36.8925 1.27637 30 1.27637C16.079 1.27637 4.70435 12.3567 4.21403 26.1595C2.08966 27.1036 0.602783 29.2298 0.602783 31.7011V38.5092C0.602783 41.8523 3.32247 44.5729 6.66653 44.5729C8.83028 44.5729 10.59 42.8132 10.59 40.6495V29.5598C10.59 27.5282 9.03185 25.8717 7.05091 25.6748C7.78216 13.6495 17.7928 4.08887 30 4.08887C36.1425 4.08887 41.9184 6.48324 46.2656 10.8304C50.2575 14.8223 52.5937 20.0254 52.9453 25.6757C50.9662 25.8745 49.4109 27.5301 49.4109 29.5598V40.6486C49.4109 42.697 50.9934 44.3639 52.9978 44.5373V47.3395C52.9978 50.4951 50.43 53.062 47.2743 53.062H43.0359C42.8278 52.4676 42.5015 51.9182 42.044 51.4626C41.2425 50.6573 40.1737 50.2139 39.0356 50.2139H34.6668C34.0397 50.2139 33.4378 50.347 32.8865 50.6039C31.3828 51.2948 30.4115 52.8117 30.4115 54.4682C30.4115 55.6064 30.855 56.6751 31.6584 57.4748C32.4618 58.2801 33.5306 58.7236 34.6668 58.7236H39.0356C40.8468 58.7236 42.4434 57.5526 43.0387 55.8745H47.2743C51.9815 55.8745 55.8103 52.0457 55.8103 47.3395V44.0367C57.9215 43.087 59.3972 40.9682 59.3972 38.5073V31.6992C59.3972 29.2298 57.9103 27.1036 55.7868 26.1595ZM7.77653 29.5598V40.6486C7.77653 41.2607 7.27872 41.7595 6.6656 41.7595C4.8731 41.7595 3.41435 40.3007 3.41435 38.5082V31.7001C3.41435 29.9067 4.8731 28.4489 6.6656 28.4489C7.27872 28.4489 7.77653 28.9476 7.77653 29.5598ZM40.4465 54.7701C40.3068 55.432 39.7125 55.9129 39.0347 55.9129H34.6659C34.2815 55.9129 33.9206 55.7629 33.645 55.4873C33.3731 55.2164 33.2231 54.8545 33.2231 54.4701C33.2231 53.9086 33.5522 53.3957 34.0678 53.1586C34.2515 53.0723 34.4531 53.0282 34.6659 53.0282H39.0347C39.419 53.0282 39.78 53.1773 40.0547 53.4529C40.3265 53.7239 40.4765 54.0857 40.4765 54.4701C40.4775 54.5732 40.4662 54.6764 40.4465 54.7701ZM56.5847 38.5082C56.5847 40.3007 55.1259 41.7595 53.3334 41.7595C52.7212 41.7595 52.2225 41.2617 52.2225 40.6486V29.5598C52.2225 28.9476 52.7203 28.4489 53.3334 28.4489C55.1259 28.4489 56.5847 29.9076 56.5847 31.7001V38.5082Z" fill="white"/>
<path d="M39.1059 38.9927C42.3919 38.9927 45.0647 36.3189 45.0647 33.0339V20.8923C45.0647 19.3042 44.4441 17.808 43.3172 16.6811C42.1903 15.5542 40.695 14.9336 39.1059 14.9336H20.8941C17.6081 14.9336 14.9353 17.6064 14.9353 20.8923V33.0339C14.9353 36.3198 17.6081 38.9927 20.8941 38.9927H21.0056V42.1389C21.0056 43.3389 21.7209 44.4039 22.8272 44.853C23.1844 44.9964 23.5556 45.0677 23.9231 45.0677C24.6891 45.0677 25.4353 44.7639 25.9819 44.1986L31.2159 38.9927H39.1059ZM29.6456 36.5889L23.9812 42.2223C23.9559 42.2486 23.9372 42.2683 23.8837 42.2448C23.8191 42.2186 23.8191 42.1764 23.8191 42.1389V37.5864C23.8191 36.8102 23.19 36.1802 22.4128 36.1802H20.895C19.1597 36.1802 17.7487 34.7683 17.7487 33.0339V20.8923C17.7487 19.157 19.1597 17.7461 20.895 17.7461H39.1069C39.945 17.7461 40.7334 18.0742 41.3297 18.6695C41.9259 19.2658 42.2531 20.0552 42.2531 20.8923V33.0339C42.2531 34.7692 40.8412 36.1802 39.1069 36.1802H30.6375C30.2653 36.1802 29.9091 36.3273 29.6456 36.5889Z" fill="white"/>
<path d="M23.1684 25.1133C22.0247 25.1133 21.0938 26.0452 21.0938 27.188C21.0938 28.3308 22.0256 29.2627 23.1684 29.2627C24.3131 29.2627 25.245 28.3308 25.245 27.188C25.245 26.0452 24.3141 25.1133 23.1684 25.1133Z" fill="white"/>
<path d="M29.999 25.1133C28.8553 25.1133 27.9243 26.0452 27.9243 27.188C27.9243 28.3308 28.8562 29.2627 29.999 29.2627C31.1446 29.2627 32.0756 28.3308 32.0756 27.188C32.0756 26.0452 31.1446 25.1133 29.999 25.1133Z" fill="white"/>
<path d="M36.8297 25.1133C35.6859 25.1133 34.755 26.0452 34.755 27.188C34.755 28.3308 35.6869 29.2627 36.8297 29.2627C37.9744 29.2627 38.9063 28.3308 38.9063 27.188C38.9063 26.0452 37.9744 25.1133 36.8297 25.1133Z" fill="white"/>
</svg>
