<svg width="78" height="78" viewBox="0 0 78 78" fill="none" xmlns="http://www.w3.org/2000/svg">
<path d="M15.7426 64.0857C16.1015 64.0799 16.451 63.9693 16.7479 63.7675C17.0447 63.5657 17.2761 63.2814 17.4135 62.9497C17.5508 62.618 17.5882 62.2534 17.521 61.9008C17.4537 61.5481 17.2848 61.2229 17.0351 60.965C4.96465 49.3776 4.96498 28.6224 17.0355 17.0353C17.3691 16.6906 17.5539 16.2285 17.5499 15.7488C17.546 15.2691 17.3537 14.8101 17.0144 14.4709C16.6751 14.1317 16.2161 13.9395 15.7364 13.9356C15.2567 13.9318 14.7947 14.1166 14.45 14.4503C0.960886 27.3989 0.960984 50.6018 14.4504 63.5501C14.6199 63.7202 14.8213 63.855 15.043 63.947C15.2648 64.0389 15.5025 64.086 15.7426 64.0857Z" fill="white"/>
<path d="M60.9649 14.4496C60.7951 14.6193 60.6604 14.8208 60.5685 15.0426C60.4766 15.2644 60.4293 15.5021 60.4293 15.7422C60.4293 15.9822 60.4766 16.2199 60.5685 16.4417C60.6604 16.6635 60.7951 16.865 60.9649 17.0347C73.0354 28.6224 73.035 49.3771 60.9645 60.9644C60.6302 61.309 60.4449 61.7713 60.4485 62.2514C60.4522 62.7315 60.6446 63.1909 60.9841 63.5304C61.3236 63.8698 61.783 64.0621 62.2631 64.0657C62.7432 64.0693 63.2055 63.8838 63.55 63.5495C77.0391 50.6011 77.039 27.3977 63.5496 14.4497C63.3799 14.2799 63.1784 14.1452 62.9567 14.0533C62.735 13.9614 62.4973 13.9141 62.2572 13.9141C62.0172 13.9141 61.7795 13.9614 61.5578 14.0532C61.336 14.1451 61.1345 14.2798 60.9649 14.4496Z" fill="white"/>
<path d="M23.4508 23.4513C23.785 23.1068 23.9702 22.6446 23.9665 22.1646C23.9628 21.6846 23.7704 21.2254 23.431 20.886C23.0916 20.5466 22.6323 20.3543 22.1524 20.3506C21.6724 20.347 21.2102 20.5322 20.8657 20.8664C10.9021 30.4309 10.9021 47.5694 20.866 57.1336C21.2105 57.4685 21.6729 57.6543 22.1532 57.6509C22.6336 57.6475 23.0933 57.4551 23.4329 57.1154C23.7726 56.7757 23.9649 56.316 23.9682 55.8356C23.9715 55.3553 23.7857 54.8929 23.4508 54.5485C19.3458 50.4148 17.0421 44.8255 17.0422 38.9999C17.0422 33.1743 19.3459 27.585 23.4508 23.4513Z" fill="white"/>
<path d="M54.5492 54.5488C54.215 54.8934 54.0298 55.3556 54.0335 55.8355C54.0372 56.3155 54.2296 56.7748 54.569 57.1142C54.9084 57.4535 55.3677 57.6458 55.8476 57.6495C56.3276 57.6532 56.7898 57.4679 57.1343 57.1338C67.0979 47.5695 67.0979 30.4306 57.134 20.8665C56.7895 20.5318 56.3272 20.3462 55.8469 20.3497C55.3666 20.3531 54.907 20.5455 54.5674 20.8851C54.2279 21.2248 54.0356 21.6844 54.0322 22.1647C54.0288 22.6449 54.2145 23.1072 54.5492 23.4517C58.6542 27.5854 60.9579 33.1746 60.9578 39.0002C60.9578 44.8259 58.6541 50.4151 54.5492 54.5488Z" fill="white"/>
<path d="M29.8665 27.2817C29.6968 27.1119 29.4952 26.9772 29.2734 26.8853C29.0515 26.7934 28.8138 26.7461 28.5737 26.7461C28.3336 26.7461 28.0958 26.7934 27.874 26.8853C27.6522 26.9772 27.4506 27.1119 27.2808 27.2817C25.7402 28.8196 24.5179 30.6462 23.6839 32.657C22.85 34.6679 22.4207 36.8234 22.4207 39.0003C22.4207 41.1771 22.85 43.3327 23.6839 45.3435C24.5179 47.3543 25.7402 49.1809 27.2808 50.7188C27.6236 51.0618 28.0886 51.2545 28.5736 51.2546C29.0585 51.2547 29.5236 51.0622 29.8665 50.7194C30.2095 50.3766 30.4022 49.9116 30.4023 49.4267C30.4024 48.9418 30.2099 48.4767 29.8671 48.1337C27.4555 45.7057 26.1021 42.4224 26.1022 39.0002C26.1022 35.5781 27.4556 32.2948 29.8673 29.8668C30.2099 29.5238 30.4023 29.0589 30.4022 28.5741C30.4021 28.0893 30.2094 27.6244 29.8665 27.2817Z" fill="white"/>
<path d="M48.1335 27.2817C47.7906 27.6244 47.5979 28.0893 47.5978 28.5741C47.5977 29.0589 47.7902 29.5239 48.1329 29.8668C50.5445 32.2948 51.8979 35.5781 51.8978 39.0003C51.8978 42.4224 50.5443 45.7057 48.1327 48.1337C47.7912 48.477 47.5998 48.9417 47.6005 49.4259C47.6012 49.9101 47.7939 50.3742 48.1364 50.7165C48.4788 51.0588 48.9431 51.2513 49.4273 51.2517C49.9115 51.2521 50.3761 51.0605 50.7192 50.7188C53.8116 47.6026 55.5469 43.3904 55.5469 39.0002C55.5469 34.61 53.8115 30.3978 50.719 27.2817C50.5492 27.1119 50.3477 26.9772 50.1259 26.8853C49.9041 26.7934 49.6663 26.7461 49.4262 26.7461C49.1861 26.7461 48.9484 26.7934 48.7266 26.8853C48.5048 26.9772 48.3032 27.1119 48.1335 27.2817Z" fill="white"/>
<path d="M39 31.498C37.0111 31.5004 35.1044 32.2915 33.6981 33.6978C32.2917 35.1042 31.5006 37.0109 31.4983 38.9998C31.8509 48.9283 46.1506 48.9258 46.5017 38.9997C46.4994 37.0108 45.7082 35.1041 44.3019 33.6978C42.8956 32.2915 40.9888 31.5004 39 31.498ZM39 42.8453C37.9876 42.8339 37.0206 42.4237 36.3087 41.7037C35.5969 40.9838 35.1976 40.0122 35.1976 38.9997C35.1976 37.9873 35.5969 37.0157 36.3088 36.2957C37.0207 35.5758 37.9877 35.1657 39.0001 35.1543C40.0125 35.1657 40.9796 35.5759 41.6914 36.2958C42.4033 37.0158 42.8025 37.9874 42.8025 38.9998C42.8025 40.0123 42.4032 40.9839 41.6913 41.7038C40.9794 42.4237 40.0124 42.8339 39 42.8453Z" fill="white"/>
</svg>
