<svg width="81" height="81" viewBox="0 0 81 81" fill="none" xmlns="http://www.w3.org/2000/svg">
<path d="M60.3228 3.71289H20.6771C11.3081 3.71289 3.71301 11.308 3.71301 20.677V60.3227C3.71301 69.6917 11.3081 77.2868 20.6771 77.2868H60.3228C69.6919 77.2868 77.287 69.6917 77.287 60.3227V20.677C77.287 11.308 69.6919 3.71289 60.3228 3.71289Z" fill="url(#paint0_linear_353_55)"/>
<path d="M52.3652 18.2281C55.1583 18.2394 57.8337 19.3539 59.8087 21.3289C61.7837 23.3039 62.8982 25.9793 62.9095 28.7724V52.2276C62.8982 55.0206 61.7837 57.6961 59.8087 59.6711C57.8337 61.646 55.1583 62.7606 52.3652 62.7718H28.6347C25.8417 62.7606 23.1663 61.646 21.1913 59.6711C19.2163 57.6961 18.1018 55.0206 18.0905 52.2276V28.7724C18.1018 25.9793 19.2163 23.3039 21.1913 21.3289C23.1663 19.3539 25.8417 18.2394 28.6347 18.2281H52.3652ZM52.3652 13.3238H28.6347C20.1377 13.3238 13.1846 20.2848 13.1846 28.774V52.2276C13.1846 60.7247 20.1456 67.6777 28.6347 67.6777H52.3652C60.8623 67.6777 67.8153 60.7168 67.8153 52.2276V28.7724C67.8153 20.2753 60.8623 13.3223 52.3652 13.3223V13.3238Z" fill="white"/>
<path d="M40.5 31.3447C42.3107 31.3447 44.0808 31.8817 45.5864 32.8877C47.0919 33.8936 48.2654 35.3235 48.9583 36.9964C49.6513 38.6693 49.8326 40.5101 49.4793 42.286C49.1261 44.062 48.2541 45.6933 46.9737 46.9737C45.6933 48.254 44.062 49.126 42.2861 49.4792C40.5102 49.8325 38.6694 49.6512 36.9965 48.9583C35.3236 48.2653 33.8937 47.0919 32.8877 45.5863C31.8817 44.0807 31.3448 42.3107 31.3448 40.4999C31.3477 38.0727 32.3132 35.7458 34.0295 34.0295C35.7458 32.3132 38.0728 31.3477 40.5 31.3447ZM40.5 26.4404C37.7193 26.4404 35.001 27.265 32.689 28.8099C30.3769 30.3548 28.5748 32.5506 27.5107 35.1196C26.4466 37.6886 26.1682 40.5155 26.7106 43.2428C27.2531 45.9701 28.5922 48.4753 30.5584 50.4415C32.5247 52.4078 35.0299 53.7468 37.7571 54.2893C40.4844 54.8318 43.3113 54.5534 45.8803 53.4892C48.4494 52.4251 50.6452 50.6231 52.1901 48.311C53.7349 45.9989 54.5595 43.2806 54.5595 40.4999C54.5595 36.7711 53.0783 33.195 50.4416 30.5584C47.8049 27.9217 44.2288 26.4404 40.5 26.4404Z" fill="white"/>
<path d="M54.8664 29.1569C56.7074 29.1569 58.1998 27.6645 58.1998 25.8236C58.1998 23.9826 56.7074 22.4902 54.8664 22.4902C53.0255 22.4902 51.5331 23.9826 51.5331 25.8236C51.5331 27.6645 53.0255 29.1569 54.8664 29.1569Z" fill="white"/>
<defs>
<linearGradient id="paint0_linear_353_55" x1="51.9333" y1="80.375" x2="29.0666" y2="0.624762" gradientUnits="userSpaceOnUse">
<stop stop-color="#FFDB73"/>
<stop offset="0.08" stop-color="#FDAD4E"/>
<stop offset="0.15" stop-color="#FB832E"/>
<stop offset="0.19" stop-color="#FA7321"/>
<stop offset="0.23" stop-color="#F6692F"/>
<stop offset="0.37" stop-color="#E84A5A"/>
<stop offset="0.48" stop-color="#E03675"/>
<stop offset="0.55" stop-color="#DD2F7F"/>
<stop offset="0.68" stop-color="#B43D97"/>
<stop offset="0.97" stop-color="#4D60D4"/>
<stop offset="1" stop-color="#4264DB"/>
</linearGradient>
</defs>
</svg>
