<?xml version="1.0" encoding="UTF-8"?>
<svg version="1.1" xmlns="http://www.w3.org/2000/svg" width="2704" height="2699">
<path d="M0 0 C1.72974441 0.00015918 3.45949355 0.0058569 5.18920898 0.01586914 C6.09783188 0.01728409 7.00645477 0.01869904 7.94261169 0.02015686 C10.85687494 0.02577346 13.77106254 0.03832874 16.68530273 0.05102539 C18.65600475 0.05603825 20.62670797 0.06060153 22.59741211 0.06469727 C27.43923832 0.07574828 32.28100768 0.09302401 37.12280273 0.11352539 C37.70288086 1.15033447 38.28295898 2.18714355 38.88061523 3.25537109 C43.21335769 10.98713744 47.58333174 18.68817685 52.12280273 26.30102539 C53.24307493 28.18876114 54.36283966 30.0767981 55.48217773 31.96508789 C56.0693457 32.95541016 56.65651367 33.94573242 57.26147461 34.96606445 C60.64829873 40.69310231 64.00994388 46.43489708 67.37280273 52.17602539 C68.09536543 53.40918682 68.81794037 54.64234108 69.54052734 55.87548828 C72.81305349 61.46086849 76.08405862 67.04713798 79.35404968 72.63400269 C81.13065122 75.66912642 82.90780562 78.70392607 84.68530273 81.73852539 C85.0361795 82.3375769 85.38705627 82.93662842 85.74856567 83.55383301 C90.90846876 92.36091378 96.09971295 101.14883544 101.31030273 109.92602539 C107.42390755 120.22497222 113.47982722 130.55597788 119.50561523 140.90649414 C123.46878796 147.7125274 127.45085654 154.50743549 131.43530273 161.30102539 C131.78982513 161.90550507 132.14434753 162.50998474 132.50961304 163.13278198 C133.95307823 165.5938932 135.3965765 168.054985 136.8401947 170.51600647 C139.40348891 174.88609259 141.96476127 179.2573594 144.52514648 183.62915039 C150.87349909 194.46767801 157.22561032 205.30371499 163.62280273 216.11352539 C168.55974633 224.45584507 173.47206492 232.81240553 178.37280273 241.17602539 C178.73018524 241.78589294 179.08756775 242.3957605 179.45578003 243.02410889 C183.09013708 249.22647004 186.72275797 255.42984644 190.35404968 261.63400269 C192.13065122 264.66912642 193.90780562 267.70392607 195.68530273 270.73852539 C196.0361795 271.3375769 196.38705627 271.93662842 196.74856567 272.55383301 C201.90846876 281.36091378 207.09971295 290.14883544 212.31030273 298.92602539 C218.42390755 309.22497222 224.47982722 319.55597788 230.50561523 329.90649414 C234.46878796 336.7125274 238.45085654 343.50743549 242.43530273 350.30102539 C242.78982513 350.90550507 243.14434753 351.50998474 243.50961304 352.13278198 C244.95307823 354.5938932 246.3965765 357.054985 247.8401947 359.51600647 C250.40348891 363.88609259 252.96476127 368.2573594 255.52514648 372.62915039 C261.87349909 383.46767801 268.22561032 394.30371499 274.62280273 405.11352539 C279.55974633 413.45584507 284.47206492 421.81240553 289.37280273 430.17602539 C289.9088765 431.09082672 289.9088765 431.09082672 290.45578003 432.02410889 C294.09013708 438.22647004 297.72275797 444.42984644 301.35404968 450.63400269 C303.13065122 453.66912642 304.90780562 456.70392607 306.68530273 459.73852539 C307.0361795 460.3375769 307.38705627 460.93662842 307.74856567 461.55383301 C312.90846876 470.36091378 318.09971295 479.14883544 323.31030273 487.92602539 C329.42390755 498.22497222 335.47982722 508.55597788 341.50561523 518.90649414 C347.26514611 528.79744802 353.06249945 538.66628897 358.85379028 548.53866577 C361.37804319 552.84222791 363.89946709 557.14743881 366.41967773 561.45336914 C373.29098885 573.19122524 380.18065612 584.91735028 387.12280273 596.61352539 C394.79095383 609.53287772 402.39264848 622.49039997 409.98168945 635.45629883 C413.52560817 641.51053536 417.07457241 647.56181521 420.62280273 653.61352539 C422.03431125 656.02104805 423.44576645 658.42860197 424.85717773 660.83618164 C425.20698196 661.43287155 425.55678619 662.02956146 425.91719055 662.64433289 C428.08320536 666.33933956 430.24837791 670.03483849 432.41296387 673.73068237 C439.131676 685.20224053 445.85208704 696.67254502 452.62280273 708.11352539 C459.7632599 720.17928535 466.84776532 732.27770821 473.93334961 744.37573242 C477.14209811 749.85410526 480.35328623 755.33104786 483.56433105 760.80807495 C485.3339254 763.82649759 487.10335562 766.84501644 488.87280273 769.86352539 C489.58113528 771.07185918 490.28946862 772.28019252 490.99780273 773.48852539 C492.4144694 775.90519206 493.83113607 778.32185872 495.24780273 780.73852539 C495.5984227 781.33664032 495.94904266 781.93475525 496.31028748 782.55099487 C497.01867689 783.75942687 497.72706109 784.96786193 498.43544006 786.17630005 C500.20537252 789.19564893 501.97539545 792.2149447 503.74560547 795.23413086 C506.94394241 800.68926554 510.14161216 806.14478577 513.33592224 811.60227966 C520.62906206 824.06249647 527.94019175 836.5111421 535.31030273 848.92602539 C541.42390755 859.22497222 547.47982722 869.55597788 553.50561523 879.90649414 C557.46878796 886.7125274 561.45085654 893.50743549 565.43530273 900.30102539 C565.78982513 900.90550507 566.14434753 901.50998474 566.50961304 902.13278198 C567.95307823 904.5938932 569.3965765 907.054985 570.8401947 909.51600647 C573.40348891 913.88609259 575.96476127 918.2573594 578.52514648 922.62915039 C584.87349909 933.46767801 591.22561032 944.30371499 597.62280273 955.11352539 C602.55974633 963.45584507 607.47206492 971.81240553 612.37280273 980.17602539 C612.73018524 980.78589294 613.08756775 981.3957605 613.45578003 982.02410889 C617.09013708 988.22647004 620.72275797 994.42984644 624.35404968 1000.63400269 C626.13065122 1003.66912642 627.90780562 1006.70392607 629.68530273 1009.73852539 C630.0361795 1010.3375769 630.38705627 1010.93662842 630.74856567 1011.55383301 C635.90846876 1020.36091378 641.09971295 1029.14883544 646.31030273 1037.92602539 C652.42390755 1048.22497222 658.47982722 1058.55597788 664.50561523 1068.90649414 C668.46878796 1075.7125274 672.45085654 1082.50743549 676.43530273 1089.30102539 C676.96708633 1090.2077449 676.96708633 1090.2077449 677.50961304 1091.13278198 C678.95307823 1093.5938932 680.3965765 1096.054985 681.8401947 1098.51600647 C684.40348891 1102.88609259 686.96476127 1107.2573594 689.52514648 1111.62915039 C695.87349909 1122.46767801 702.22561032 1133.30371499 708.62280273 1144.11352539 C713.55974633 1152.45584507 718.47206492 1160.81240553 723.37280273 1169.17602539 C723.73018524 1169.78589294 724.08756775 1170.3957605 724.45578003 1171.02410889 C728.09013708 1177.22647004 731.72275797 1183.42984644 735.35404968 1189.63400269 C737.13065122 1192.66912642 738.90780562 1195.70392607 740.68530273 1198.73852539 C741.0361795 1199.3375769 741.38705627 1199.93662842 741.74856567 1200.55383301 C746.90846876 1209.36091378 752.09971295 1218.14883544 757.31030273 1226.92602539 C763.42390755 1237.22497222 769.47982722 1247.55597788 775.50561523 1257.90649414 C781.25015342 1267.77170078 787.03232443 1277.61490606 792.80847168 1287.46162415 C795.46474272 1291.99024576 798.1183936 1296.52039711 800.77124023 1301.05102539 C801.91576259 1303.0052009 803.06033387 1304.95934775 804.20492554 1306.91348267 C804.92924773 1308.15033565 805.65339558 1309.38729076 806.37734985 1310.62435913 C807.38966703 1312.35410768 808.40270996 1314.08343143 809.41577148 1315.81274414 C810.35235596 1317.41255127 810.35235596 1317.41255127 811.30786133 1319.04467773 C813.52285095 1322.78995882 815.79280549 1326.50022356 818.08496094 1330.19873047 C819.12280273 1332.11352539 819.12280273 1332.11352539 819.12280273 1334.11352539 C819.78280273 1334.11352539 820.44280273 1334.11352539 821.12280273 1334.11352539 C821.39125 1333.39849854 821.65969727 1332.68347168 821.9362793 1331.94677734 C823.14074702 1329.07067694 824.54135232 1326.4768417 826.10717773 1323.78149414 C826.7053833 1322.74814941 827.30358887 1321.71480469 827.91992188 1320.65014648 C828.56437256 1319.54493652 829.20882324 1318.43972656 829.87280273 1317.30102539 C830.54941974 1316.13532694 831.22576647 1314.96947156 831.90185547 1313.8034668 C833.63715027 1310.81290958 835.37664776 1307.82482324 837.11785889 1304.83770752 C838.070121 1303.20391145 839.02153556 1301.56962146 839.97290039 1299.93530273 C843.43930482 1293.98068998 846.91244367 1288.03003825 850.38891602 1282.08129883 C853.30291115 1277.0936158 856.21260301 1272.10342355 859.12280273 1267.11352539 C860.29336549 1265.10700905 861.4639384 1263.10049862 862.63452148 1261.09399414 C864.9296421 1257.15959307 867.22385745 1253.2246663 869.51733398 1249.28930664 C876.23260026 1237.76862047 882.96562681 1226.25852066 889.71221924 1214.75616455 C896.29926625 1203.52522534 902.86527212 1192.28212926 909.42114258 1181.03295898 C912.32032299 1176.05901359 915.22168965 1171.08634369 918.12280273 1166.11352539 C919.28947952 1164.11353129 920.45614619 1162.1135313 921.62280273 1160.11352539 C961.2894694 1092.11352539 1000.95613607 1024.11352539 1040.62280273 956.11352539 C1041.48869019 954.62912964 1041.48869019 954.62912964 1042.37207031 953.11474609 C1043.54113792 951.11065348 1044.71024613 949.10658455 1045.87939453 947.10253906 C1048.75965669 942.16534744 1051.63925939 937.22777384 1054.51733398 932.28930664 C1061.23260026 920.76862047 1067.96562681 909.25852066 1074.71221924 897.75616455 C1081.29926625 886.52522534 1087.86527212 875.28212926 1094.42114258 864.03295898 C1097.32032299 859.05901359 1100.22168965 854.08634369 1103.12280273 849.11352539 C1104.28947952 847.11353129 1105.45614619 845.1135313 1106.62280273 843.11352539 C1127.62280273 807.1135254 1127.62280273 807.1135254 1129.37573242 804.10864258 C1130.53279565 802.12501322 1131.68969886 800.1412905 1132.84643555 798.1574707 C1135.90867349 792.90619084 1138.97434031 787.65694934 1142.04467773 782.41040039 C1143.00567383 780.7668457 1143.00567383 780.7668457 1143.98608398 779.09008789 C1145.21683532 776.98532474 1146.44856062 774.88113073 1147.68139648 772.77758789 C1148.5109082 771.35833008 1148.5109082 771.35833008 1149.35717773 769.91040039 C1149.84412109 769.07863281 1150.33106445 768.24686523 1150.83276367 767.38989258 C1152.00193099 765.32681233 1153.08562476 763.24543431 1154.12280273 761.11352539 C1076.37191355 709.6576982 989.2452188 674.48604493 826.12280273 656.11352539 C825.26315918 656.09016113 824.40351562 656.06679688 823.51782227 656.04272461 C742.48002109 654.14775539 661.65751853 671.27579436 576.98779297 707.54492188 C574.58768804 708.27667268 573.4587008 708.00341728 571.12280273 707.11352539 C569.88059998 705.47763062 569.88059998 705.47763062 568.82373047 703.32592773 C568.41908066 702.51932709 568.01443085 701.71272644 567.59751892 700.88168335 C567.17144852 699.9965506 566.74537811 699.11141785 566.30639648 698.19946289 C565.8498317 697.27880035 565.39326691 696.35813782 564.92286682 695.40957642 C563.45546836 692.44219596 562.00785986 689.46562688 560.56030273 686.48852539 C559.61298798 684.56733415 558.66443228 682.64675428 557.71459961 680.72680664 C553.47041891 672.12447871 549.2945709 663.49100048 545.17941284 654.82626343 C540.47234583 644.91879289 535.63680897 635.08237268 530.70483398 625.28540039 C530.22859494 624.33874197 530.22859494 624.33874197 529.74273491 623.37295914 C526.80363482 617.53138298 523.86063508 611.69178676 520.90869141 605.85668945 C519.26993674 602.61672475 517.63698616 599.37389188 516.00775719 596.1291275 C515.39316981 594.90797966 514.77636708 593.68794406 514.15726662 592.46907806 C513.30284136 590.78658714 512.45639332 589.10005222 511.61035156 587.41333008 C511.12834793 586.45900085 510.6463443 585.50467163 510.1497345 584.52142334 C509.12280273 582.11352539 509.12280273 582.11352539 509.12280273 579.11352539 C579.17795635 548.93524297 651.80296363 528.55695311 727.74707031 520.3706665 C730.02215163 520.12441952 732.29606473 519.86901101 734.57006836 519.61303711 C786.45813745 513.91404583 841.2499846 514.77293822 893.12280273 520.11352539 C893.97187195 520.19838196 894.82094116 520.28323853 895.69573975 520.3706665 C981.89565224 528.98765671 1066.41551125 550.52770802 1154.10327148 592.63745117 C1156.98031122 594.04386953 1159.8636422 595.43662947 1162.74780273 596.82836914 C1185.7442317 608.02153943 1207.46844971 621.54715961 1229.12280273 635.11352539 C1229.38601318 634.40897217 1229.64922363 633.70441895 1229.92041016 632.97851562 C1231.20205328 629.92469185 1232.71419863 627.14693674 1234.36108398 624.27368164 C1235.00964355 623.13962891 1235.65820312 622.00557617 1236.32641602 620.8371582 C1237.02919657 619.61667596 1237.73216328 618.3963009 1238.43530273 617.17602539 C1239.16180812 615.91013549 1239.88820664 614.64418427 1240.61450195 613.37817383 C1245.97370325 604.05033169 1251.42315304 594.77746841 1256.91577148 585.52758789 C1260.32600975 579.78126823 1263.6963175 574.01201514 1267.06030273 568.23852539 C1267.64183105 567.24046875 1268.22335937 566.24241211 1268.82250977 565.21411133 C1270.00073008 563.19141831 1271.17878959 561.1686316 1272.35668945 559.14575195 C1275.27608297 554.13346726 1278.1996396 549.12361223 1281.12280273 544.11352539 C1282.28948964 542.1135372 1283.4561563 540.1135372 1284.62280273 538.11352539 C1324.2894694 470.11352539 1363.95613607 402.11352539 1403.62280273 334.11352539 C1404.20006104 333.12392822 1404.77731934 332.13433105 1405.37207031 331.11474609 C1406.54113792 329.11065348 1407.71024613 327.10658455 1408.87939453 325.10253906 C1411.75965669 320.16534744 1414.63925939 315.22777384 1417.51733398 310.28930664 C1424.23260026 298.76862047 1430.96562681 287.25852066 1437.71221924 275.75616455 C1444.29926625 264.52522534 1450.86527212 253.28212926 1457.42114258 242.03295898 C1460.32032299 237.05901359 1463.22168965 232.08634369 1466.12280273 227.11352539 C1467.28947952 225.11353129 1468.45614619 223.1135313 1469.62280273 221.11352539 C1499.95613607 169.11352539 1530.2894694 117.11352539 1560.62280273 65.11352539 C1561.2003833 64.12336426 1561.77796387 63.13320313 1562.37304688 62.11303711 C1563.53881877 60.11461748 1564.70467153 58.11624502 1565.87060547 56.11791992 C1568.80162972 51.09412553 1571.73120957 46.06949907 1574.65795898 41.04321289 C1580.56135137 30.90763002 1586.47966187 20.78101359 1592.43530273 10.67602539 C1592.99290283 9.72775879 1593.55050293 8.77949219 1594.125 7.80249023 C1594.63603271 6.9370459 1595.14706543 6.07160156 1595.67358398 5.17993164 C1596.34901245 4.03439819 1596.34901245 4.03439819 1597.03808594 2.86572266 C1598.12280273 1.11352539 1598.12280273 1.11352539 1599.12280273 0.11352539 C1601.34135538 0.02568997 1603.5626877 0.0065793 1605.78295898 0.01586914 C1606.99862549 0.0183667 1608.21429199 0.02086426 1609.46679688 0.0234375 C1611.03963258 0.03256095 1612.61246779 0.04177106 1614.18530273 0.05102539 C1616.77318739 0.06238514 1619.36107154 0.07342445 1621.94895935 0.08399963 C1622.98569959 0.08828437 1622.98569959 0.08828437 1624.04338408 0.09265566 C1625.73652348 0.0996481 1627.42966309 0.10659168 1629.12280273 0.11352539 C1634.1569332 28.21506943 1639.08029591 56.33262365 1643.84742165 84.48066258 C1644.67516363 89.3655481 1645.50506866 94.25006623 1646.3347168 99.1346283 C1647.75642748 107.50642813 1649.17700902 115.87841883 1650.59677124 124.25054932 C1652.856497 137.57548798 1655.11885952 150.89997829 1657.38183594 164.22436523 C1657.66820059 165.91048872 1657.66820059 165.91048872 1657.96035039 167.63067532 C1658.92810384 173.32877385 1659.8958976 179.02686554 1660.86371803 184.7249527 C1661.64207005 189.30759532 1662.42033513 193.8902527 1663.19852257 198.47292328 C1670.42221557 241.01247505 1677.66947069 283.54797636 1684.92996597 326.08126068 C1687.45385454 340.86670906 1689.97710697 355.65226603 1692.50038552 370.43781853 C1692.9465745 373.05231249 1693.39277661 375.66680422 1693.83897972 378.28129578 C1698.40319191 405.02534304 1702.96217833 431.77027788 1707.51733398 458.51586914 C1707.67223942 459.42539479 1707.82714486 460.33492043 1707.9867444 461.27200747 C1710.20563633 474.300341 1712.42423553 487.32872437 1714.64278221 500.3571167 C1717.39765941 516.53506513 1720.1526716 532.71299056 1722.90795898 548.89086914 C1723.07199329 549.85401268 1723.23602759 550.81715621 1723.40503263 551.80948591 C1728.9932855 584.62112763 1734.58614842 617.43198211 1740.18139648 650.24243164 C1740.37298883 651.36593191 1740.56458117 652.48943217 1740.76197934 653.6469779 C1742.90846664 666.23398231 1745.05503268 678.82097328 1747.20162964 691.40795898 C1759.50019883 763.52303094 1771.79137074 835.63935019 1784.06389046 907.75886011 C1786.85945671 924.18699691 1789.65509895 940.61512077 1792.45092773 957.04321289 C1792.61157935 957.98719319 1792.77223097 958.93117348 1792.93775082 959.90375924 C1800.22178582 1002.70400979 1807.51445629 1045.50278683 1814.81030273 1088.30102539 C1815.11236843 1090.07299548 1815.41443396 1091.84496559 1815.71649933 1093.61693573 C1823.14735884 1137.20749896 1830.58042751 1180.79768551 1838.01361173 1224.38785237 C1839.48798447 1233.03398037 1840.96232984 1241.68011304 1842.43666077 1250.32624817 C1843.06678566 1254.02157575 1843.6969107 1257.7169033 1844.32703578 1261.41223085 C1844.74628353 1263.87088395 1845.1655306 1266.32953716 1845.584777 1268.78819048 C1848.03714217 1283.16996519 1850.48963555 1297.55171801 1852.94240195 1311.93342429 C1854.47831123 1320.93921972 1856.01401569 1329.94505006 1857.54966253 1338.95089024 C1858.64014003 1345.3457839 1859.73099771 1351.74061256 1860.82215518 1358.13539022 C1866.89563928 1393.73087504 1866.89563928 1393.73087504 1869.80937111 1411.0300225 C1870.14698865 1413.03408986 1870.48497266 1415.03809503 1870.82309628 1417.04207706 C1871.78965625 1422.77164922 1872.75374572 1428.50160012 1873.71113586 1434.23271179 C1874.02750252 1436.11138159 1874.3439948 1437.99003024 1874.66064453 1439.86865234 C1874.86620122 1441.11118365 1874.86620122 1441.11118365 1875.07591057 1442.3788166 C1875.70607195 1446.36481141 1875.70607195 1446.36481141 1877.12280273 1450.11352539 C1882.28650159 1444.49561228 1887.24849368 1438.79074243 1891.97045898 1432.79711914 C1894.39998458 1429.76792842 1896.91182687 1426.81420734 1899.43530273 1423.86352539 C1903.24045375 1419.40732039 1906.91079549 1414.87179737 1910.49780273 1410.23852539 C1914.97264837 1404.46599068 1919.68104017 1398.93593367 1924.49291992 1393.44262695 C1928.15292418 1389.25757725 1931.67187287 1384.99065013 1935.11108398 1380.62133789 C1937.49373362 1377.65112223 1939.961379 1374.7575169 1942.43530273 1371.86352539 C1946.24035277 1367.40723146 1949.91079163 1362.87180235 1953.49780273 1358.23852539 C1957.97264837 1352.46599068 1962.68104017 1346.93593367 1967.49291992 1341.44262695 C1971.15292418 1337.25757725 1974.67187287 1332.99065013 1978.11108398 1328.62133789 C1980.49373639 1325.65111878 1982.96148999 1322.75761474 1985.43530273 1319.86352539 C1990.35351843 1314.09935938 1995.06068448 1308.1874915 1999.71264648 1302.20727539 C2000.50799805 1301.18633789 2001.30334961 1300.16540039 2002.12280273 1299.11352539 C2002.8459668 1298.15446289 2003.56913086 1297.19540039 2004.31420898 1296.20727539 C2004.91104492 1295.51633789 2005.50788086 1294.82540039 2006.12280273 1294.11352539 C2006.78280273 1294.11352539 2007.44280273 1294.11352539 2008.12280273 1294.11352539 C2005.35705393 1305.46804892 2002.32657891 1316.72752843 1999.13452148 1327.96899414 C1998.64250617 1329.70851752 1998.15069132 1331.44809761 1997.65905762 1333.18772888 C1996.32555507 1337.903726 1994.98891109 1342.6188274 1993.65160751 1347.33374786 C1992.51251666 1351.35131532 1991.37526776 1355.36940328 1990.23798084 1359.38748169 C1978.03462103 1402.50043868 1965.76691283 1445.59516212 1953.5018425 1488.69059372 C1947.90697186 1508.34983029 1942.32370417 1528.01234083 1936.74685669 1547.67669678 C1933.2075641 1560.15622376 1929.66550168 1572.63496505 1926.12280273 1585.11352539 C1925.78464539 1586.30480042 1925.44648804 1587.49607544 1925.0980835 1588.72344971 C1923.28626284 1595.10532048 1921.47252384 1601.48663791 1919.65487671 1607.86685181 C1919.14265607 1609.66579021 1918.63109539 1611.46491668 1918.12026978 1613.26425171 C1917.45111213 1615.62079822 1916.7795353 1617.97664024 1916.10717773 1620.33227539 C1915.91667343 1621.00519119 1915.72616913 1621.67810699 1915.52989197 1622.37141418 C1914.85805698 1624.7171084 1914.21666368 1626.9258035 1913.12280273 1629.11352539 C1849.10280273 1629.11352539 1785.08280273 1629.11352539 1719.12280273 1629.11352539 C1717.83779355 1623.97348867 1716.70550132 1619.10775214 1715.84240723 1613.91889954 C1715.72840765 1613.23902694 1715.61440807 1612.55915433 1715.49695396 1611.85867953 C1715.11850868 1609.59688028 1714.74467846 1607.3343438 1714.37084961 1605.07177734 C1714.09713095 1603.42995144 1713.82312823 1601.78817288 1713.54886627 1600.14643764 C1712.80023525 1595.66002768 1712.05565313 1591.17295398 1711.31177521 1586.68575382 C1710.51493143 1581.88331818 1709.71438525 1577.08149963 1708.91430664 1572.27960205 C1707.35703579 1562.92949393 1705.80328103 1553.57880478 1704.25072193 1544.22791326 C1702.9780597 1536.56341106 1701.70388435 1528.8991617 1700.42871094 1521.2350769 C1700.24630057 1520.1387463 1700.0638902 1519.0424157 1699.87595224 1517.91286296 C1699.50619174 1515.69054762 1699.13642884 1513.46823269 1698.76666355 1511.24591815 C1689.13101714 1453.33151636 1679.52718416 1395.41182598 1669.94458222 1337.48862493 C1668.74106297 1330.21383649 1667.53744409 1322.93906454 1666.33374023 1315.66430664 C1666.19787994 1314.84320947 1666.06201964 1314.0221123 1665.92204237 1313.17613339 C1660.49130056 1280.35540222 1655.04686899 1247.53694696 1649.59936523 1214.71899414 C1649.39050013 1213.46070494 1649.18163503 1212.20241574 1648.96644068 1210.90599656 C1646.27428847 1194.68753944 1643.58181758 1178.46913524 1640.88925885 1162.25074561 C1636.86782423 1138.02797603 1632.84670729 1113.80515371 1628.82592773 1089.58227539 C1628.61440111 1088.30795521 1628.40287448 1087.03363502 1628.18493795 1085.72069907 C1620.4468713 1039.10313416 1612.71863224 992.48394789 1604.99780273 945.86352539 C1602.78835949 932.52234772 1600.57881741 919.18118644 1598.36889648 905.84008789 C1598.22930252 904.99736784 1598.08970855 904.1546478 1597.94588447 903.28639078 C1592.60561655 871.04813438 1587.25769978 838.81114854 1581.90795898 806.57446289 C1581.6074767 804.76377957 1581.6074767 804.76377957 1581.30092406 802.91651678 C1577.20332534 778.22471295 1573.10531616 753.53297727 1569.00626892 728.84141386 C1566.80009046 715.55194777 1564.5941413 702.26244364 1562.38842773 688.97290039 C1562.09385504 687.1981061 1562.09385504 687.1981061 1561.79333138 685.38745737 C1556.42848499 653.06366735 1551.07260324 620.7384097 1545.72924614 588.41106033 C1544.74905306 582.48097596 1543.76849297 576.55095232 1542.78785706 570.62094116 C1542.15999491 566.82403709 1541.53214554 563.02713091 1540.90429688 559.23022461 C1540.75223191 558.3106424 1540.60016695 557.39106019 1540.44349396 556.44361186 C1538.6718534 545.72962048 1536.90182975 535.01536474 1535.13449609 524.30066204 C1534.05944121 517.78361235 1532.98274733 511.2668349 1531.90471232 504.75027752 C1531.17580273 500.34358916 1530.4488956 495.93657739 1529.72363561 491.52928698 C1529.18832365 488.28018584 1528.64984828 485.0316108 1528.11181641 481.78295898 C1527.92254546 480.62876528 1527.73327452 479.47457157 1527.53826809 478.2854023 C1527.36472333 477.24129126 1527.19117857 476.19718021 1527.01237488 475.12142944 C1526.86354449 474.21960623 1526.71471411 473.31778301 1526.56137371 472.38863182 C1526.14515721 469.96235558 1526.14515721 469.96235558 1525.12280273 467.11352539 C1524.78772705 467.68868896 1524.45265137 468.26385254 1524.10742188 468.85644531 C1516.96244288 481.11856271 1509.80343465 493.37226152 1502.62280273 505.61352539 C1497.44504922 514.44042593 1492.27549001 523.27195711 1487.12280273 532.11352539 C1479.86961822 544.55813371 1472.58382381 556.98353765 1465.29614258 569.40795898 C1462.09046004 574.87337022 1458.88642415 580.3397467 1455.68228149 585.80606079 C1453.91252436 588.82525617 1452.14265796 591.8443875 1450.37280273 594.86352539 C1449.66446888 596.07185842 1448.95613555 597.28019175 1448.24780273 598.48852539 C1441.1644694 610.57185872 1434.08113607 622.65519206 1426.99780273 634.73852539 C1426.64719284 635.33662521 1426.29658295 635.93472504 1425.93534851 636.5509491 C1425.22686468 637.75953797 1424.51837876 638.96812561 1423.80989075 640.17671204 C1422.04134294 643.19362562 1420.27283119 646.21056033 1418.50439453 649.22753906 C1415.28965822 654.71184412 1412.07463796 660.19598183 1408.85830688 665.67935181 C1401.37591494 678.43577413 1393.89668588 691.19392138 1386.45703125 703.9753418 C1383.56097612 708.94752236 1380.65451881 713.91326745 1377.72937012 718.86837769 C1376.16008468 721.52674398 1374.59315613 724.18649697 1373.02612305 726.84619141 C1372.26438268 728.1373123 1371.50138531 729.4276925 1370.73706055 730.71728516 C1369.66980066 732.51810959 1368.60685142 734.32141642 1367.54467773 736.12524414 C1366.93205078 737.16124756 1366.31942383 738.19725098 1365.68823242 739.26464844 C1364.27424308 741.83792379 1363.13992976 744.36317602 1362.12280273 747.11352539 C1362.6912793 747.67040039 1363.25975586 748.22727539 1363.84545898 748.80102539 C1368.1740949 753.07907625 1372.3560923 757.40827083 1376.31811523 762.02758789 C1378.33931549 764.3637804 1380.41659112 766.6431739 1382.49780273 768.92602539 C1386.39204891 773.24127115 1390.08934998 777.68444294 1393.74389648 782.20336914 C1395.85216911 784.7824547 1397.99568647 787.32271555 1400.16162109 789.85302734 C1406.06391746 796.75466521 1411.67903804 803.84502447 1417.12280273 811.11352539 C1417.88584717 812.12962891 1417.88584717 812.12962891 1418.66430664 813.16625977 C1432.22644982 831.27072817 1445.41071261 849.63755865 1456.9362793 869.11694336 C1458.04382333 870.98062548 1459.16854321 872.83222854 1460.30249023 874.67993164 C1501.21508158 941.52977434 1529.51573654 1015.0851995 1561.12280273 1208.11352539 C1561.16517059 1208.85597504 1561.20753845 1209.59842468 1561.25119019 1210.3633728 C1562.128819 1226.13468917 1562.3245304 1241.88252581 1562.31030273 1257.67602539 C1562.30969849 1258.92397888 1562.30909424 1260.17193237 1562.30847168 1261.45770264 C1562.28108251 1282.40206921 1561.85141378 1303.23744385 1560.12280273 1324.11352539 C1560.05963867 1324.87743591 1559.99647461 1325.64134644 1559.93139648 1326.42840576 C1553.17762328 1406.78051208 1534.95690037 1485.43065443 1399.61987305 1727.2800293 C1398.2886032 1728.91046578 1396.96674104 1730.54857358 1395.64624023 1732.18774414 C1391.09413543 1737.82559832 1386.35580655 1743.23687707 1381.45092773 1748.57055664 C1379.51586012 1750.68419594 1377.62071977 1752.82012387 1375.74780273 1754.98852539 C1365.72222591 1766.47942604 1355.07008366 1777.32533465 1344.27612305 1788.09057617 C1341.85926281 1790.50203505 1339.44784983 1792.91884978 1337.03686523 1795.33618164 C1335.47729022 1796.89509641 1333.91740533 1798.45370125 1332.35717773 1800.01196289 C1331.29439606 1801.07778091 1331.29439606 1801.07778091 1330.21014404 1802.16513062 C1326.21724637 1806.1395574 1322.12777841 1809.94298671 1317.85682678 1813.61761475 C1315.45779371 1815.68721644 1313.13744293 1817.83872558 1310.81030273 1819.98852539 C1306.32132217 1824.08232748 1301.71036798 1827.96822207 1296.98217773 1831.78149414 C1294.485052 1833.81808439 1292.0310802 1835.89624304 1289.58862305 1837.99780273 C1282.07134358 1844.45140331 1274.27229744 1850.49312705 1266.34985352 1856.43969727 C1264.89470426 1857.53337226 1263.44241986 1858.63087224 1261.9934082 1859.73266602 C1241.32430421 1875.44707558 1219.53063467 1889.99415025 1197.12280273 1903.11352539 C1195.96119629 1903.79922607 1195.96119629 1903.79922607 1194.77612305 1904.4987793 C1179.85903849 1913.27893852 1164.57562662 1921.32076819 1149.12280273 1929.11352539 C1148.09171387 1929.63446777 1147.060625 1930.15541016 1145.99829102 1930.69213867 C1119.5897129 1943.94114472 1092.0703973 1954.59328544 1064.12280273 1964.11352539 C1063.12394043 1964.45689941 1062.12507813 1964.80027344 1061.09594727 1965.15405273 C998.42045701 1986.53892584 932.11805202 1997.43989328 866.12280273 2001.11352539 C865.11330566 2001.17137207 864.10380859 2001.22921875 863.0637207 2001.28881836 C778.2676948 2005.92857493 691.96508968 1997.75018442 450.12280273 1910.11352539 C449.11910645 1909.54359863 448.11541016 1908.97367188 447.08129883 1908.38647461 C416.00436177 1890.63575767 386.00139767 1870.56895179 358.12280273 1848.11352539 C357.48101074 1847.59790039 356.83921875 1847.08227539 356.17797852 1846.55102539 C344.13878343 1836.86612299 332.21563511 1827.07511963 320.85327148 1816.59790039 C318.68467109 1814.62475325 316.49524397 1812.68918616 314.28295898 1810.76586914 C303.2788866 1801.16133005 292.83824465 1790.92235981 282.49780273 1780.61352539 C281.66925781 1779.78957275 280.84071289 1778.96562012 279.98706055 1778.11669922 C275.75604534 1773.87493884 271.68683092 1769.5584507 267.78051758 1765.01635742 C265.02887388 1761.85784328 262.12904396 1758.84082994 259.24780273 1755.80102539 C254.327865 1750.57403879 249.66905591 1745.25489677 245.18920898 1739.64477539 C243.12167491 1737.11214386 240.96166933 1734.70621379 238.74780273 1732.30102539 C233.78803241 1726.83759508 229.2537374 1721.08149748 224.75805664 1715.23754883 C223.60192176 1713.73585079 222.44240934 1712.23675023 221.28051758 1710.73950195 C212.33716367 1699.21191789 203.75113297 1687.52479137 195.64770508 1675.39135742 C194.15704558 1673.16467585 192.6516677 1670.94867305 191.14233398 1668.73461914 C144.44023258 1599.92264207 111.52327317 1522.99889597 75.12280273 1332.11352539 C75.01838867 1330.89681152 74.91397461 1329.68009766 74.80639648 1328.42651367 C71.32722331 1286.18648878 71.28381374 1242.31110825 75.12280273 1200.11352539 C75.25303807 1198.63533767 75.38324534 1197.15714747 75.51342773 1195.67895508 C82.49811007 1117.64232403 100.49246256 1040.57678164 175.12280273 880.11352539 C175.6092627 879.27982422 176.09572266 878.44612305 176.59692383 877.5871582 C188.31289657 857.5784797 200.66139332 837.92136214 214.4987793 819.30688477 C216.20855448 816.99771154 217.89763557 814.67440509 219.58374023 812.34790039 C226.67181609 802.59604039 234.01409898 793.1173181 241.70336914 783.83276367 C243.69500303 781.42046821 245.65598692 778.98357173 247.62280273 776.55102539 C255.84661918 766.50979095 264.45714408 756.77403307 273.12280273 747.11352539 C271.57145557 742.90499899 269.52404527 739.06334548 267.31030273 735.17602539 C266.9177832 734.48275146 266.52526367 733.78947754 266.12084961 733.07519531 C261.76185356 725.4158885 257.25939392 717.84133511 252.76342773 710.26196289 C248.77697837 703.53838501 244.82346367 696.79565913 240.87280273 690.05102539 C240.15024004 688.81786396 239.4276651 687.5847097 238.70507812 686.3515625 C235.43255198 680.76618229 232.16154685 675.1799128 228.89155579 669.5930481 C227.11495425 666.55792436 225.33779985 663.52312471 223.56030273 660.48852539 C223.20942596 659.88947388 222.85854919 659.29042236 222.49703979 658.67321777 C217.3371367 649.866137 212.14589252 641.07821534 206.93530273 632.30102539 C200.82169792 622.00207856 194.76577825 611.6710729 188.73999023 601.32055664 C184.77681725 594.51452295 180.79466924 587.71966237 176.81030273 580.92602539 C176.45445099 580.31921936 176.09859924 579.71241333 175.73196411 579.08721924 C173.92017435 575.99775499 172.10821055 572.90839287 170.29614258 569.8190918 C167.09035669 564.35350435 163.88624095 558.88693795 160.68200684 553.42044067 C159.62168281 551.61161489 158.56122707 549.80286638 157.50073242 547.99414062 C154.30214482 542.538616 151.10424831 537.08269187 147.90969849 531.62480164 C139.29806998 516.91193153 130.64960862 502.22203062 121.94702148 487.56274414 C119.37932048 483.23657682 116.81972385 478.90577486 114.26733398 474.57055664 C113.66244141 473.54373779 113.05754883 472.51691895 112.43432617 471.45898438 C111.29442129 469.52302365 110.15569111 467.58637062 109.01831055 465.64892578 C108.51783203 464.79935303 108.01735352 463.94978027 107.50170898 463.07446289 C107.06415283 462.32986816 106.62659668 461.58527344 106.17578125 460.81811523 C105.2350565 459.14912379 105.2350565 459.14912379 104.12280273 458.11352539 C98.60085589 493.11334976 93.08007889 528.11335862 87.56030273 563.11352539 C87.4546074 563.78372465 87.34891206 564.45392392 87.24001384 565.14443225 C74.61235851 645.21485905 61.99887524 725.28749786 46.37280273 824.67602539 C46.17071496 825.96145737 45.9686272 827.24688934 45.76041555 828.5712738 C44.32577579 837.69668334 42.89115634 846.82209608 41.45654297 855.94750977 C40.03188345 865.00960086 38.60722044 874.0716914 37.18255115 883.13378096 C36.57708398 886.98507694 35.97162527 890.83637426 35.36616707 894.68767166 C29.74171967 930.46429638 24.11401693 966.24040726 18.48217773 1002.01586914 C18.30823958 1003.1207887 18.13430143 1004.22570826 17.95509243 1005.36411023 C15.69060079 1019.74889247 13.42590186 1034.13364206 11.16114807 1048.51838303 C8.03357483 1068.38339772 4.90616788 1088.24843858 1.77905273 1108.11352539 C1.60536195 1109.21689893 1.43167116 1110.32027246 1.25271702 1111.45708156 C-6.61886635 1161.46190674 -14.48273641 1211.46794428 -22.34553354 1261.47415166 C-25.11560229 1279.09132406 -27.88621142 1296.70841139 -30.65723586 1314.32543349 C-32.28069336 1324.6467624 -33.90406338 1334.96810507 -35.52741194 1345.28945112 C-35.93228045 1347.86362495 -36.33715239 1350.43779825 -36.74202776 1353.011971 C-41.8824406 1385.69458591 -47.01888038 1418.377821 -52.14904404 1451.06204605 C-52.56503749 1453.71232399 -52.98103402 1456.36260145 -53.39703369 1459.01287842 C-53.49970223 1459.66696793 -53.60237077 1460.32105744 -53.70815048 1460.99496785 C-56.4111277 1478.21506321 -59.1165545 1495.43477373 -61.82242203 1512.65441513 C-63.90280464 1525.89431022 -65.98112022 1539.1345265 -68.05673969 1552.37516916 C-69.45341421 1561.28362824 -70.85245684 1570.19171329 -72.25342953 1579.09949744 C-73.05783925 1584.21468807 -73.86112516 1589.33004885 -74.66149521 1594.44587326 C-75.39103759 1599.10888317 -76.1235983 1603.77140804 -76.85865498 1608.43355179 C-77.12442223 1610.12278373 -77.38904031 1611.81219693 -77.65243435 1613.50180054 C-78.00809709 1615.78224305 -78.36780768 1618.06200975 -78.72860718 1620.34164429 C-78.92775915 1621.61055197 -79.12691113 1622.87945965 -79.33209801 1624.18681908 C-79.87719727 1627.11352539 -79.87719727 1627.11352539 -80.87719727 1629.11352539 C-145.22719727 1629.11352539 -209.57719727 1629.11352539 -275.87719727 1629.11352539 C-277.64834556 1624.39046326 -279.31316504 1619.9056836 -280.72045898 1615.10571289 C-281.22034584 1613.40871246 -281.22034584 1613.40871246 -281.73033142 1611.6774292 C-282.08559402 1610.46009094 -282.44085663 1609.24275269 -282.80688477 1607.98852539 C-283.1927108 1606.67434566 -283.57879075 1605.36024046 -283.96510315 1604.04620361 C-285.01159528 1600.48362773 -286.0542767 1596.91994686 -287.09620285 1593.35603333 C-287.98213993 1590.32746953 -288.87030747 1587.29956177 -289.75849056 1584.27165604 C-292.80445991 1573.88748264 -295.84194952 1563.50083696 -298.87719727 1553.11352539 C-299.10033852 1552.34996735 -299.32347977 1551.5864093 -299.55338287 1550.79971313 C-305.68257967 1529.82605294 -311.79759643 1508.84826645 -317.90897846 1487.86940956 C-321.7853225 1474.56318485 -325.66426273 1461.25771686 -329.54410172 1447.95251083 C-330.18782949 1445.74493068 -330.83150991 1443.53733672 -331.47518921 1441.32974243 C-336.7133093 1423.36566316 -341.96024473 1405.40417997 -347.21704102 1387.44555664 C-347.48461527 1386.53144264 -347.75218952 1385.61732864 -348.02787209 1384.67551422 C-350.64642428 1375.73009069 -353.26563916 1366.78486155 -355.88609791 1357.83999634 C-358.22264412 1349.86422414 -360.55768635 1341.88801558 -362.88944721 1333.9108429 C-364.00397066 1330.09820235 -365.11954003 1326.28587382 -366.23730469 1322.47418213 C-367.31942399 1318.78392615 -368.39901548 1315.09294007 -369.4766922 1311.40138435 C-369.8754214 1310.03721005 -370.27507742 1308.67330625 -370.67571259 1307.30969048 C-371.22093548 1305.45344212 -371.76254802 1303.59613443 -372.30395508 1301.73876953 C-372.60940247 1300.69515762 -372.91484985 1299.65154572 -373.22955322 1298.5763092 C-373.87719727 1296.11352539 -373.87719727 1296.11352539 -373.87719727 1294.11352539 C-373.21719727 1294.11352539 -372.55719727 1294.11352539 -371.87719727 1294.11352539 C-370.50228428 1295.621397 -369.20355265 1297.198923 -367.93969727 1298.80102539 C-366.73506836 1300.30729492 -366.73506836 1300.30729492 -365.50610352 1301.84399414 C-365.0782959 1302.37943848 -364.65048828 1302.91488281 -364.2097168 1303.46655273 C-361.97986794 1306.22260996 -359.67701651 1308.91583863 -357.37719727 1311.61352539 C-354.00372644 1315.58200577 -350.66541476 1319.57371532 -347.37719727 1323.61352539 C-342.2954405 1329.85269295 -337.08825621 1335.98244501 -331.87719727 1342.11352539 C-325.91711456 1349.12587097 -319.99960932 1356.16313344 -314.18969727 1363.30102539 C-311.61573334 1366.43152205 -309.0015064 1369.52525 -306.37719727 1372.61352539 C-302.25618093 1377.4631192 -298.20728373 1382.36513345 -294.18969727 1387.30102539 C-291.61573334 1390.43152205 -289.0015064 1393.52525 -286.37719727 1396.61352539 C-282.25618093 1401.4631192 -278.20728373 1406.36513345 -274.18969727 1411.30102539 C-271.61573182 1414.43152391 -269.00142823 1417.52518173 -266.37719727 1420.61352539 C-261.47170683 1426.3889885 -256.65911948 1432.23521889 -251.87719727 1438.11352539 C-250.19097565 1440.17707418 -248.50277306 1442.23899209 -246.81469727 1444.30102539 C-245.50216442 1445.90516519 -244.18965875 1447.50932721 -242.87719727 1449.11352539 C-240.79912347 1439.04050012 -238.95518516 1428.95454663 -237.30639648 1418.80151367 C-237.06340159 1417.31782224 -236.82017032 1415.83416951 -236.57672691 1414.35055161 C-235.91497337 1410.31353862 -235.25647322 1406.27600097 -234.59852314 1402.2383666 C-233.88454202 1397.86074472 -233.16740015 1393.48364053 -232.45062256 1389.10647583 C-231.20521141 1381.49861898 -229.96164053 1373.89046323 -228.71929932 1366.28210449 C-226.71924757 1354.03371845 -224.71529085 1341.78597286 -222.71069336 1329.53833008 C-222.01771903 1325.30420113 -221.32476112 1321.0700695 -220.63180542 1316.8359375 C-220.37189597 1315.24786246 -220.37189597 1315.24786246 -220.10673583 1313.6277051 C-218.85894607 1306.00333179 -217.61165092 1298.37887767 -216.36453247 1290.75439453 C-211.47705522 1260.87517315 -206.57987229 1230.99755626 -201.67407227 1201.12133789 C-201.50609154 1200.09833084 -201.33811082 1199.07532379 -201.16503978 1198.02131653 C-199.124396 1185.59396078 -197.08331884 1173.16667622 -195.04212457 1160.73941088 C-193.14376199 1149.18155916 -191.24592558 1137.62362105 -189.34814453 1126.06567383 C-189.17622042 1125.01861676 -189.00429631 1123.9715597 -188.82716238 1122.89277363 C-187.95831539 1117.60128696 -187.08947567 1112.3097991 -186.22064018 1107.01831055 C-185.35231253 1101.72992984 -184.4839581 1096.44155353 -183.61559469 1091.15317869 C-176.13833161 1045.61625108 -168.66372769 1000.07888715 -161.19067526 954.54126835 C-160.689474 951.48716489 -160.18826794 948.43306223 -159.68706131 945.37895966 C-152.24159529 900.00982763 -144.79840413 854.64032358 -137.36157227 809.26977539 C-137.20807178 808.33330374 -137.0545713 807.39683209 -136.89641929 806.43198252 C-134.26900464 790.4026614 -131.6417455 774.37331479 -129.0145607 758.34395599 C-118.46443881 693.9741645 -107.90054163 629.60664202 -97.33058548 565.24010468 C-89.64332595 518.4278781 -81.95717938 471.61547167 -74.28344727 424.80102539 C-74.05263962 423.39296257 -74.05263962 423.39296257 -73.81716919 421.95645404 C-71.04631776 405.05247361 -68.27588862 388.14842397 -65.50565147 371.24434286 C-63.51508499 359.09784488 -61.52438681 346.95136848 -59.53344727 334.80493164 C-59.3043655 333.40733199 -59.3043655 333.40733199 -59.07065582 331.981498 C-53.95771128 300.78861735 -48.83805119 269.59684197 -43.71517181 238.40559149 C-42.97333789 233.88879581 -42.23154774 229.37199294 -41.48975563 224.8551904 C-38.26501128 205.21969082 -35.04012508 185.58421465 -31.81341839 165.94903743 C-30.49389173 157.9192969 -29.17477228 149.88948954 -27.85595417 141.85963261 C-27.05685606 136.99424663 -26.25757936 132.12889015 -25.45785522 127.26360703 C-22.06146431 106.59985743 -18.68023772 85.93380057 -15.33810139 65.26119936 C-14.83997429 62.18079538 -14.3413543 59.10047162 -13.84255219 56.02017689 C-13.51746922 54.01248012 -13.19238833 52.00478302 -12.86730957 49.99708557 C-12.70856527 49.01676638 -12.54982097 48.0364472 -12.38626623 47.02642137 C-11.45272963 41.2587962 -10.52304626 35.49056606 -9.59624672 29.72185469 C-9.03030454 26.20415449 -8.46111458 22.6869855 -7.89105034 19.1699512 C-7.62726315 17.53784426 -7.36492329 15.90550268 -7.10409737 14.27291989 C-6.74972224 12.05564495 -6.39044755 9.8392195 -6.02990723 7.62294006 C-5.73030216 5.7618641 -5.73030216 5.7618641 -5.42464447 3.86319065 C-4.58368637 -0.36069295 -4.57447305 0.13394182 0 0 Z M1283.12280273 878.11352539 C1282.70619385 878.84651855 1282.28958496 879.57951172 1281.86035156 880.3347168 C1273.85120881 894.41578473 1265.78835723 908.45754742 1257.51733398 922.38696289 C1253.61007005 928.96822799 1249.74092442 935.57171795 1245.87280273 942.17602539 C1245.1511268 943.40796118 1244.4294471 944.63989477 1243.70776367 945.87182617 C1242.61395113 947.739083 1241.52018718 949.60636823 1240.42654419 951.47372437 C1237.86988585 955.83898412 1235.31132833 960.20312627 1232.75170898 964.56665039 C1226.19674574 975.74196705 1219.64682866 986.92010465 1213.12280273 998.11352539 C1205.86955135 1010.55809496 1198.58382395 1022.98353741 1191.29614258 1035.40795898 C1188.09046004 1040.87337022 1184.88642415 1046.3397467 1181.68228149 1051.80606079 C1179.91252436 1054.82525617 1178.14265796 1057.8443875 1176.37280273 1060.86352539 C1175.66446888 1062.07185842 1174.95613555 1063.28019175 1174.24780273 1064.48852539 C1167.1644694 1076.57185872 1160.08113607 1088.65519206 1152.99780273 1100.73852539 C1152.47188789 1101.63567513 1152.47188789 1101.63567513 1151.93534851 1102.5509491 C1151.22686468 1103.75953797 1150.51837876 1104.96812561 1149.80989075 1106.17671204 C1148.04134294 1109.19362562 1146.27283119 1112.21056033 1144.50439453 1115.22753906 C1141.28965822 1120.71184412 1138.07463796 1126.19598183 1134.85830688 1131.67935181 C1127.93436314 1143.48369877 1121.01405405 1155.29004764 1114.12280273 1167.11352539 C1106.86955135 1179.55809496 1099.58382395 1191.98353741 1092.29614258 1204.40795898 C1089.09046004 1209.87337022 1085.88642415 1215.3397467 1082.68228149 1220.80606079 C1080.91252436 1223.82525617 1079.14265796 1226.8443875 1077.37280273 1229.86352539 C1076.66446888 1231.07185842 1075.95613555 1232.28019175 1075.24780273 1233.48852539 C1062.49780273 1255.23852539 1049.74780273 1276.98852539 1036.99780273 1298.73852539 C1036.47188789 1299.63567513 1036.47188789 1299.63567513 1035.93534851 1300.5509491 C1035.22686468 1301.75953797 1034.51837876 1302.96812561 1033.80989075 1304.17671204 C1032.04134294 1307.19362562 1030.27283119 1310.21056033 1028.50439453 1313.22753906 C1025.28965822 1318.71184412 1022.07463796 1324.19598183 1018.85830688 1329.67935181 C1011.93436314 1341.48369877 1005.01405405 1353.29004764 998.12280273 1365.11352539 C990.86955135 1377.55809496 983.58382395 1389.98353741 976.29614258 1402.40795898 C973.09046004 1407.87337022 969.88642415 1413.3397467 966.68228149 1418.80606079 C964.91252436 1421.82525617 963.14265796 1424.8443875 961.37280273 1427.86352539 C960.66446888 1429.07185842 959.95613555 1430.28019175 959.24780273 1431.48852539 C952.1644694 1443.57185872 945.08113607 1455.65519206 937.99780273 1467.73852539 C937.47188789 1468.63567513 937.47188789 1468.63567513 936.93534851 1469.5509491 C936.22686468 1470.75953797 935.51837876 1471.96812561 934.80989075 1473.17671204 C933.04134294 1476.19362562 931.27283119 1479.21056033 929.50439453 1482.22753906 C926.28965822 1487.71184412 923.07463796 1493.19598183 919.85830688 1498.67935181 C912.93436314 1510.48369877 906.01405405 1522.29004764 899.12280273 1534.11352539 C894.03086564 1542.84987851 888.92523774 1551.57812438 883.81030273 1560.30102539 C883.45535736 1560.90635101 883.10041199 1561.51167664 882.73471069 1562.13534546 C879.833325 1567.083135 876.93126115 1572.03052668 874.0291748 1576.97790527 C873.48819153 1577.90016907 873.48819153 1577.90016907 872.9362793 1578.84106445 C872.57588562 1579.45503586 872.21549194 1580.06900726 871.84417725 1580.70158386 C871.1196554 1581.93772943 870.39670795 1583.17479915 869.675354 1584.41279602 C867.88910278 1587.47420771 866.07937329 1590.51543463 864.21069336 1593.52734375 C860.67957441 1599.27935377 857.76845921 1604.72613011 855.77124023 1611.23461914 C851.46447727 1623.65622081 851.46447727 1623.65622081 846.10943604 1627.22998047 C830.920133 1633.98534471 808.27992984 1630.17526222 792.12280273 1629.11352539 C791.81842789 1628.33618042 791.51405304 1627.55883545 791.20045471 1626.75793457 C790.13459243 1624.14245568 788.89446601 1621.8269207 787.46264648 1619.39477539 C786.92526855 1618.47784912 786.38789062 1617.56092285 785.83422852 1616.61621094 C785.24883301 1615.62532471 784.6634375 1614.63443848 784.06030273 1613.61352539 C783.44396973 1612.56398682 782.82763672 1611.51444824 782.19262695 1610.43310547 C780.86289679 1608.16904656 779.53199852 1605.90571535 778.19946289 1603.64331055 C776.11921536 1600.10984175 774.04792218 1596.57117739 771.97827148 1593.03149414 C764.99966693 1581.10000081 757.99118244 1569.18700117 750.93530273 1557.30102539 C744.82171543 1547.00206803 738.76577835 1536.67107307 732.73999023 1526.32055664 C728.77681725 1519.51452295 724.79466924 1512.71966237 720.81030273 1505.92602539 C720.45445099 1505.31921936 720.09859924 1504.71241333 719.73196411 1504.08721924 C717.92017435 1500.99775499 716.10821055 1497.90839287 714.29614258 1494.8190918 C711.09035669 1489.35350435 707.88624095 1483.88693795 704.68200684 1478.42044067 C703.62168281 1476.61161489 702.56122707 1474.80286638 701.50073242 1472.99414062 C698.30213908 1467.53860622 695.104233 1462.08267453 691.90968323 1456.62477112 C684.61654341 1444.16455431 677.30541372 1431.71590869 669.93530273 1419.30102539 C663.82169792 1409.00207856 657.76577825 1398.6710729 651.73999023 1388.32055664 C645.98045936 1378.42960276 640.18310602 1368.56076181 634.39181519 1358.68838501 C631.86756228 1354.38482287 629.34614035 1350.07961082 626.82592773 1345.77368164 C619.89318298 1333.93099316 612.94042156 1322.1010828 605.93530273 1310.30102539 C599.82169792 1300.00207856 593.76577825 1289.6710729 587.73999023 1279.32055664 C583.77681725 1272.51452295 579.79466924 1265.71966237 575.81030273 1258.92602539 C575.45445099 1258.31921936 575.09859924 1257.71241333 574.73196411 1257.08721924 C572.92017435 1253.99775499 571.10821055 1250.90839287 569.29614258 1247.8190918 C566.09035669 1242.35350435 562.88624095 1236.88693795 559.68200684 1231.42044067 C558.62168281 1229.61161489 557.56122707 1227.80286638 556.50073242 1225.99414062 C553.30213908 1220.53860622 550.104233 1215.08267453 546.90968323 1209.62477112 C539.61654341 1197.16455431 532.30541372 1184.71590869 524.93530273 1172.30102539 C518.82169792 1162.00207856 512.76577825 1151.6710729 506.73999023 1141.32055664 C502.77681725 1134.51452295 498.79466924 1127.71966237 494.81030273 1120.92602539 C494.45445099 1120.31921936 494.09859924 1119.71241333 493.73196411 1119.08721924 C491.92017435 1115.99775499 490.10821055 1112.90839287 488.29614258 1109.8190918 C485.09035669 1104.35350435 481.88624095 1098.88693795 478.68200684 1093.42044067 C477.62168281 1091.61161489 476.56122707 1089.80286638 475.50073242 1087.99414062 C472.30213908 1082.53860622 469.104233 1077.08267453 465.90968323 1071.62477112 C458.61654341 1059.16455431 451.30541372 1046.71590869 443.93530273 1034.30102539 C437.82169792 1024.00207856 431.76577825 1013.6710729 425.73999023 1003.32055664 C419.98045936 993.42960276 414.18310602 983.56076181 408.39181519 973.68838501 C405.86756228 969.38482287 403.34614035 965.07961082 400.82592773 960.77368164 C393.23966885 947.81464392 385.62372165 934.87444036 377.953125 921.96508789 C374.6850144 916.45918692 371.43492588 910.94391248 368.22045898 905.40649414 C367.59357178 904.3266626 366.96668457 903.24683105 366.32080078 902.13427734 C365.14900372 900.112233 363.97968583 898.0887488 362.81347656 896.06347656 C359.454172 890.26429371 355.91438274 884.64014873 352.12280273 879.11352539 C347.79295196 883.22445112 344.14479797 887.70543617 340.49780273 892.42602539 C339.88171143 893.22218262 339.26562012 894.01833984 338.63085938 894.83862305 C332.82563786 902.40216045 327.38972293 910.16854104 322.12280273 918.11352539 C321.6192627 918.86827148 321.11572266 919.62301758 320.59692383 920.40063477 C306.30078322 941.87782663 293.68289146 964.05031069 282.12280273 987.11352539 C281.59267578 988.16975098 281.06254883 989.22597656 280.51635742 990.31420898 C249.55481176 1052.40229914 231.09313909 1120.07541963 223.37280273 1188.90704346 C223.13275831 1191.02565817 222.88097734 1193.14257342 222.62670898 1195.25952148 C217.11561729 1242.08013531 217.44016805 1292.33348497 223.12280273 1339.11352539 C223.29643967 1340.5977029 223.46977206 1342.08191607 223.64282227 1343.56616211 C233.56482788 1427.42010644 260.7604636 1508.21349376 322.12280273 1605.11352539 C322.66646484 1605.86682129 323.21012695 1606.62011719 323.77026367 1607.39624023 C334.23553051 1621.83924235 345.07094889 1635.90059444 356.68725586 1649.43530273 C358.19948497 1651.20317058 359.70083995 1652.97987856 361.20092773 1654.75805664 C366.01856587 1660.45135449 370.83868077 1666.02031893 376.21313477 1671.20288086 C377.97562592 1672.96627331 379.59004744 1674.77871827 381.20092773 1676.67993164 C385.74941279 1681.91542432 390.64781803 1686.78448945 395.56030273 1691.67602539 C396.46329102 1692.58288086 397.3662793 1693.48973633 398.29663086 1694.42407227 C402.84385413 1698.96471013 407.44251352 1703.37132482 412.31982422 1707.55566406 C415.0976507 1709.95584156 417.75798761 1712.47761856 420.43530273 1714.98852539 C426.13765145 1720.28727005 432.04994654 1725.24250575 438.12280273 1730.11352539 C439.31553615 1731.09629189 440.50685674 1732.0807747 441.69702148 1733.06665039 C456.64597962 1745.41636673 472.2593748 1756.65575583 488.37280273 1767.42602539 C488.99407043 1767.84232208 489.61533813 1768.25861877 490.25543213 1768.68753052 C505.09948924 1778.61505495 520.4325305 1787.59320583 536.12280273 1796.11352539 C536.95714844 1796.57098145 537.79149414 1797.0284375 538.65112305 1797.49975586 C612.23985056 1837.68797544 695.93585215 1858.14451426 813.31030273 1863.30102539 C814.87776749 1863.30011902 814.87776749 1863.30011902 816.47689819 1863.29919434 C909.82679301 1863.15369693 999.90704052 1842.32415422 1084.12280273 1802.11352539 C1085.01016113 1801.69248535 1085.89751953 1801.27144531 1086.81176758 1800.83764648 C1100.03386818 1794.53015834 1112.66136186 1787.32998711 1125.23901367 1779.82885742 C1127.92427475 1778.23161357 1130.61908518 1776.65219755 1133.31811523 1775.07836914 C1156.776727 1761.32176159 1179.28071255 1745.59186052 1200.12280273 1728.11352539 C1201.95555098 1726.63363384 1203.78889738 1725.1544828 1205.62280273 1723.67602539 C1210.42120088 1719.75379695 1215.01360938 1715.6429064 1219.57202148 1711.44555664 C1221.72355425 1709.47853511 1223.90572246 1707.5679941 1226.12280273 1705.67602539 C1231.39198053 1701.10216178 1236.22526194 1696.07695238 1241.12280273 1691.11352539 C1244.06754065 1688.15388998 1247.03390848 1685.21773328 1250.01342773 1682.29321289 C1257.10219425 1675.30893116 1264.02726345 1668.40487231 1270.16967773 1660.56274414 C1272.13852232 1658.09381303 1274.22109387 1655.79890343 1276.37280273 1653.48852539 C1282.18558948 1647.09951457 1287.30384757 1640.18770681 1292.48510742 1633.28637695 C1294.02157509 1631.24783159 1295.57296179 1629.22184199 1297.13061523 1627.19946289 C1347.31418237 1561.74190962 1382.08230395 1483.42917273 1411.87280273 1333.36480713 C1412.03675587 1331.88838836 1412.2033318 1330.41225799 1412.37280273 1328.9364624 C1417.72644062 1282.21561512 1417.5942794 1232.81295455 1412.12280273 1186.11352539 C1411.99551788 1185.00690552 1411.99551788 1185.00690552 1411.86566162 1183.87792969 C1402.74945114 1105.14875276 1379.61115287 1028.05300973 1340.12280273 959.11352539 C1339.63021973 958.24421387 1339.13763672 957.37490234 1338.63012695 956.47924805 C1326.10930773 934.45150631 1311.97898928 913.34492753 1296.67163086 893.15893555 C1295.13903049 891.13495606 1293.62203797 889.10002159 1292.10717773 887.06274414 C1291.19652043 885.8499027 1290.28511275 884.63762414 1289.37280273 883.42602539 C1288.59420898 882.3909082 1287.81561523 881.35579102 1287.01342773 880.28930664 C1286.38952148 879.57129883 1285.76561523 878.85329102 1285.12280273 878.11352539 C1284.46280273 878.11352539 1283.80280273 878.11352539 1283.12280273 878.11352539 Z " fill="#C9AB85" transform="translate(536.877197265625,347.886474609375)"/>
</svg>
