<?xml version="1.0" encoding="UTF-8"?>
<svg version="1.1" xmlns="http://www.w3.org/2000/svg" width="2704" height="2699">
<path d="M0 0 C892.32 0 1784.64 0 2704 0 C2704 890.67 2704 1781.34 2704 2699 C1811.68 2699 919.36 2699 0 2699 C0 1808.33 0 917.66 0 0 Z " fill="#1D5027" transform="translate(0,0)"/>
<path d="M0 0 C5.2461973 0.21220274 9.34764523 0.43934576 13.53979492 3.78857422 C18.24547781 9.60958975 21.26058784 16.36943392 24.31323242 23.16113281 C27.02724887 28.9777869 30.33999086 34.42195361 33.61254883 39.93701172 C34.870878 42.12011168 36.12612452 44.30499158 37.37817383 46.49169922 C41.18093152 53.10106181 45.05373011 59.66735214 48.94213867 66.2265625 C53.39643509 73.74192572 57.82168145 81.27403593 62.23754883 88.81201172 C62.77185516 89.72391266 62.77185516 89.72391266 63.31695557 90.65423584 C66.24250564 95.64730431 69.16706139 100.64095493 72.09155273 105.63464355 C74.63975367 109.98570511 77.18833872 114.33654133 79.73754883 118.68701172 C80.27261047 119.60016647 80.27261047 119.60016647 80.81848145 120.5317688 C85.35936656 128.28019255 89.91358899 136.0205526 94.48754883 143.74951172 C99.42449242 152.0918314 104.33681101 160.44839186 109.23754883 168.81201172 C109.59493134 169.42187927 109.95231384 170.03174683 110.32052612 170.66009521 C113.95488318 176.86245636 117.58750406 183.06583277 121.21879578 189.26998901 C122.99539731 192.30511275 124.77255172 195.33991239 126.55004883 198.37451172 C126.9009256 198.97356323 127.25180237 199.57261475 127.61331177 200.18981934 C132.77321486 208.99690011 137.96445904 217.78482177 143.17504883 226.56201172 C149.28865364 236.86095855 155.34457331 247.19196421 161.37036133 257.54248047 C165.33353406 264.34851373 169.31560264 271.14342182 173.30004883 277.93701172 C173.65457123 278.54149139 174.00909363 279.14597107 174.37435913 279.76876831 C175.81782432 282.22987953 177.26132259 284.69097133 178.7049408 287.1519928 C181.26823501 291.52207892 183.82950736 295.89334573 186.38989258 300.26513672 C192.73824519 311.10366434 199.09035641 321.93970132 205.48754883 332.74951172 C210.42449242 341.0918314 215.33681101 349.44839186 220.23754883 357.81201172 C220.59493134 358.42187927 220.95231384 359.03174683 221.32052612 359.66009521 C224.59706272 365.25180317 227.8724654 370.84417465 231.14624023 376.4375 C239.38179417 390.50814318 247.64202185 404.56296777 255.96606445 418.58154297 C261.22136839 427.43856455 266.42765966 436.32354904 271.62567139 445.21426392 C276.56387516 453.65704927 281.56093306 462.06138904 286.61254883 470.43701172 C292.35960503 479.96936303 297.96145788 489.57800475 303.50366211 499.23071289 C307.44990857 506.09974169 311.44314507 512.93785166 315.48754883 519.74951172 C320.21561714 527.714757 324.86947953 535.72000715 329.48754883 543.74951172 C334.58397214 552.60826026 339.7301032 561.43436573 344.94165039 570.22583008 C349.39620701 577.74138036 353.82147399 585.27381778 358.23754883 592.81201172 C358.96061049 594.04598069 359.68367365 595.27994879 360.40673828 596.51391602 C363.67875108 602.0984971 366.94928409 607.68394334 370.21879578 613.26998901 C371.99539731 616.30511275 373.77255172 619.33991239 375.55004883 622.37451172 C375.9009256 622.97356323 376.25180237 623.57261475 376.61331177 624.18981934 C381.77321486 632.99690011 386.96445904 641.78482177 392.17504883 650.56201172 C398.28865364 660.86095855 404.34457331 671.19196421 410.37036133 681.54248047 C414.33353406 688.34851373 418.31560264 695.14342182 422.30004883 701.93701172 C422.65457123 702.54149139 423.00909363 703.14597107 423.37435913 703.76876831 C424.81782432 706.22987953 426.26132259 708.69097133 427.7049408 711.1519928 C430.26823501 715.52207892 432.82950736 719.89334573 435.38989258 724.26513672 C441.73824519 735.10366434 448.09035641 745.93970132 454.48754883 756.74951172 C459.42449242 765.0918314 464.33681101 773.44839186 469.23754883 781.81201172 C469.59493134 782.42187927 469.95231384 783.03174683 470.32052612 783.66009521 C473.95488318 789.86245636 477.58750406 796.06583277 481.21879578 802.26998901 C482.99539731 805.30511275 484.77255172 808.33991239 486.55004883 811.37451172 C486.9009256 811.97356323 487.25180237 812.57261475 487.61331177 813.18981934 C492.77321486 821.99690011 497.96445904 830.78482177 503.17504883 839.56201172 C509.28865364 849.86095855 515.34457331 860.19196421 521.37036133 870.54248047 C525.33353413 877.34851385 529.31562498 884.14340861 533.30004883 890.93701172 C533.82684738 891.83525665 533.82684738 891.83525665 534.36428833 892.75164795 C535.79599497 895.19279086 537.22774604 897.63390769 538.65962219 900.07495117 C541.3549357 904.67009667 544.04849513 909.26626785 546.74145508 913.86279297 C547.90577887 915.84991221 549.07012097 917.83702072 550.23446655 919.8241272 C550.97919804 921.09521753 551.72384893 922.36635509 552.46841431 923.63754272 C553.5032001 925.40417209 554.53830956 927.17061143 555.57348633 928.93701172 C556.16178223 929.94119141 556.75007813 930.94537109 557.35620117 931.97998047 C558.88657074 934.57808169 560.43210798 937.16635834 561.98754883 939.74951172 C566.49768227 933.25717777 570.4847441 926.53522133 574.36233521 919.64959717 C576.11016201 916.54771787 577.87046129 913.45294903 579.63208008 910.35888672 C579.99343552 909.7241745 580.35479095 909.08946228 580.72709656 908.43551636 C584.42650646 901.95375137 588.22994421 895.5358925 592.05004883 889.12451172 C597.94102678 879.23218258 603.74164565 869.29261034 609.48168945 859.31201172 C615.36197749 849.08811787 621.30273021 838.90017737 627.25366211 828.71728516 C630.16765725 823.72960212 633.07734911 818.73940988 635.98754883 813.74951172 C637.15811159 811.74299538 638.32868449 809.73648495 639.49926758 807.72998047 C641.79438819 803.7955794 644.08860354 799.86065262 646.38208008 795.92529297 C653.09734635 784.4046068 659.8303729 772.89450699 666.57696533 761.39215088 C673.16401235 750.16121167 679.73001822 738.91811559 686.28588867 727.66894531 C689.18506909 722.69499992 692.08643574 717.72233002 694.98754883 712.74951172 C696.15422561 710.74951762 697.32089229 708.74951762 698.48754883 706.74951172 C761.48754883 598.74951172 761.48754883 598.74951172 763.23803711 595.7487793 C764.40319764 593.75129155 765.56823696 591.7537331 766.7331543 589.75610352 C769.67186847 584.71707546 772.61276213 579.67934227 775.55786133 574.64404297 C783.11179106 561.72279299 790.59043734 548.76119922 797.98754883 535.74951172 C797.33399414 535.52908203 796.68043945 535.30865234 796.00708008 535.08154297 C791.93621734 533.28572901 788.39102758 530.86946503 784.67504883 528.43701172 C727.97571723 492.06103374 660.77831986 469.05070016 593.55004883 464.06201172 C592.72182617 463.99947205 591.89360352 463.93693237 591.0402832 463.87249756 C526.43884943 459.09647426 451.62510625 465.66628176 393.87524414 497.46313477 C390.98754883 498.74951172 390.98754883 498.74951172 388.85888672 498.88476562 C385.72927726 496.98617672 384.57109516 493.78395523 383.04614258 490.58544922 C382.68216873 489.85033112 382.31819489 489.11521301 381.94319153 488.3578186 C380.75686934 485.95313405 379.59090796 483.5391746 378.42504883 481.12451172 C377.60880646 479.45988952 376.79141805 477.79582881 375.97290039 476.13232422 C371.24272124 466.49529531 366.5801313 456.82379157 361.99389648 447.11743164 C359.46465084 441.77720531 356.86540855 436.4771332 354.21020508 431.19873047 C353.8858548 430.55356476 353.56150452 429.90839905 353.22732544 429.24368286 C351.6261052 426.06201416 350.01900627 422.88346353 348.40454102 419.70849609 C347.5426416 418.00209961 347.5426416 418.00209961 346.66333008 416.26123047 C345.88856323 414.73695435 345.88856323 414.73695435 345.09814453 413.18188477 C343.98754883 410.74951172 343.98754883 410.74951172 343.98754883 408.74951172 C376.08072073 395.20396642 408.09781388 384.33446388 442.09350586 376.63183594 C445.30007677 375.90528125 448.5017116 375.16154567 451.70239258 374.40966797 C463.09392056 371.80133832 474.60463215 370.38736086 486.20776367 369.06982422 C489.34214542 368.70865183 492.4714124 368.31498508 495.60009766 367.90771484 C513.82022909 365.68831419 532.0077882 365.56146094 550.33813477 365.56420898 C553.16274524 365.5642895 555.98719092 365.55745388 558.81176758 365.54370117 C574.13779702 365.47036078 589.39684965 365.65764941 604.69458008 366.65576172 C605.92628937 366.7361116 607.15799866 366.81646149 608.42703247 366.89924622 C646.81514666 369.62942479 685.9324078 376.97969852 722.5090332 388.95703125 C725.39658338 389.88029641 728.29924818 390.74764729 731.20239258 391.62060547 C773.09031954 404.48090726 813.72557499 424.2542438 849.98754883 448.74951172 C850.3969873 447.66343628 850.3969873 447.66343628 850.81469727 446.55541992 C851.95338107 443.83125402 853.25558011 441.39697484 854.75317383 438.85498047 C855.58268555 437.44055664 855.58268555 437.44055664 856.42895508 435.99755859 C857.02579102 434.98757813 857.62262695 433.97759766 858.23754883 432.93701172 C859.51368114 430.76388786 860.78972024 428.59070927 862.06567383 426.41748047 C862.71858398 425.30808105 863.37149414 424.19868164 864.04418945 423.05566406 C867.03862164 417.9613675 870.01267915 412.85524768 872.98754883 407.74951172 C874.154104 405.74944668 875.32077102 403.74944688 876.48754883 401.74951172 C877.06504883 400.75951172 877.64254883 399.76951172 878.23754883 398.74951172 C921.98754883 323.74951172 965.73754883 248.74951172 1009.48754883 173.74951172 C1010.35343628 172.26511597 1010.35343628 172.26511597 1011.23681641 170.75073242 C1012.40588402 168.74663981 1013.57499222 166.74257087 1014.74414062 164.73852539 C1017.62440278 159.80133377 1020.50400548 154.86376017 1023.38208008 149.92529297 C1030.09734635 138.4046068 1036.8303729 126.89450699 1043.57696533 115.39215088 C1050.16401235 104.16121167 1056.73001822 92.91811559 1063.28588867 81.66894531 C1066.18506909 76.69499992 1069.08643574 71.72233002 1071.98754883 66.74951172 C1073.15422561 64.74951762 1074.32089229 62.74951762 1075.48754883 60.74951172 C1077.82088216 56.74951172 1080.15421549 52.74951172 1082.48754883 48.74951172 C1083.06593506 47.75798096 1083.64432129 46.7664502 1084.24023438 45.74487305 C1085.39790868 43.76031164 1086.55562301 41.77577358 1087.71337891 39.79125977 C1090.76797052 34.55524777 1093.82170814 29.31874001 1096.87426758 24.08154297 C1097.51041992 22.99035156 1098.14657227 21.89916016 1098.80200195 20.77490234 C1100.02100835 18.68390596 1101.23977117 16.59276756 1102.45825195 14.50146484 C1103.00803711 13.55851562 1103.55782227 12.61556641 1104.12426758 11.64404297 C1104.60597412 10.81751221 1105.08768066 9.99098145 1105.58398438 9.1394043 C1106.27874878 7.95640747 1106.27874878 7.95640747 1106.98754883 6.74951172 C1107.66744873 5.37569336 1107.66744873 5.37569336 1108.36108398 3.97412109 C1109.98754883 1.74951172 1109.98754883 1.74951172 1112.25585938 1.18188477 C1113.11993408 1.20806885 1113.98400879 1.23425293 1114.87426758 1.26123047 C1116.28095703 1.28540039 1116.28095703 1.28540039 1117.71606445 1.31005859 C1118.6925293 1.35195313 1119.66899414 1.39384766 1120.67504883 1.43701172 C1121.66311523 1.45957031 1122.65118164 1.48212891 1123.66918945 1.50537109 C1126.11016442 1.56433184 1128.54809751 1.64656123 1130.98754883 1.74951172 C1136.3204173 29.41592658 1140.95381392 57.19522613 1145.54711914 84.99169922 C1146.03887201 87.96697768 1146.53074109 90.9422369 1147.02270508 93.91748047 C1147.14383919 94.65030369 1147.2649733 95.38312691 1147.38977814 96.13815689 C1149.9780647 111.78650855 1152.65684 127.41895253 1155.35043335 143.04946899 C1156.17880951 147.86025652 1157.00215614 152.671892 1157.82348633 157.48388672 C1157.95256882 158.23974564 1158.08165131 158.99560455 1158.21464539 159.77436829 C1158.59741493 162.01605973 1158.97999638 164.25778322 1159.36254883 166.49951172 C1159.50273438 167.3207251 1159.64291992 168.14193848 1159.78735352 168.98803711 C1162.36236937 184.07291197 1164.93041773 199.15897062 1167.49725342 214.24523926 C1169.82295781 227.91408258 1172.15277854 241.5822141 1174.48754883 255.24951172 C1176.97144334 269.79037496 1179.45022586 284.33210173 1181.92504883 298.87451172 C1182.09148895 299.85252747 1182.25792908 300.83054321 1182.42941284 301.8381958 C1183.78576938 309.80852143 1185.14185199 317.77889367 1186.4979248 325.74926758 C1187.6818392 332.7077039 1188.86586009 339.66612208 1190.05004883 346.62451172 C1190.21656952 347.60301086 1190.38309021 348.58151001 1190.55465698 349.58966064 C1192.86143201 363.14366103 1195.1725096 376.69692056 1197.48754883 390.24951172 C1199.97140478 404.79038157 1202.45022586 419.3321017 1204.92504883 433.87451172 C1205.09148895 434.85252747 1205.25792908 435.83054321 1205.42941284 436.8381958 C1206.78576938 444.80852143 1208.14185199 452.77889367 1209.4979248 460.74926758 C1210.6818392 467.7077039 1211.86586009 474.66612208 1213.05004883 481.62451172 C1213.21656952 482.60301086 1213.38309021 483.58151001 1213.55465698 484.58966064 C1216.00342217 498.97795765 1218.45739137 513.36535921 1220.91506958 527.75213623 C1223.44855674 542.58326505 1225.97414901 557.41573023 1228.49780273 572.24853516 C1230.82332596 585.91627951 1233.15296609 599.58331199 1235.48754883 613.24951172 C1237.97144334 627.79037496 1240.45022586 642.33210173 1242.92504883 656.87451172 C1243.09148895 657.85252747 1243.25792908 658.83054321 1243.42941284 659.8381958 C1244.78576938 667.80852143 1246.14185199 675.77889367 1247.4979248 683.74926758 C1248.6818392 690.7077039 1249.86586009 697.66612208 1251.05004883 704.62451172 C1251.21656952 705.60301086 1251.38309021 706.58151001 1251.55465698 707.58966064 C1253.86143201 721.14366103 1256.1725096 734.69692056 1258.48754883 748.24951172 C1260.97140478 762.79038157 1263.45022586 777.3321017 1265.92504883 791.87451172 C1266.09148895 792.85252747 1266.25792908 793.83054321 1266.42941284 794.8381958 C1267.78576938 802.80852143 1269.14185199 810.77889367 1270.4979248 818.74926758 C1271.6818392 825.7077039 1272.86586009 832.66612208 1274.05004883 839.62451172 C1274.21656952 840.60301086 1274.38309021 841.58151001 1274.55465698 842.58966064 C1277.00342217 856.97795765 1279.45739137 871.36535921 1281.91506958 885.75213623 C1284.10735844 898.58587743 1286.2942839 911.4205244 1288.4781189 924.25570679 C1288.9854443 927.23714391 1289.49293477 930.21855288 1290.00048828 933.19995117 C1290.25006538 934.66600044 1290.25006538 934.66600044 1290.50468445 936.16166687 C1290.83908161 938.12595186 1291.17348305 940.09023612 1291.50788879 942.05451965 C1292.32003033 946.82561153 1293.13166113 951.59678922 1293.94213867 956.36816406 C1296.87736872 973.64770664 1299.81337647 990.92714174 1302.86254883 1008.18701172 C1303.16745239 1009.92954224 1303.16745239 1009.92954224 1303.47851562 1011.70727539 C1303.66454346 1012.75117432 1303.85057129 1013.79507324 1304.04223633 1014.87060547 C1304.20191895 1015.77222412 1304.36160156 1016.67384277 1304.52612305 1017.6027832 C1304.90220271 1019.78654356 1304.90220271 1019.78654356 1305.98754883 1021.74951172 C1312.73647961 1013.81478749 1319.41675908 1005.83300126 1325.98754883 997.74951172 C1331.24776611 991.27830916 1336.56911756 984.8681274 1341.97143555 978.515625 C1345.36398255 974.51510318 1348.64895755 970.43978992 1351.90551758 966.32763672 C1354.31839059 963.33983899 1356.80554585 960.41898152 1359.30004883 957.49951172 C1363.12307659 953.02091896 1366.81606247 948.46457606 1370.42504883 943.81201172 C1374.69120157 938.31579771 1379.13597041 933.00734511 1383.69140625 927.74926758 C1387.92643126 922.85324048 1391.99486425 917.84605615 1395.98754883 912.74951172 C1397.39133976 915.55709359 1396.56716712 916.84958526 1395.68676758 919.83935547 C1395.37408936 920.91588379 1395.06141113 921.99241211 1394.73925781 923.1015625 C1394.38806885 924.28476074 1394.03687988 925.46795898 1393.67504883 926.68701172 C1393.12327462 928.58181151 1392.57152004 930.47661712 1392.02052307 932.37164307 C1391.42639965 934.41180921 1390.82924026 936.45106968 1390.23168945 938.49023438 C1388.09968422 945.77640637 1386.01316801 953.07566854 1383.92504883 960.37451172 C1383.71241394 961.11631683 1383.49977905 961.85812195 1383.28070068 962.62240601 C1380.52936119 972.22494372 1377.86102028 981.84408575 1375.30004883 991.49951172 C1372.96930329 1000.28074209 1370.43842242 1008.97501724 1367.75244141 1017.65356445 C1365.20716316 1025.92202025 1362.82566217 1034.23318979 1360.48754883 1042.56201172 C1360.20022888 1043.58513962 1360.20022888 1043.58513962 1359.90710449 1044.62893677 C1357.32485538 1053.83905845 1354.82092003 1063.06797729 1352.36254883 1072.31201172 C1349.96816256 1081.31018122 1347.37222107 1090.22429266 1344.61865234 1099.11865234 C1341.79491712 1108.2725977 1339.21837426 1117.49021938 1336.66333008 1126.72216797 C1334.80466767 1133.40728707 1332.89375406 1140.07779342 1330.98754883 1146.74951172 C1285.77754883 1146.74951172 1240.56754883 1146.74951172 1193.98754883 1146.74951172 C1192.66754883 1137.83951172 1191.34754883 1128.92951172 1189.98754883 1119.74951172 C1189.04169323 1113.87803031 1188.08389768 1108.0108968 1187.09008789 1102.14770508 C1186.82638876 1100.57958793 1186.56292912 1099.0114305 1186.29968262 1097.4432373 C1185.74251293 1094.12701777 1185.18376465 1090.81107005 1184.62366486 1087.49534416 C1183.72775718 1082.19135066 1182.8359199 1076.88667695 1181.94451904 1071.58192444 C1180.20505065 1061.2334587 1178.46177283 1050.88563665 1176.71795654 1040.53790283 C1174.05986023 1024.7639198 1171.40450552 1008.98947695 1168.75317383 993.21435547 C1168.6013842 992.31147214 1168.44959457 991.40858882 1168.29320526 990.47834539 C1164.58423589 968.414282 1160.91995668 946.3455469 1157.42760468 924.24596977 C1154.40781117 905.15456343 1151.22435197 886.09165586 1148.01879883 867.03076172 C1147.88658652 866.24442014 1147.75437422 865.45807856 1147.61815548 864.64790845 C1145.57796444 852.51454578 1143.53320067 840.38195471 1141.48754883 828.24951172 C1139.30798298 815.32284561 1137.12990567 802.39593132 1134.95629883 789.46826172 C1134.82376709 788.68020079 1134.69123535 787.89213985 1134.5546875 787.08019829 C1131.29787585 767.71128348 1128.08715562 748.33685246 1125.01879883 728.93701172 C1121.73502109 708.17657366 1118.28464641 687.44573799 1114.80004883 666.71826172 C1114.59368962 665.49049861 1114.59368962 665.49049861 1114.38316154 664.23793221 C1112.25460671 651.57456668 1110.12151672 638.91196601 1107.98754883 626.24951172 C1105.71425682 612.76034147 1103.44243223 599.27092655 1101.17504883 585.78076172 C1100.96795249 584.54887792 1100.96795249 584.54887792 1100.75667238 583.29210758 C1097.2701568 562.54975095 1093.84245587 541.80060702 1090.55805588 521.0251236 C1087.35866242 500.81350377 1083.98076309 480.63268916 1080.58911133 460.45263672 C1080.44763892 459.61073036 1080.30616652 458.76882401 1080.16040707 457.90140533 C1078.12943551 445.81596503 1076.0944422 433.73120296 1074.0585022 421.64659882 C1071.98563347 409.34247817 1069.91361894 397.03821485 1067.84521997 384.73334193 C1067.02109373 379.83126756 1066.19530253 374.92947777 1065.36811376 370.02791929 C1064.85561217 366.9889858 1064.3445518 363.94981116 1063.83385468 360.91057396 C1063.59986387 359.51983487 1063.36529401 358.12919304 1063.13005447 356.73866463 C1061.61125553 347.75851957 1060.2337722 338.77135169 1058.98754883 329.74951172 C1056.35933924 332.27640367 1054.67698464 334.77421637 1052.87036133 337.95654297 C1052.27046387 339.00624268 1051.67056641 340.05594238 1051.05249023 341.13745117 C1050.41230957 342.26755615 1049.77212891 343.39766113 1049.11254883 344.56201172 C1047.75025067 346.94873728 1046.38439174 349.33342016 1045.01879883 351.71826172 C1044.67579742 352.31830521 1044.33279602 352.91834869 1043.97940063 353.53657532 C1040.90618896 358.90782387 1037.77142329 364.24082737 1034.61254883 369.56201172 C1029.56866128 378.06940532 1024.55043526 386.59150081 1019.55004883 395.12451172 C1019.18768127 395.74282867 1018.82531372 396.36114563 1018.45196533 396.99819946 C1013.05261147 406.21261795 1007.66772857 415.43541558 1002.28979492 424.66235352 C995.60082379 436.13499277 988.8799595 447.58892082 982.16088867 459.04394531 C980.01530465 462.70198036 977.87045414 466.36044506 975.72583008 470.01904297 C975.37531082 470.61697662 975.02479156 471.21491028 974.66365051 471.83096313 C972.90677039 474.82802513 971.15017001 477.82525057 969.39404297 480.82275391 C966.08113314 486.47682651 962.76551003 492.12925956 959.44110107 497.77658081 C957.87429939 500.43852816 956.30892171 503.10131157 954.74365234 505.76416016 C953.99843261 507.03101762 953.25251847 508.2974669 952.50585938 509.56347656 C951.4693378 511.32106686 950.43523779 513.08006147 949.40161133 514.83935547 C948.51916748 516.33776978 948.51916748 516.33776978 947.61889648 517.86645508 C945.96939466 520.7815953 944.45894756 523.7411016 942.98754883 526.74951172 C943.39481201 527.17659424 943.8020752 527.60367676 944.22167969 528.04370117 C951.34303286 535.52870646 958.39986045 542.98461013 964.83520508 551.07373047 C966.77620173 553.48676624 968.77855716 555.83262999 970.80957031 558.16992188 C988.4026324 578.52163146 1003.66064012 601.41031975 1016.98754883 624.74951172 C1017.5538501 625.73201904 1017.5538501 625.73201904 1018.1315918 626.734375 C1041.77367827 667.88840303 1058.75725368 711.70863406 1069.98754883 757.74951172 C1070.2319873 758.74144531 1070.47642578 759.73337891 1070.72827148 760.75537109 C1077.4901195 788.61244989 1080.81233104 817.20824576 1082.98754883 845.74951172 C1083.08326172 846.97669922 1083.17897461 848.20388672 1083.27758789 849.46826172 C1084.08356713 860.85019081 1084.22961036 872.21658819 1084.23754883 883.62451172 C1084.23855591 884.63963837 1084.23956299 885.65476501 1084.24060059 886.70065308 C1084.21406237 926.76126506 1080.63406756 966.59630125 1071.98754883 1005.74951172 C1071.77404785 1006.74160645 1071.56054688 1007.73370117 1071.34057617 1008.75585938 C1067.42111329 1026.81934367 1061.92365819 1044.27058356 1055.98754883 1061.74951172 C1055.61227051 1062.86390625 1055.23699219 1063.97830078 1054.8503418 1065.12646484 C1040.10453249 1108.61433071 1018.60136635 1149.38711826 991.98754883 1186.74951172 C991.10220459 1187.994021 991.10220459 1187.994021 990.19897461 1189.26367188 C979.95500514 1203.58262174 969.07832348 1217.4188756 957.14770508 1230.37841797 C955.29767042 1232.40910701 953.48867127 1234.46540267 951.68676758 1236.53857422 C948.11905723 1240.62539712 944.45300785 1244.60948914 940.73754883 1248.56201172 C940.08713623 1249.25415771 939.43672363 1249.94630371 938.76660156 1250.65942383 C931.52328108 1258.33903528 924.24285173 1265.9593301 916.20239258 1272.81591797 C913.87435229 1274.84833409 911.61622052 1276.94309347 909.35839844 1279.05273438 C903.10496316 1284.8916925 896.69391711 1290.43035112 889.98754883 1295.74951172 C888.93274098 1296.59701821 887.87805858 1297.44468084 886.82348633 1298.29248047 C834.24495155 1340.32155 774.56975281 1371.03404758 709.98754883 1389.74951172 C708.97305664 1390.04583496 707.95856445 1390.3421582 706.91333008 1390.64746094 C694.05555582 1394.37475631 681.16433451 1397.39754058 667.98754883 1399.74951172 C666.87879395 1399.94931641 665.77003906 1400.14912109 664.62768555 1400.35498047 C636.82452878 1405.31513278 608.98132959 1408.89351647 580.71020508 1408.91748047 C579.28698192 1408.92071223 577.86375905 1408.92407755 576.4405365 1408.92756653 C573.47662592 1408.93349646 570.5127442 1408.93541302 567.54882812 1408.93481445 C564.56569304 1408.93473357 561.58271274 1408.94162702 558.59960938 1408.95532227 C540.63357894 1409.03638369 522.86989632 1408.71958859 504.98754883 1406.74951172 C503.71069717 1406.61212082 503.71069717 1406.61212082 502.40805054 1406.47195435 C496.77998753 1405.85825508 491.16387195 1405.16885373 485.55004883 1404.43701172 C484.71692169 1404.32935486 483.88379456 1404.221698 483.02542114 1404.11077881 C468.86482089 1402.2673791 454.92318479 1399.88704804 440.98754883 1396.74951172 C439.83593262 1396.49975586 438.68431641 1396.25 437.49780273 1395.99267578 C387.57315722 1385.16340845 339.95721189 1366.79600949 295.98754883 1340.74951172 C294.22082051 1339.71792123 292.45389525 1338.68666796 290.68676758 1337.65576172 C269.33831165 1325.11417235 248.88686441 1310.75867709 229.98754883 1294.74951172 C228.92149408 1293.85716454 227.85506767 1292.96526124 226.78833008 1292.07373047 C220.93620335 1287.16838419 215.16417935 1282.19076901 209.51977539 1277.04614258 C207.94704451 1275.61973693 206.36710048 1274.20119101 204.77612305 1272.79516602 C198.2650413 1267.02822767 192.07212474 1260.98839356 185.93652344 1254.82885742 C184.29515087 1253.18209768 182.64846063 1251.54079076 181.0012207 1249.89990234 C175.45257274 1244.35511929 170.06238468 1238.73573999 164.98754883 1232.74951172 C163.94273585 1231.55759686 162.89586777 1230.36748025 161.84692383 1229.17919922 C155.15300387 1221.54404647 148.67228199 1213.79299661 142.50219727 1205.72802734 C141.43635776 1204.3357702 140.36630733 1202.94673164 139.29321289 1201.56005859 C105.23635762 1157.49518664 79.84361635 1108.41290009 61.98754883 1055.74951172 C61.65916016 1054.79415527 61.33077148 1053.83879883 60.99243164 1052.85449219 C49.59291114 1019.50761901 43.66478163 984.85936495 39.67504883 949.93701172 C39.59364655 949.22510681 39.51224426 948.5132019 39.42837524 947.77972412 C37.38505481 929.6595933 36.75135585 911.72429318 36.73754883 893.49951172 C36.73587708 892.33253754 36.73420532 891.16556335 36.73248291 889.96322632 C36.73087779 871.19441561 37.53681672 852.69997656 39.62036133 834.05126953 C39.93055239 831.26202491 40.20671185 828.47434224 40.45629883 825.67919922 C43.58392003 791.87595989 51.33837354 757.94666911 61.98754883 725.74951172 C62.3454248 724.64897461 62.70330078 723.5484375 63.07202148 722.41455078 C74.89375288 686.22394354 90.6244081 651.52967648 109.98754883 618.74951172 C110.8325293 617.31115967 110.8325293 617.31115967 111.69458008 615.84375 C130.61895368 583.75668426 153.36225887 554.63478783 177.98754883 526.74951172 C174.69768755 519.95088548 171.1245653 513.41048549 167.23754883 506.93701172 C166.08200645 504.99726156 164.92709111 503.05713777 163.77270508 501.11669922 C163.16056152 500.08899414 162.54841797 499.06128906 161.91772461 498.00244141 C158.8393011 492.81436717 155.79520552 487.60626651 152.74954224 482.39892578 C146.79870393 472.22559341 140.81726587 462.07123352 134.80004883 451.93701172 C128.68635872 441.63811593 122.63052391 431.30705848 116.60473633 420.95654297 C112.64156335 414.15050928 108.65941534 407.3556487 104.67504883 400.56201172 C104.31919708 399.95520569 103.96334534 399.34839966 103.59671021 398.72320557 C101.78492044 395.63374132 99.97295664 392.5443792 98.16088867 389.45507812 C94.95391915 383.98747269 91.74860673 378.51889591 88.54318237 373.05038452 C87.4935275 371.25971112 86.44379811 369.46908142 85.39404297 367.6784668 C82.07574754 362.01824254 78.75784589 356.35778833 75.44110107 350.69665527 C73.87541587 348.02433727 72.30954144 345.35213017 70.74365234 342.67993164 C69.99762668 341.40671237 69.25169363 340.13343883 68.50585938 338.86010742 C67.47134494 337.09393776 66.43651074 335.32795582 65.40161133 333.56201172 C64.81331543 332.55783203 64.22501953 331.55365234 63.61889648 330.51904297 C62.08852692 327.92094175 60.54298968 325.3326651 58.98754883 322.74951172 C56.74480444 334.32104161 54.76112497 345.92375507 52.88037109 357.55908203 C52.42445573 360.37817906 51.96500804 363.1966842 51.50512695 366.01513672 C50.08562275 374.74416271 48.71944997 383.47403395 47.4934082 392.23266602 C44.87113508 410.46328586 41.75849269 428.62999504 38.81884766 446.8112793 C35.96071544 464.40254113 35.96071544 464.40254113 33.36621094 482.03393555 C32.8117982 486.00990776 32.18571299 489.97335388 31.55004883 493.93701172 C31.28697488 495.58934701 31.02395543 497.24169099 30.76098633 498.89404297 C30.63046875 499.71211426 30.49995117 500.53018555 30.36547852 501.37304688 C30.02028834 503.54364195 29.67865074 505.71474536 29.33911133 507.88623047 C28.09653396 515.82275227 26.82652129 523.75450212 25.53442383 531.68310547 C25.40336746 532.48806458 25.2723111 533.29302368 25.13728333 534.12237549 C24.47479157 538.19092342 23.8108816 542.25923069 23.14453125 546.32714844 C21.81962781 554.44109297 20.5601737 562.55762403 19.41894531 570.69995117 C18.84086332 574.78643796 18.20356761 578.86202216 17.55004883 582.93701172 C17.28697488 584.58934701 17.02395543 586.24169099 16.76098633 587.89404297 C16.63046875 588.71211426 16.49995117 589.53018555 16.36547852 590.37304688 C16.02028834 592.54364195 15.67865074 594.71474536 15.33911133 596.88623047 C14.09653396 604.82275227 12.82652129 612.75450212 11.53442383 620.68310547 C11.40336746 621.48806458 11.2723111 622.29302368 11.13728333 623.12237549 C10.47479157 627.19092342 9.8108816 631.25923069 9.14453125 635.32714844 C7.81962781 643.44109297 6.5601737 651.55762403 5.41894531 659.69995117 C4.84086379 663.78643467 4.2036875 667.86204149 3.55004883 671.93701172 C3.32211722 673.36799063 3.09425712 674.79898093 2.86645508 676.22998047 C2.73440674 677.05715576 2.6023584 677.88433105 2.46630859 678.73657227 C1.98764568 681.74890223 1.5136632 684.76195332 1.03988647 687.77505493 C-0.35539318 696.64077042 -1.77439898 705.50252553 -3.20385742 714.36279297 C-3.49255959 716.15326302 -3.49255959 716.15326302 -3.78709412 717.97990417 C-4.58438592 722.92381373 -5.38184776 727.86769471 -6.18115234 732.8112793 C-6.77319848 736.4741002 -7.36364724 740.13717584 -7.95385742 743.80029297 C-8.1309877 744.89336258 -8.30811798 745.98643219 -8.49061584 747.11262512 C-9.37792758 752.62745994 -10.21943603 758.14508348 -10.9987793 763.67626953 C-11.99951809 770.75762444 -13.130853 777.81364301 -14.28979492 784.87060547 C-14.61406513 786.86165764 -14.93833055 788.8527106 -15.26234531 790.84380436 C-16.04657958 795.66106304 -16.83337488 800.47789927 -17.62353516 805.29418945 C-18.28691216 809.33988218 -18.94643569 813.38618723 -19.60229492 817.43310547 C-19.70895855 818.09078289 -19.81562218 818.74846031 -19.92551804 819.42606735 C-21.48179055 829.05783527 -22.87707931 838.6984307 -24.02781677 848.38731384 C-24.5049685 852.31690471 -25.05936385 856.15096465 -25.96923828 860.00512695 C-27.14043541 865.00499024 -27.80841471 870.05107825 -28.5078125 875.13525391 C-29.28881307 880.72883513 -30.19988351 886.30010116 -31.10620117 891.87451172 C-31.29839233 893.06447754 -31.4905835 894.25444336 -31.68859863 895.48046875 C-32.49925994 900.499491 -33.31286801 905.51803441 -34.1262207 910.53662109 C-34.72474786 914.23241827 -35.32175242 917.92845932 -35.91870117 921.62451172 C-36.18910217 923.28764404 -36.18910217 923.28764404 -36.46496582 924.984375 C-37.57705991 931.87115121 -38.60469039 938.76617007 -39.57569885 945.67427063 C-40.15724459 949.76902469 -40.79505905 953.85345877 -41.44995117 957.93701172 C-41.71302512 959.58934701 -41.97604457 961.24169099 -42.23901367 962.89404297 C-42.36953125 963.71211426 -42.50004883 964.53018555 -42.63452148 965.37304688 C-42.97971166 967.54364195 -43.32134926 969.71474536 -43.66088867 971.88623047 C-44.90346604 979.82275227 -46.17347871 987.75450212 -47.46557617 995.68310547 C-47.59663254 996.48806458 -47.7276889 997.29302368 -47.86271667 998.12237549 C-48.52520843 1002.19092342 -49.1891184 1006.25923069 -49.85546875 1010.32714844 C-51.18037219 1018.44109297 -52.4398263 1026.55762403 -53.58105469 1034.69995117 C-54.15913621 1038.78643467 -54.7963125 1042.86204149 -55.44995117 1046.93701172 C-55.67788278 1048.36799063 -55.90574288 1049.79898093 -56.13354492 1051.22998047 C-56.26559326 1052.0570752 -56.3976416 1052.88416992 -56.53369141 1053.73632812 C-57.0124924 1056.74977123 -57.48636704 1059.76397244 -57.96011353 1062.7782135 C-59.35299774 1071.63156263 -60.77274888 1080.4803881 -62.20385742 1089.32763672 C-62.59514521 1091.74950982 -62.9864211 1094.17138485 -63.37768555 1096.59326172 C-63.97782952 1100.30761981 -64.5785795 1104.02187495 -65.18115234 1107.73583984 C-65.77396102 1111.39113322 -66.36411952 1115.04684681 -66.95385742 1118.70263672 C-67.21955284 1120.33449921 -67.21955284 1120.33449921 -67.49061584 1121.99932861 C-68.81643497 1130.23899407 -69.90826191 1138.46809225 -71.01245117 1146.74951172 C-116.55245117 1146.74951172 -162.09245117 1146.74951172 -209.01245117 1146.74951172 C-212.31245117 1135.19951172 -215.61245117 1123.64951172 -219.01245117 1111.74951172 C-223.87518474 1094.88437251 -223.87518474 1094.88437251 -229.07495117 1078.12451172 C-231.50286119 1070.56737199 -233.63721769 1062.95312756 -235.69458008 1055.28759766 C-238.35077413 1045.41486604 -241.23012285 1035.61101317 -244.11694336 1025.80371094 C-245.01918627 1022.72654113 -245.91183289 1019.64674155 -246.80151367 1016.56591797 C-249.45650592 1007.38352303 -252.14567525 998.22351501 -255.07495117 989.12451172 C-257.50211355 981.57102879 -259.63405058 973.95996595 -261.69238281 966.29858398 C-263.55941087 959.36451314 -265.50486835 952.45671278 -267.51245117 945.56201172 C-267.80176514 944.5677417 -268.0910791 943.57347168 -268.38916016 942.54907227 C-269.81035998 937.70698051 -271.27474744 932.8839869 -272.82495117 928.08154297 C-273.10918945 927.20071045 -273.39342773 926.31987793 -273.6862793 925.41235352 C-274.22449398 923.75906107 -274.76972685 922.10803168 -275.32299805 920.4597168 C-277.12072378 914.96605694 -277.12072378 914.96605694 -276.01245117 912.74951172 C-270.6149934 918.63184749 -265.41844902 924.62694643 -260.39526367 930.83154297 C-257.80489269 934.00368579 -255.16562251 937.12994466 -252.51245117 940.24951172 C-248.39120935 945.09891077 -244.34253303 950.00112543 -240.32495117 954.93701172 C-237.75098725 958.06750838 -235.13676031 961.16123633 -232.51245117 964.24951172 C-228.39143483 969.09910553 -224.34253763 974.00111978 -220.32495117 978.93701172 C-217.28812347 982.63045082 -214.19284162 986.27249658 -211.09619141 989.91577148 C-207.48143973 994.17594699 -203.94634946 998.49645165 -200.42651367 1002.83544922 C-198.57119016 1005.07504686 -196.69418343 1007.2822602 -194.78588867 1009.47607422 C-194.23344482 1010.11230713 -193.68100098 1010.74854004 -193.11181641 1011.40405273 C-192.01931474 1012.65833516 -190.92258269 1013.90894762 -189.82128906 1015.15551758 C-186.01245117 1019.52963784 -186.01245117 1019.52963784 -186.01245117 1021.74951172 C-185.35245117 1021.74951172 -184.69245117 1021.74951172 -184.01245117 1021.74951172 C-183.86005981 1019.96782593 -183.86005981 1019.96782593 -183.70458984 1018.15014648 C-182.62701206 1006.19351691 -180.93658952 994.43877161 -178.84405518 982.62054443 C-177.93071426 977.45912121 -177.04232495 972.2933651 -176.14916992 967.12841797 C-175.96713013 966.07976563 -175.78509033 965.03111328 -175.59753418 963.95068359 C-173.8763479 954.01942721 -172.24434619 944.07480407 -170.63745117 934.12451172 C-170.35505726 932.37962624 -170.07258531 930.63475339 -169.79003906 928.88989258 C-169.34653346 926.15096453 -168.90305476 923.41203228 -168.45988464 920.67304993 C-166.41260063 908.0288445 -164.33604136 895.38942409 -162.26245117 882.74951172 C-161.83682869 880.15429753 -161.41121023 877.55908268 -160.9855957 874.96386719 C-157.48221849 853.60363311 -153.97475717 832.24406896 -150.46724319 810.88451385 C-147.31255074 791.67335331 -144.16112273 772.46166018 -141.01245117 753.24951172 C-137.39995478 731.20725814 -133.78300536 709.16573938 -130.16351318 687.12463379 C-126.77666333 666.50011084 -123.39277183 645.87510605 -120.01245117 625.24951172 C-116.39995478 603.20725814 -112.78300536 581.16573938 -109.16351318 559.12463379 C-105.77666333 538.50011084 -102.39277183 517.87510605 -99.01245117 497.24951172 C-95.39995478 475.20725814 -91.78300536 453.16573938 -88.16351318 431.12463379 C-84.365603 407.99692246 -80.57149938 384.86859034 -76.78198242 361.73950195 C-74.73809639 349.26627559 -72.69159553 336.7934869 -70.63918304 324.321661 C-69.596485 317.98518592 -68.55442194 311.64860642 -67.51245117 305.31201172 C-67.39671249 304.60827045 -67.28097382 303.90452919 -67.16172791 303.17946243 C-64.62534618 287.75598058 -62.09762341 272.33129568 -59.62182617 256.89794922 C-59.42788773 255.68901001 -59.23394928 254.4800708 -59.03413391 253.23449707 C-58.64102577 250.78332944 -58.24794418 248.33215755 -57.85488892 245.88098145 C-53.00015035 215.61069995 -47.97650438 185.36958605 -42.91417027 155.13338757 C-38.95840126 131.50616142 -35.06351071 107.86995245 -31.22684479 84.22309399 C-29.89778077 76.03505259 -28.55653447 67.84903317 -27.21166992 59.66357422 C-26.9996846 58.37265366 -26.78769928 57.08173309 -26.56929016 55.75169373 C-25.7304545 50.64443805 -24.8911749 45.53725565 -24.05126953 40.43017578 C-23.41654129 36.57058933 -22.78286249 32.71083085 -22.14916992 28.85107422 C-21.86948616 27.15260849 -21.86948616 27.15260849 -21.58415222 25.41983032 C-21.40668961 24.3383371 -21.22922699 23.25684387 -21.04638672 22.14257812 C-20.78950577 20.57724335 -20.78950577 20.57724335 -20.5274353 18.98028564 C-19.79790708 14.40356059 -19.13175434 9.8176538 -18.4724884 5.23031616 C-17.24221276 -1.40408878 -5.40278757 0.17304664 0 0 Z " fill="#C9AB85" transform="translate(792.012451171875,314.25048828125)"/>
<path d="M0 0 C3.02493786 2.95200891 5.83277236 5.89490891 8.3828125 9.265625 C8.98681885 10.06387695 9.5908252 10.86212891 10.21313477 11.68457031 C11.15950806 12.95445801 11.15950806 12.95445801 12.125 14.25 C12.78878662 15.14041992 13.45257324 16.03083984 14.13647461 16.94824219 C45.70729093 59.68253573 68.25926678 108.44920588 80.8125 160 C81.09640594 161.16483917 81.09640594 161.16483917 81.38604736 162.35321045 C95.63838532 221.23553065 97.38498205 283.19979766 88 343 C87.89389404 343.68412964 87.78778809 344.36825928 87.6784668 345.07312012 C86.37174156 353.43997762 84.80540397 361.72729278 83 370 C82.79858398 370.95084473 82.59716797 371.90168945 82.38964844 372.88134766 C70.55639484 427.74376193 45.24842113 480.99825674 12 526 C11.53899902 526.62535645 11.07799805 527.25071289 10.60302734 527.89501953 C1.93135103 539.57899638 -7.54664944 550.55604793 -17.4375 561.21484375 C-19.7341525 563.71105295 -21.96670399 566.2490421 -24.1875 568.8125 C-27.24232535 572.27173197 -30.48951344 575.28665213 -34.01171875 578.26171875 C-36.05298372 580.04632172 -37.92662875 581.9276747 -39.8125 583.875 C-44.05934042 588.17112676 -48.65756878 591.92179158 -53.375 595.68701172 C-55.1316226 597.10635011 -56.86341956 598.55264658 -58.59375 600.00390625 C-68.61875483 608.36721648 -79.08924888 615.83816174 -90 623 C-90.77214844 623.50917969 -91.54429687 624.01835938 -92.33984375 624.54296875 C-143.14833337 657.8726525 -200.69965968 679.99565715 -260.66894531 689.47070312 C-262.76443107 689.80367096 -264.85795665 690.14948168 -266.94824219 690.51367188 C-285.94854033 693.7125429 -305.01574579 694.30759392 -324.24487305 694.20581055 C-327.82673235 694.18742695 -331.40833246 694.18530283 -334.99023438 694.18554688 C-352.63243472 694.15984645 -370.00192657 693.67338035 -387.5 691.25 C-388.7797168 691.0744458 -390.05943359 690.8988916 -391.37792969 690.71801758 C-432.34106039 684.93305134 -471.52306122 673.60113535 -509 656 C-509.86351074 655.59845703 -510.72702148 655.19691406 -511.61669922 654.78320312 C-545.73610701 638.7911859 -577.62030651 616.74816112 -605.41796875 591.3359375 C-606.79379545 590.09124103 -608.17504259 588.85169069 -609.59057617 587.65234375 C-616.07024794 582.13348353 -622.05789648 576.12819769 -628.07202148 570.11328125 C-629.92477468 568.26271033 -631.78538706 566.42029924 -633.64648438 564.578125 C-640.56709304 557.68980489 -646.9428606 550.6674894 -653 543 C-653.93432662 541.89778775 -654.87570494 540.80145964 -655.828125 539.71484375 C-705.03606671 483.28444608 -734.87377268 409.64939472 -745 336 C-745.15098145 334.93072266 -745.30196289 333.86144531 -745.45751953 332.75976562 C-748.03467999 313.57701784 -748.28928423 294.45542384 -748.3125 275.125 C-748.31608521 273.92722931 -748.31967041 272.72945862 -748.32336426 271.49539185 C-748.4533966 190.68651389 -728.62805134 110.56435349 -685 42 C-684.50580566 41.22205078 -684.01161133 40.44410156 -683.50244141 39.64257812 C-675.86059845 27.71556607 -667.49925637 16.32559523 -659 5 C-658.22861694 3.88890869 -658.22861694 3.88890869 -657.44165039 2.75537109 C-656.96590576 2.17609863 -656.49016113 1.59682617 -656 1 C-655.34 1 -654.68 1 -654 1 C-653.67427002 1.58152832 -653.34854004 2.16305664 -653.01293945 2.76220703 C-645.98572637 15.29180273 -638.84100338 27.73931706 -631.50390625 40.08984375 C-627.90019467 46.15734897 -624.3340369 52.24661965 -620.77005005 58.3374939 C-614.81498945 68.51429678 -608.83233809 78.67386382 -602.8125 88.8125 C-596.69880989 99.11139579 -590.64297508 109.44245324 -584.6171875 119.79296875 C-578.85765662 129.68392263 -573.06030328 139.55276358 -567.26901245 149.42514038 C-564.74475954 153.72870252 -562.22333761 158.03391457 -559.703125 162.33984375 C-552.77038025 174.18253223 -545.81761883 186.01244259 -538.8125 197.8125 C-532.69889518 208.11144683 -526.64297552 218.44245249 -520.6171875 228.79296875 C-516.65401452 235.59900244 -512.67186651 242.39386302 -508.6875 249.1875 C-508.33164825 249.79430603 -507.97579651 250.40111206 -507.60916138 251.02630615 C-505.79737162 254.1157704 -503.98540782 257.20513252 -502.17333984 260.29443359 C-498.96755395 265.76002104 -495.76343822 271.22658745 -492.5592041 276.69308472 C-491.49888007 278.5019105 -490.43842433 280.31065901 -489.37792969 282.11938477 C-486.17933635 287.57491918 -482.98143027 293.03085086 -479.78688049 298.48875427 C-472.49374067 310.94897108 -465.18261098 323.3976167 -457.8125 335.8125 C-451.69889518 346.11144683 -445.64297552 356.44245249 -439.6171875 366.79296875 C-435.65401452 373.59900244 -431.67186651 380.39386302 -427.6875 387.1875 C-427.33164825 387.79430603 -426.97579651 388.40111206 -426.60916138 389.02630615 C-424.79737162 392.1157704 -422.98540782 395.20513252 -421.17333984 398.29443359 C-417.96755395 403.76002104 -414.76343822 409.22658745 -411.5592041 414.69308472 C-410.49888007 416.5019105 -409.43842433 418.31065901 -408.37792969 420.11938477 C-405.17933635 425.57491918 -401.98143027 431.03085086 -398.78688049 436.48875427 C-390.83698473 450.07102846 -382.85577257 463.63342065 -374.8215332 477.16601562 C-370.99522197 483.61653112 -367.18340247 490.07485008 -363.41821289 496.5612793 C-362.23543882 498.58205966 -361.03568877 500.59301197 -359.81811523 502.59301758 C-357.110493 507.08014066 -354.78337032 511.2747828 -353.171875 516.2734375 C-350.65787755 523.36740337 -350.65787755 523.36740337 -345 528 C-333.45076235 530.57559377 -320.6734029 529.0010174 -309 528 C-308.47390137 527.04988037 -307.94780273 526.09976074 -307.40576172 525.12084961 C-302.2179612 515.77470067 -296.80699105 506.57119448 -291.3399353 497.38598633 C-286.26520349 488.85686579 -281.25760917 480.29272313 -276.3125 471.6875 C-271.21182329 462.81294674 -266.05454257 453.97555786 -260.83422852 445.17089844 C-256.94527408 438.60899085 -253.08910904 432.0286858 -249.25 425.4375 C-244.05149603 416.51506421 -238.8452677 407.59721798 -233.625 398.6875 C-233.26847351 398.07892151 -232.91194702 397.47034302 -232.5446167 396.84332275 C-227.35155273 387.98163777 -222.12240372 379.14213646 -216.875 370.3125 C-210.97972466 360.39031815 -205.1807954 350.41640888 -199.42871094 340.41064453 C-195.02270056 332.75291033 -190.55672167 325.13330172 -186.05175781 317.53344727 C-181.53348554 309.91006155 -177.04290401 302.27067635 -172.5625 294.625 C-172.20013245 294.00668304 -171.83776489 293.38836609 -171.4644165 292.75131226 C-166.06506264 283.53689376 -160.68017975 274.31409614 -155.30224609 265.0871582 C-148.61327496 253.61451895 -141.89241067 242.1605909 -135.17333984 230.70556641 C-131.96765731 225.24015517 -128.76362141 219.77377869 -125.55947876 214.3074646 C-123.78972162 211.28826922 -122.01985522 208.26913789 -120.25 205.25 C-119.54166614 204.04166697 -118.83333281 202.83333364 -118.125 201.625 C-111.04166667 189.54166667 -103.95833333 177.45833333 -96.875 165.375 C-96.34908516 164.47785027 -96.34908516 164.47785027 -95.81254578 163.56257629 C-95.10406194 162.35398742 -94.39557602 161.14539978 -93.68708801 159.93681335 C-91.91854021 156.91989977 -90.15002846 153.90296506 -88.3815918 150.88598633 C-85.16685549 145.40168127 -81.95183523 139.91754356 -78.73550415 134.43417358 C-71.8115604 122.62982662 -64.89125131 110.82347775 -58 99 C-50.74674861 86.55543043 -43.46102122 74.12998798 -36.17333984 61.70556641 C-32.96610025 56.23750052 -29.76050862 50.76846863 -26.55480957 45.29949951 C-24.80874347 42.32072003 -23.06256964 39.3420037 -21.31640625 36.36328125 C-20.61083932 35.15966828 -19.90527292 33.95605499 -19.19970703 32.75244141 C-12.79980469 21.83496094 -6.39990234 10.91748047 0 0 Z " fill="#1D5027" transform="translate(1680,932)"/>
<path d="M0 0 C14.69688799 13.77980218 24.7285601 29.8075486 30.5625 49.125 C30.86063599 50.10194824 30.86063599 50.10194824 31.16479492 51.09863281 C37.48294562 73.22976333 37.03335095 98.54455432 30.8125 120.625 C30.49901611 121.77548828 30.49901611 121.77548828 30.17919922 122.94921875 C25.65235333 139.14413708 18.16271918 153.14998432 6.8125 165.625 C6.18988281 166.32882813 5.56726563 167.03265625 4.92578125 167.7578125 C-3.74623981 177.0297847 -14.74564745 183.37160856 -26.1875 188.625 C-27.321875 189.181875 -28.45625 189.73875 -29.625 190.3125 C-54.81527721 199.59312845 -86.03218773 198.60982678 -110.34667969 187.49609375 C-121.21776579 182.351792 -129.64857156 176.06166582 -138.1875 167.625 C-138.84234375 167.04234375 -139.4971875 166.4596875 -140.171875 165.859375 C-152.07913467 155.04452447 -159.43841616 138.14068562 -164 123 C-164.1949707 122.35635498 -164.38994141 121.71270996 -164.59082031 121.04956055 C-167.77736038 109.74914529 -168.52477431 98.44251992 -168.4375 86.75 C-168.43406586 86.09069489 -168.43063171 85.43138977 -168.42709351 84.75210571 C-168.25532922 56.61643337 -161.20270251 33.12495643 -144.1875 10.625 C-143.64867187 9.90054687 -143.10984375 9.17609375 -142.5546875 8.4296875 C-128.968699 -8.43332336 -106.41537273 -20.21331382 -85.0703125 -22.984375 C-53.40269773 -26.04942037 -24.47819187 -21.2967755 0 0 Z " fill="#1D5027" transform="translate(731.1875,1920.375)"/>
<path d="M0 0 C12.87 0 25.74 0 39 0 C46.22859971 15.57591127 53.35190108 31.18473144 60.29603577 46.88928223 C64.41446902 56.20236773 68.55215936 65.50691334 72.6875 74.8125 C73.33368286 76.26687973 73.33368286 76.26687973 73.99291992 77.75064087 C80.15102335 91.60996056 86.33049415 105.45952182 92.53036499 119.30020142 C99.22442813 134.24571553 105.87844117 149.20888356 112.51904297 164.17822266 C116.64762764 173.48127868 120.79260689 182.77638722 124.9765625 192.0546875 C125.76827474 193.81313053 126.55994234 195.57159365 127.3515625 197.33007812 C128.82816906 200.60978816 130.31079295 203.88668401 131.796875 207.16210938 C132.46117327 208.63661255 133.12524872 210.11121614 133.7890625 211.5859375 C134.08704742 212.23803192 134.38503235 212.89012634 134.69204712 213.5619812 C136.52741168 217.65706858 137.86137355 221.67433238 139 226 C139.66 226 140.32 226 141 226 C141.17228622 225.45037598 141.34457245 224.90075195 141.52207947 224.33447266 C143.29333303 218.83571673 145.39426989 213.61568891 147.81640625 208.375 C148.18467026 207.56760376 148.55293427 206.76020752 148.93235779 205.92834473 C149.72496543 204.19105799 150.51945884 202.45463056 151.31567383 200.71899414 C153.47252369 196.01548193 155.61349606 191.30476129 157.75390625 186.59375 C158.19376862 185.62602661 158.63363098 184.65830322 159.08682251 183.66125488 C163.47900353 173.979013 167.74792522 164.2443823 172 154.5 C178.06174416 140.61793463 184.23228798 126.79027624 190.5 113 C196.78663052 99.1673288 202.97764841 85.29763007 209.0625 71.375 C215.23347639 57.25556639 221.48061284 43.17306429 227.8125 29.125 C228.19149445 28.28410828 228.57048889 27.44321655 228.96096802 26.57684326 C232.95864969 17.71087321 236.97551258 8.85387232 241 0 C253.87 0 266.74 0 280 0 C280 90.75 280 181.5 280 275 C268.12 275 256.24 275 244 275 C243.67 208.01 243.34 141.02 243 72 C238.71 81.9 234.42 91.8 230 102 C227.46391126 107.67642065 224.92742891 113.35013614 222.35717773 119.01074219 C215.79869648 133.46116548 209.35692799 147.95990646 203 162.5 C196.72013955 176.8620318 190.34303714 191.1763948 183.88809204 205.46054077 C177.12838417 220.42478666 170.5002593 235.44461496 163.92382812 250.49023438 C163.5638826 251.31323532 163.20393707 252.13623627 162.83308411 252.98417664 C162.17169094 254.49701224 161.51103398 256.01017008 160.85136414 257.52375793 C158.29301991 263.37829194 155.64484553 269.18133984 153 275 C144.42 275 135.84 275 127 275 C117.91991662 254.91863357 108.88730129 234.82003968 100.0625 214.625 C93.97788975 200.70226216 87.78641175 186.83276815 81.5 173 C74.52235935 157.64537872 67.66338928 142.24361324 60.92773438 126.78125 C53.07812333 108.79543544 45.01547511 90.91694436 37 73 C36.67 139.66 36.34 206.32 36 275 C24.12 275 12.24 275 0 275 C0 184.25 0 93.5 0 0 Z " fill="#FCFCFC" transform="translate(850,1870)"/>
<path d="M0 0 C14.19 0 28.38 0 43 0 C44.54494141 4.37958984 44.54494141 4.37958984 46.12109375 8.84765625 C55.15004009 34.41980798 64.29119925 59.94861131 73.53741455 85.44291687 C78.03687408 97.85287632 82.51277328 110.27133595 86.98966599 122.68944931 C88.15641314 125.92560321 89.3234637 129.16164769 90.49047852 132.39770508 C94.4957959 143.50457258 98.50023284 154.61175653 102.50189877 165.71994019 C104.35417455 170.86164385 106.20688414 176.00319106 108.05991459 181.1446228 C109.20234721 184.31447847 110.34455632 187.48441428 111.48623657 190.65454102 C116.33055413 204.10405572 121.19117951 217.54710098 126.10335159 230.97196579 C126.82011489 232.93122945 127.53630239 234.89070257 128.25228882 236.85025024 C128.71880383 238.12689472 129.18532598 239.40353659 129.65185547 240.68017578 C129.87950781 241.30317377 130.10716015 241.92617176 130.34171104 242.56804848 C131.89202555 246.80884833 133.44957969 251.04695236 135.00830078 255.28466797 C135.80523004 257.46313677 136.60195426 259.64168059 137.3984375 261.8203125 C137.94978363 263.31090179 137.94978363 263.31090179 138.51226807 264.831604 C138.84257019 265.73811707 139.17287231 266.64463013 139.51318359 267.57861328 C139.80212494 268.36503204 140.09106628 269.15145081 140.38876343 269.96170044 C141 272 141 272 141 275 C128.46 275 115.92 275 103 275 C100.40935468 267.79236303 97.81939226 260.58454293 95.23589325 253.3743515 C94.03254092 250.0165681 92.82795905 246.6592377 91.62036133 243.30297852 C90.23391328 239.44946369 88.8531439 235.59393539 87.47265625 231.73828125 C87.04034195 230.53915604 86.60802765 229.34003082 86.16261292 228.10456848 C85.76227341 226.98378403 85.3619339 225.86299957 84.94946289 224.70825195 C84.41984703 223.23265556 84.41984703 223.23265556 83.87953186 221.72724915 C83 219 83 219 82 214 C22.105 214.495 22.105 214.495 -39 215 C-45.86741817 233.99732239 -45.86741817 233.99732239 -52.73217773 252.99560547 C-53.59088632 255.36950114 -54.44968539 257.74336409 -55.30859375 260.1171875 C-55.5318483 260.73578644 -55.75510284 261.35438538 -55.98512268 261.99172974 C-56.64186014 263.81114009 -57.30026691 265.62994763 -57.95874023 267.44873047 C-58.32958237 268.47465302 -58.7004245 269.50057556 -59.08250427 270.55758667 C-60 273 -60 273 -61 275 C-73.54 275 -86.08 275 -99 275 C-97.04986818 268.49956061 -95.05130465 262.13930943 -92.7265625 255.78125 C-92.25333054 254.47627815 -92.25333054 254.47627815 -91.77053833 253.14494324 C-90.72456686 250.26236549 -89.67474819 247.38120429 -88.625 244.5 C-87.87112952 242.42434024 -87.11755646 240.34857244 -86.36425781 238.27270508 C-84.75152396 233.82931619 -83.13743189 229.38642393 -81.52246094 224.94384766 C-77.69274977 214.40554797 -73.8793515 203.86134106 -70.06390381 193.31787109 C-67.84026638 187.17386801 -65.61540418 181.03030848 -63.390625 174.88671875 C-58.96509681 162.66539783 -54.53994546 150.4439405 -50.11499023 138.22241211 C-48.37237832 133.4094007 -46.62969886 128.59641376 -44.88696289 123.78344727 C-40.90205798 112.77809269 -36.91750961 101.77260956 -32.93449402 90.76657104 C-21.98180291 60.50172521 -11.00751834 30.24495692 0 0 Z " fill="#FBFCFC" transform="translate(1272,1870)"/>
<path d="M0 0 C36 0 36 0 44.32421875 7.1953125 C46.09144592 9.68983459 46.09144592 9.68983459 47.13696289 11.93383789 C47.76032028 13.2001152 47.76032028 13.2001152 48.39627075 14.49197388 C48.8223764 15.3608725 49.24848206 16.22977112 49.6875 17.125 C50.69615495 18.91221813 51.719233 20.69136296 52.75561523 22.46264648 C54.88192658 26.12503416 56.93976194 29.81448008 58.95410156 33.53955078 C63.17336255 41.2397954 68.08106065 48.4619677 72.99380493 55.73065186 C75.62556052 59.6427279 78.20282328 63.59036025 80.78515625 67.53515625 C81.82022463 69.11230644 82.85554359 70.68929221 83.89111328 72.26611328 C84.40377747 73.04690247 84.91644165 73.82769165 85.44464111 74.63214111 C89.6046789 80.96533054 93.77113704 87.2943006 97.93649292 93.62399292 C100.54131573 97.58245113 103.14563244 101.54124227 105.75 105.5 C106.79166424 107.08333493 107.8333309 108.66666826 108.875 110.25 C115.125 119.75 115.125 119.75 116.68737793 122.12481689 C117.72944851 123.70876255 118.77152208 125.29270623 119.81359863 126.87664795 C122.41160993 130.82559672 125.00956989 134.77457924 127.60742188 138.72363281 C132.36762903 145.95961859 137.128256 153.19532671 141.89074707 160.42980957 C144.07132747 163.74229925 146.25161478 167.05498179 148.43188477 170.36767578 C149.44264592 171.90325221 150.45354067 173.43874071 151.46459961 174.97412109 C160.67545761 188.96173984 169.83460083 202.98233068 179 217 C179.33 145.39 179.66 73.78 180 0 C191.88 0 203.76 0 216 0 C216 91.41 216 182.82 216 277 C180 277 180 277 172.26171875 270.57421875 C170.55393243 267.59998415 169.10889925 264.78000377 167.6875 261.6875 C166.8179408 260.08446646 165.9334068 258.48947818 165.03515625 256.90234375 C163.18621494 253.60907505 161.40539656 250.29104554 159.66552734 246.93896484 C155.923936 239.85291886 151.43777085 233.27919934 146.95004272 226.65142822 C144.5186024 223.04390049 142.14116401 219.40111398 139.7578125 215.76171875 C138.80006565 214.30370225 137.8420576 212.84585728 136.88378906 211.38818359 C136.40864868 210.66516052 135.9335083 209.94213745 135.44396973 209.19720459 C133.50813191 206.25155299 131.57214393 203.30600009 129.63613892 200.36045837 C127.21568995 196.67785114 124.79532294 192.99519006 122.375 189.3125 C121.89673767 188.58479401 121.41847534 187.85708801 120.92572021 187.10733032 C113.72609705 176.15227405 106.53278209 165.19309397 99.34222412 154.23208618 C92.60186843 143.95801845 85.85147843 133.69058314 79.09655762 123.42608643 C62.83676607 98.71814031 62.83676607 98.71814031 54.7277832 86.37182617 C53.84280761 85.0246381 52.95756449 83.67762572 52.07202148 82.33081055 C50.84672565 80.46713724 49.62245968 78.60279124 48.3984375 76.73828125 C47.71442871 75.69712158 47.03041992 74.65596191 46.32568359 73.58325195 C43.18434018 68.74328793 40.09778974 63.86795531 37 59 C36.67 130.94 36.34 202.88 36 277 C24.12 277 12.24 277 0 277 C0 185.59 0 94.18 0 0 Z " fill="#FCFCFC" transform="translate(1457,1868)"/>
<path d="M0 0 C0.68900391 0.25265625 1.37800781 0.5053125 2.08789062 0.765625 C17.45810368 6.47176415 30.65023261 14.16786916 43 25 C43.82886719 25.68449219 44.65773438 26.36898438 45.51171875 27.07421875 C68.69665786 46.76503831 82.72999701 76.5209208 88 106 C88.20625 107.12277344 88.4125 108.24554687 88.625 109.40234375 C94.50366959 146.34814918 86.66472407 187.80167408 64.58984375 218.39453125 C47.89171699 240.87865482 26.42675735 257.54326349 0 267 C-0.89211182 267.32532715 -1.78422363 267.6506543 -2.70336914 267.98583984 C-9.87984829 270.50602183 -16.91929609 272.13646767 -24.4375 273.25 C-26.13084473 273.50148804 -26.13084473 273.50148804 -27.85839844 273.75805664 C-65.64595607 278.99390659 -102.06969405 270.20092984 -132.921875 247.88671875 C-146.55375601 237.17883588 -157.98497931 224.78537897 -167 210 C-167.36673828 209.40815918 -167.73347656 208.81631836 -168.11132812 208.20654297 C-187.75638385 175.94415173 -192.32104981 134.1025308 -183.68017578 97.66894531 C-174.11926905 60.15285328 -152.00321813 29.75832514 -118.78759766 9.75463867 C-83.54540814 -10.76922346 -38.14119432 -14.3267623 0 0 Z M-115 47 C-115.59554687 47.45375 -116.19109375 47.9075 -116.8046875 48.375 C-135.29386052 62.68919846 -145.98096494 88.77594526 -149.33886719 111.27001953 C-150.2077963 118.7641466 -150.18373045 126.27715979 -150.1875 133.8125 C-150.19974609 135.08931641 -150.21199219 136.36613281 -150.22460938 137.68164062 C-150.2702321 167.56452599 -139.5959096 195.20645245 -118.8125 216.6875 C-99.05790139 236.28322993 -73.95134115 243.23038482 -46.77807617 243.25317383 C-34.26179546 243.15165316 -22.73445227 241.53732155 -11 237 C-10.25105469 236.74863281 -9.50210938 236.49726563 -8.73046875 236.23828125 C13.77173534 228.2043764 31.53148496 209.12813818 41.99511719 188.15771484 C45.02184264 181.65863818 47.11860748 174.90472507 49 168 C49.21027832 167.25363281 49.42055664 166.50726562 49.63720703 165.73828125 C55.17682722 145.3517772 55.63181582 121.43240994 50 101 C49.80132324 100.27458008 49.60264648 99.54916016 49.39794922 98.80175781 C41.75572542 71.90799944 25.67667909 48.82999424 1 35 C-3.53919815 32.68176247 -8.22815796 30.78425398 -13 29 C-14.23169922 28.52626953 -14.23169922 28.52626953 -15.48828125 28.04296875 C-25.94796473 24.27153758 -36.39983197 23.68097863 -47.4375 23.75 C-48.67048828 23.74226563 -49.90347656 23.73453125 -51.17382812 23.7265625 C-75.17755347 23.77728353 -96.92867521 31.05875532 -115 47 Z " fill="#FCFCFC" transform="translate(713,1873)"/>
<path d="M0 0 C11.88 0 23.76 0 36 0 C36 40.26 36 80.52 36 122 C82.2 122 128.4 122 176 122 C176 81.74 176 41.48 176 0 C187.88 0 199.76 0 212 0 C212 91.41 212 182.82 212 277 C200.12 277 188.24 277 176 277 C176 235.75 176 194.5 176 152 C129.8 152 83.6 152 36 152 C36 193.25 36 234.5 36 277 C24.12 277 12.24 277 0 277 C0 185.59 0 94.18 0 0 Z " fill="#FCFCFC" transform="translate(1967,1868)"/>
<path d="M0 0 C1.57957792 1.33420659 3.14299846 2.68784055 4.6875 4.0625 C5.75097656 5.00222656 5.75097656 5.00222656 6.8359375 5.9609375 C17.97615511 16.41822989 25.13674014 31.06900914 27.6875 46.0625 C27.6875 48.0425 27.6875 50.0225 27.6875 52.0625 C14.4875 52.0625 1.2875 52.0625 -12.3125 52.0625 C-13.3025 47.6075 -13.3025 47.6075 -14.3125 43.0625 C-20.10097092 29.64377196 -30.04701554 21.58978519 -43.3125 16.0625 C-56.82730378 10.87444008 -76.88037635 10.76139482 -90.3125 16.0625 C-102.17369215 21.36628511 -110.10627573 28.02310637 -115.3125 40.0625 C-119.07113649 50.30839852 -118.7518636 63.1203511 -114.3125 73.0625 C-107.39939547 86.68336932 -93.71058898 93.68833825 -79.75390625 98.40625 C-77.46434755 99.13578974 -75.17123069 99.85424026 -72.875 100.5625 C-71.64998779 100.94921875 -70.42497559 101.3359375 -69.1628418 101.734375 C-62.01708427 103.97281631 -54.8419133 106.06774122 -47.625 108.0625 C-27.40052084 113.6788684 -6.22739275 119.87104741 9.6875 134.0625 C10.39777344 134.69027344 11.10804688 135.31804687 11.83984375 135.96484375 C23.72841858 147.12321821 30.15910498 162.38299058 30.9609375 178.609375 C31.53908668 199.43479021 26.54969847 218.92470341 12.1875 234.5625 C10.38741053 236.43498404 8.54822424 238.2485 6.6875 240.0625 C5.70330078 241.06023438 5.70330078 241.06023438 4.69921875 242.078125 C-14.15313397 260.00198926 -42.48874159 264.90276755 -67.46875 264.34765625 C-75.28613523 264.04513762 -82.72415544 262.92521033 -90.3125 261.0625 C-91.0142334 260.89621094 -91.7159668 260.72992187 -92.43896484 260.55859375 C-107.05951255 256.99983974 -119.82286128 250.91392434 -131.3125 241.0625 C-132.27929688 240.29550781 -133.24609375 239.52851563 -134.2421875 238.73828125 C-137.36486791 236.13106605 -139.91853772 233.16996889 -142.375 229.9375 C-143.02287476 229.08816895 -143.02287476 229.08816895 -143.68383789 228.22167969 C-151.19845283 218.07730431 -156.52843919 204.98545254 -156.375 192.25 C-156.36597656 191.27417969 -156.35695313 190.29835938 -156.34765625 189.29296875 C-156.33605469 188.55691406 -156.32445312 187.82085938 -156.3125 187.0625 C-150.91903012 187.03785151 -145.52559275 187.01966469 -140.13208008 187.00756836 C-138.29581125 187.00252769 -136.45954646 186.99569523 -134.62329102 186.98706055 C-131.98973599 186.97498328 -129.35623384 186.96926919 -126.72265625 186.96484375 C-125.89661392 186.95968246 -125.07057159 186.95452118 -124.21949768 186.94920349 C-122.25013632 186.94900795 -120.28088386 187.00045848 -118.3125 187.0625 C-116.76489497 188.61010503 -116.85663827 190.36350342 -116.5 192.5 C-113.88846381 205.78477106 -107.28814225 216.0510823 -96.3125 224.0625 C-81.92881266 233.44760096 -60.68845149 234.57325469 -44.11328125 231.37109375 C-29.85875413 227.62320378 -18.92091159 220.71914677 -11.3125 208.0625 C-5.62928445 197.72635945 -5.54018193 183.75905467 -8.375 172.4375 C-12.90086468 160.3334433 -23.69876503 152.8342962 -34.9453125 147.51953125 C-46.2987633 142.60672713 -57.91762939 139.30305268 -69.875 136.1875 C-130.89222955 120.26457849 -130.89222955 120.26457849 -146.32421875 94.734375 C-152.84067961 82.61312561 -154.8804121 70.98304464 -154.8125 57.25 C-154.81106995 56.59019135 -154.80963989 55.93038269 -154.8081665 55.25057983 C-154.75276268 44.92433942 -153.94047068 36.41690882 -149.3125 27.0625 C-148.8896875 26.1034375 -148.466875 25.144375 -148.03125 24.15625 C-139.40235547 6.29644504 -121.76053478 -6.86636252 -103.515625 -13.546875 C-70.51354432 -24.83787904 -28.14443554 -21.8805825 0 0 Z " fill="#FCFCFC" transform="translate(1883.3125,1883.9375)"/>
<path d="M0 0 C2.23379807 3.35069711 3.45294504 6.74463297 4.7734375 10.51171875 C5.04895447 11.28686325 5.32447144 12.06200775 5.6083374 12.86064148 C6.53429658 15.46828479 7.4545199 18.07791809 8.375 20.6875 C9.03452997 22.54720221 9.69453534 24.40673588 10.35498047 26.26611328 C11.79490083 30.32088416 13.23293827 34.37631638 14.66992188 38.43212891 C18.37510966 48.88329885 22.10657118 59.32510485 25.83660889 69.76742554 C27.12176344 73.36593745 28.40591666 76.96480552 29.68994141 80.5637207 C33.49252403 91.21722332 37.30421644 101.86709238 41.1640625 112.5 C41.47654938 113.36146637 41.78903625 114.22293274 42.11099243 115.11050415 C43.53439189 119.03289062 44.9614323 122.9538842 46.39501953 126.87255859 C46.88322454 128.21448676 47.3713488 129.5564443 47.859375 130.8984375 C48.27670898 132.03974121 48.69404297 133.18104492 49.12402344 134.35693359 C50 137 50 137 50 139 C17.33 139 -15.34 139 -49 139 C-46.74996511 128.874843 -46.74996511 128.874843 -45.05493164 124.12792969 C-44.67527252 123.05649719 -44.2956134 121.9850647 -43.90444946 120.88116455 C-43.4938327 119.739599 -43.08321594 118.59803345 -42.66015625 117.421875 C-42.22585297 116.20119324 -41.79154968 114.98051147 -41.34408569 113.72283936 C-40.16724787 110.41564994 -38.98383089 107.11085089 -37.79908371 103.80648804 C-36.56089788 100.34956344 -35.3288152 96.89046449 -34.09594727 93.43164062 C-31.31678844 85.63868146 -28.52818628 77.84911966 -25.73786926 70.06015015 C-24.5520613 66.74934351 -23.36736646 63.43813872 -22.18261719 60.12695312 C-17.73959689 47.71073631 -13.29354637 35.29560309 -8.82991028 22.88677979 C-7.34334133 18.75249726 -5.86135652 14.61692544 -4.40283203 10.47265625 C-4.16774429 9.80649292 -3.93265656 9.14032959 -3.69044495 8.45397949 C-3.08954177 6.74813928 -2.49199123 5.04111902 -1.89477539 3.33398438 C-1 1 -1 1 0 0 Z " fill="#1E5128" transform="translate(1293,1915)"/>
<path d="M0 0 C3.67174598 2.64178445 5.94038848 4.91661172 8.70703125 8.60546875 C9.03703125 4.64546875 9.36703125 0.68546875 9.70703125 -3.39453125 C13.99703125 -3.39453125 18.28703125 -3.39453125 22.70703125 -3.39453125 C22.70703125 21.35546875 22.70703125 46.10546875 22.70703125 71.60546875 C18.41703125 71.60546875 14.12703125 71.60546875 9.70703125 71.60546875 C9.37703125 67.97546875 9.04703125 64.34546875 8.70703125 60.60546875 C7.42828125 61.84296875 6.14953125 63.08046875 4.83203125 64.35546875 C-3.39321515 71.54777723 -11.48204142 73.62632235 -22.3046875 73.12890625 C-30.40889206 72.3618977 -37.28281842 67.85069085 -43.29296875 62.60546875 C-51.92103349 52.02913133 -54.37310705 40.038738 -53.29296875 26.60546875 C-50.88418484 15.22224423 -44.91691989 6.19378886 -35.29296875 -0.39453125 C-24.27158022 -6.15146609 -10.80211358 -6.56959889 0 0 Z " fill="#F6F8F7" transform="translate(1051.29296875,2310.39453125)"/>
<path d="M0 0 C4.09371543 4.21067872 6.4271049 7.81426915 6.4375 13.6875 C6.355 14.863125 6.2725 16.03875 6.1875 17.25 C2.2275 17.25 -1.7325 17.25 -5.8125 17.25 C-6.06 16.156875 -6.3075 15.06375 -6.5625 13.9375 C-7.89455173 10.00794739 -8.35320089 9.23954509 -11.8125 7.25 C-17.03869704 6.31535969 -21.43283989 6.41138307 -26 9.1875 C-28.48342994 13.38364025 -28.78157975 16.49269941 -27.8125 21.25 C-23.10024155 32.83899925 -11.02059107 42.18087567 -2.25 50.875 C-1.23088246 51.88908446 -0.21200101 52.90340625 0.80664062 53.91796875 C3.26422412 56.36470835 5.72494246 58.80826544 8.1875 61.25 C12.1698283 55.48387091 12.1698283 55.48387091 15.62890625 49.40234375 C16.92796947 46.83590178 17.98240423 45.12151547 20.1875 43.25 C24.61574701 42.48815105 28.74118835 42.71565097 33.1875 43.25 C28.73991339 52.61609416 23.61231324 61.42563712 18.1875 70.25 C22.41618204 75.31140712 26.85176245 80.01260771 31.5625 84.625 C32.82255149 85.85969834 34.08049346 87.09655458 35.3359375 88.3359375 C35.88427246 88.8726709 36.43260742 89.4094043 36.99755859 89.96240234 C38.1875 91.25 38.1875 91.25 38.1875 92.25 C23.07354877 93.47407704 23.07354877 93.47407704 18.60546875 90.57421875 C16.90335695 88.54577615 15.54816137 86.51632452 14.1875 84.25 C13.21640075 83.22191136 12.22469019 82.2113722 11.1875 81.25 C7.95864427 82.75978902 5.12983596 84.61965793 2.1875 86.625 C-8.83456063 93.63637721 -19.5596249 95.79771706 -32.4375 93.625 C-40.27271662 91.60208953 -47.37859195 87.03127113 -51.8125 80.25 C-55.92257897 72.55886213 -57.3375542 65.11032062 -55.1171875 56.578125 C-51.49829912 46.54255217 -45.31182752 40.91423815 -35.8125 36.25 C-35.1525 36.25 -34.4925 36.25 -33.8125 36.25 C-34.22242188 35.58613281 -34.63234375 34.92226562 -35.0546875 34.23828125 C-35.59351563 33.35527344 -36.13234375 32.47226563 -36.6875 31.5625 C-37.48800781 30.25732422 -37.48800781 30.25732422 -38.3046875 28.92578125 C-41.48972859 23.27357102 -42.66357031 18.69227908 -41.8125 12.25 C-39.70687174 5.31529617 -35.20216625 0.7145372 -28.96875 -2.78515625 C-19.43560352 -6.98521054 -8.66955345 -5.39438881 0 0 Z " fill="#F8F9F8" transform="translate(1348.8125,2289.75)"/>
<path d="M0 0 C7.97674452 5.32644853 12.01272716 12.03818148 15 21 C15 26.61 15 32.22 15 38 C-4.47 38 -23.94 38 -44 38 C-39.70046393 52.23477033 -39.70046393 52.23477033 -29 60 C-22.82662362 62.05779213 -16.1584962 61.8147191 -10.125 59.375 C-5.0478285 56.8182165 -1.82682995 53.48048984 0 48 C4.62 48 9.24 48 14 48 C9.88868362 59.01245459 5.4623992 64.54435563 -4.98828125 70.046875 C-14.29540371 73.87815648 -26.42351354 73.47420038 -35.6875 69.8125 C-45.28216315 65.09359892 -51.01281485 58.18396993 -55.109375 48.33203125 C-58.695077 36.881464 -58.37020616 24.3622214 -52.78125 13.66796875 C-47.60424856 5.2265803 -40.64182739 -1.3924546 -31.078125 -4.37109375 C-19.99762561 -6.63500289 -9.96210001 -5.35277015 0 0 Z " fill="#F8F9F8" transform="translate(1723,2311)"/>
<path d="M0 0 C7.51103701 6.03296146 11.56568556 12.24229448 13.9453125 21.5625 C13.9453125 26.5125 13.9453125 31.4625 13.9453125 36.5625 C-5.8546875 36.5625 -25.6546875 36.5625 -46.0546875 36.5625 C-42.8132813 47.36718734 -40.64292672 52.94542749 -30.8671875 58.3125 C-24.65571988 60.75127579 -18.36078616 60.37945137 -12.2421875 57.875 C-6.84083127 55.17432188 -3.76266 51.97844501 -1.0546875 46.5625 C3.2353125 46.5625 7.5253125 46.5625 11.9453125 46.5625 C10.31811011 54.69851193 5.81119029 60.85062308 -1.0546875 65.5625 C-11.22445081 70.79824202 -22.6227275 72.59499725 -33.890625 69.87890625 C-36.11441564 68.93867196 -38.03822629 67.88760308 -40.0546875 66.5625 C-41.09496094 65.90894531 -41.09496094 65.90894531 -42.15625 65.2421875 C-51.01715868 59.16898043 -56.01173077 51.09685228 -58.0546875 40.5625 C-59.54840817 27.04717169 -58.16500074 15.62357348 -49.4921875 4.6875 C-36.57383323 -8.846014 -15.28827228 -10.39850099 0 0 Z " fill="#F9FAF9" transform="translate(973.0546875,2312.4375)"/>
<path d="M0 0 C3.96 0 7.92 0 12 0 C12 13.86 12 27.72 12 42 C27.84 42 43.68 42 60 42 C60 28.14 60 14.28 60 0 C64.29 0 68.58 0 73 0 C73 31.35 73 62.7 73 95 C68.71 95 64.42 95 60 95 C60 80.81 60 66.62 60 52 C44.16 52 28.32 52 12 52 C12 66.19 12 80.38 12 95 C8.04 95 4.08 95 0 95 C0 63.65 0 32.3 0 0 Z " fill="#F8F9F8" transform="translate(826,2287)"/>
<path d="M0 0 C4.29 0 8.58 0 13 0 C13.33 11.22 13.66 22.44 14 34 C16.64 32.02 19.28 30.04 22 28 C29.72525498 24.00417846 38.48271302 23.62437617 46.9140625 25.7265625 C54.88389678 28.68816255 59.81936374 33.02758595 63.921875 40.42578125 C67.03667846 47.86293878 67.27335034 54.76269658 67.1953125 62.71875 C67.1924826 63.81723267 67.18965271 64.91571533 67.18673706 66.04748535 C67.17560486 69.531771 67.15051298 73.01579296 67.125 76.5 C67.11496121 78.8723921 67.10583694 81.24478826 67.09765625 83.6171875 C67.07568829 89.41155885 67.04120648 95.20573482 67 101 C63.04 101 59.08 101 55 101 C54.9906543 99.59306885 54.98130859 98.1861377 54.97167969 96.73657227 C54.93162412 91.48625741 54.8658217 86.23651893 54.79248047 80.98657227 C54.764361 78.72004637 54.74310186 76.45342406 54.72900391 74.18676758 C54.70744961 70.91698158 54.66073389 67.64834391 54.609375 64.37890625 C54.60814636 63.37541641 54.60691772 62.37192657 54.60565186 61.33802795 C54.44225979 53.38067576 52.66604565 47.29747751 47.625 41.0625 C42.19661395 36.79733953 36.7027116 36.49591728 29.9765625 36.62109375 C23.84379211 37.4017745 20.28005489 40.35890399 16.5625 45.125 C14.50391284 48.91280038 13.86953867 51.6847353 13.79467773 55.93041992 C13.77473251 56.93123093 13.75478729 57.93204193 13.73423767 58.96318054 C13.71752518 60.04138565 13.70081268 61.11959076 13.68359375 62.23046875 C13.66281265 63.33602615 13.64203156 64.44158356 13.62062073 65.5806427 C13.55517668 69.1161979 13.49626397 72.65182806 13.4375 76.1875 C13.3943099 78.58269008 13.35069546 80.97787255 13.30664062 83.37304688 C13.19950048 89.24862088 13.09821832 95.12427036 13 101 C8.71 101 4.42 101 0 101 C0 67.67 0 34.34 0 0 Z " fill="#F5F7F5" transform="translate(1176,2281)"/>
<path d="M0 0 C6.16422076 3.85778627 8.77127566 9.31382698 11 16 C11.69250106 26.36088127 11.47032427 35.02822095 4.8125 43.3125 C-0.94608006 49.29807803 -5.65498243 51.21500474 -14 51.5 C-22.37802637 51.21387743 -27.0719601 49.30019558 -32.8125 43.25 C-39.57469877 34.80497094 -39.83182117 26.6730857 -39 16 C-37.8457341 9.43836233 -34.0266766 4.27078538 -29 0 C-19.35868705 -5.75890505 -9.58624693 -5.61191039 0 0 Z " fill="#1F5129" transform="translate(1050,2321)"/>
<path d="M0 0 C6.36259252 4.80607847 9.71029584 12.00560072 11.0078125 19.75 C11.09066377 21.49820286 11.12568072 23.24910795 11.12133789 24.99926758 C11.12122459 26.53028862 11.12122459 26.53028862 11.12110901 28.09223938 C11.11594772 29.1819957 11.11078644 30.27175201 11.10546875 31.39453125 C11.1040538 32.5194548 11.10263885 33.64437836 11.10118103 34.8033905 C11.09559181 38.38978759 11.08304122 41.97612184 11.0703125 45.5625 C11.06529611 47.99674389 11.06073344 50.43098876 11.05664062 52.86523438 C11.04562589 58.82684706 11.02836861 64.78841288 11.0078125 70.75 C7.0478125 70.75 3.0878125 70.75 -0.9921875 70.75 C-0.99629639 69.3180127 -1.00040527 67.88602539 -1.00463867 66.41064453 C-1.02652769 61.0614905 -1.08091923 55.71306183 -1.14477539 50.36425781 C-1.16787028 48.05606068 -1.18233097 45.74775944 -1.18774414 43.43945312 C-1.1970957 40.10741937 -1.23822419 36.77700407 -1.28515625 33.4453125 C-1.2812236 32.42511017 -1.27729095 31.40490784 -1.27323914 30.35379028 C-1.4276759 22.64683779 -3.16494163 15.61244482 -8.74919128 9.97683716 C-13.71678598 5.980768 -19.49596471 6.02611323 -25.640625 6.26953125 C-31.20352558 7.06701 -34.91165431 9.01663088 -38.32421875 13.5 C-41.16576373 18.15892887 -42.09874267 22.24870936 -42.19750977 27.61035156 C-42.21745499 28.57104553 -42.23740021 29.5317395 -42.25794983 30.52154541 C-42.27466232 31.55084167 -42.29137482 32.58013794 -42.30859375 33.640625 C-42.32937485 34.70037537 -42.35015594 35.76012573 -42.37156677 36.85198975 C-42.43690936 40.23459438 -42.49587631 43.61727612 -42.5546875 47 C-42.59788725 49.29427878 -42.64150201 51.58854979 -42.68554688 53.8828125 C-42.79257515 59.50512948 -42.89388583 65.12752395 -42.9921875 70.75 C-46.9521875 70.75 -50.9121875 70.75 -54.9921875 70.75 C-54.9921875 46.33 -54.9921875 21.91 -54.9921875 -3.25 C-51.0321875 -3.25 -47.0721875 -3.25 -42.9921875 -3.25 C-42.6621875 -0.61 -42.3321875 2.03 -41.9921875 4.75 C-41.5075 4.27949219 -41.0228125 3.80898437 -40.5234375 3.32421875 C-28.81142931 -7.55443501 -13.71605287 -8.60615082 0 0 Z " fill="#FBFBFB" transform="translate(1639.9921875,2311.25)"/>
<path d="M0 0 C3.91062623 4.38464153 7.375 9.31899008 7.375 15.375 C7.271875 16.344375 7.16875 17.31375 7.0625 18.3125 C3.1025 18.3125 -0.8575 18.3125 -4.9375 18.3125 C-5.30875 17.075 -5.68 15.8375 -6.0625 14.5625 C-7.20583732 11.64466178 -8.07129168 10.16786034 -10.25 7.8125 C-15.97738478 5.48271636 -21.83797556 5.52063192 -27.9375 6.3125 C-31.65713462 8.07449489 -31.65713462 8.07449489 -33.9375 11.3125 C-34.481514 16.71846151 -34.481514 16.71846151 -32.5625 21.5625 C-27.3563907 25.03323953 -21.5159947 26.84667124 -15.5625 28.65234375 C2.28642999 34.13692062 2.28642999 34.13692062 7.23046875 42.22265625 C9.24893524 47.29251339 8.45574136 52.86242249 7.0625 58 C3.55176818 63.81464957 -1.7405132 68.78164775 -8.34765625 70.875 C-19.5249612 72.76317218 -30.31609438 72.30481608 -39.953125 65.9921875 C-44.31332475 62.63959693 -47.29855556 58.59580538 -48.9375 53.3125 C-48.9375 51.6625 -48.9375 50.0125 -48.9375 48.3125 C-44.6475 48.3125 -40.3575 48.3125 -35.9375 48.3125 C-35.56625 49.385 -35.195 50.4575 -34.8125 51.5625 C-33.09492269 55.58374735 -30.82108152 57.25182409 -26.9375 59.3125 C-21.42509469 60.99653421 -15.96404034 61.0630705 -10.5625 59.0625 C-7.85970616 57.26063744 -6.38741822 56.21233643 -4.9375 53.3125 C-4.27083333 49.8125 -4.27083333 49.8125 -4.9375 46.3125 C-8.31473866 43.0329753 -11.3751137 41.60636863 -15.875 40.375 C-17.01195312 40.04242187 -18.14890625 39.70984375 -19.3203125 39.3671875 C-21.11082031 38.84511719 -21.11082031 38.84511719 -22.9375 38.3125 C-33.04313661 35.24433432 -40.77406777 32.29743382 -46.9375 23.4375 C-48.75089272 17.77064775 -48.81101657 12.64210741 -46.4375 7.125 C-42.99685173 1.04329073 -36.82865429 -3.06614918 -30.25390625 -5.21484375 C-19.60198339 -7.38833897 -9.36321553 -5.37886849 0 0 Z " fill="#F7F9F8" transform="translate(1869.9375,2311.6875)"/>
<path d="M0 0 C5.19149011 4.26855854 8.92128406 8.4597236 9.6875 15.3125 C9.72875 16.6325 9.77 17.9525 9.8125 19.3125 C5.8525 19.3125 1.8925 19.3125 -2.1875 19.3125 C-2.579375 18.24 -2.97125 17.1675 -3.375 16.0625 C-4.93612329 12.40754784 -6.81651161 10.50364245 -10.1875 8.3125 C-15.41048245 6.57150585 -22.07489833 6.08261432 -27.2734375 8.13671875 C-29.50153832 9.59857027 -30.98933209 10.91616419 -32.1875 13.3125 C-32.69622783 17.12795876 -32.57638594 18.76805968 -30.3125 21.9375 C-24.41909431 26.41648833 -17.58633574 28.21838656 -10.5625 30.3125 C-0.93735043 33.23401599 4.32369214 35.89991735 10.125 44.1875 C12.10515362 50.30797483 10.8956475 55.6001729 8.1328125 61.203125 C4.680731 66.71828479 -0.25649917 70.05666415 -6.46875 71.84375 C-17.2342234 73.6998661 -26.93777216 72.79792514 -36.4375 67.5 C-40.94989506 63.91059484 -44.58462962 59.99540406 -46.1875 54.3125 C-46.1875 52.6625 -46.1875 51.0125 -46.1875 49.3125 C-42.2275 49.3125 -38.2675 49.3125 -34.1875 49.3125 C-31.1875 55.0625 -31.1875 55.0625 -31.1875 57.3125 C-24.37622697 60.8442712 -18.89362799 62.21650929 -11.1875 61.3125 C-7.68037169 60.10400463 -5.08273139 58.39423792 -2.6875 55.5 C-1.85061314 51.83862 -1.9272972 49.90407799 -3.1875 46.3125 C-8.40714583 42.06255901 -15.32676992 40.64276192 -21.6875 38.875 C-29.61380816 36.67098112 -37.79729774 34.17039335 -42.75 27.125 C-45.44868444 21.84496523 -45.95827661 17.15827763 -45.1875 11.3125 C-42.31507526 4.31617915 -37.43968188 0.20406443 -30.6875 -2.9375 C-20.12279259 -6.92091427 -9.72101247 -5.14641837 0 0 Z " fill="#F8F9F8" transform="translate(1797.1875,2310.6875)"/>
<path d="M0 0 C17.82 0 35.64 0 54 0 C54 3.3 54 6.6 54 10 C40.47 10 26.94 10 13 10 C13 20.56 13 31.12 13 42 C23.89 42 34.78 42 46 42 C46 45.3 46 48.6 46 52 C35.11 52 24.22 52 13 52 C13 66.19 13 80.38 13 95 C8.71 95 4.42 95 0 95 C0 63.65 0 32.3 0 0 Z " fill="#F5F7F5" transform="translate(1434,2287)"/>
<path d="M0 0 C4.29 0 8.58 0 13 0 C13 5.94 13 11.88 13 18 C19.27 18 25.54 18 32 18 C32 21.63 32 25.26 32 29 C25.73 29 19.46 29 13 29 C13.0934347 35.92366347 13.19950668 42.8469731 13.31738281 49.77026367 C13.35570602 52.12632924 13.39055294 54.482454 13.421875 56.83862305 C13.46745274 60.22205787 13.52545952 63.60508408 13.5859375 66.98828125 C13.59748871 68.04461258 13.60903992 69.10094391 13.62094116 70.18928528 C13.64081085 71.17007553 13.66068054 72.15086578 13.68115234 73.16137695 C13.69447601 74.02519485 13.70779968 74.88901276 13.7215271 75.77900696 C13.8678214 78.28584887 13.8678214 78.28584887 16 81 C19.31544299 82.10514766 22.20410111 82.32107631 25.6875 82.5625 C27.45673828 82.68818359 27.45673828 82.68818359 29.26171875 82.81640625 C30.16535156 82.87699219 31.06898437 82.93757813 32 83 C32 86.3 32 89.6 32 93 C28.95778935 93.08132642 25.9177762 93.14065374 22.875 93.1875 C22.0190625 93.21263672 21.163125 93.23777344 20.28125 93.26367188 C15.07071878 93.32379339 11.49946406 92.93084356 7 90 C-0.03233446 82.80783976 -0.29015538 76.25852779 -0.1953125 66.6953125 C-0.1924826 65.61619598 -0.18965271 64.53707947 -0.18673706 63.42526245 C-0.1755766 59.99172701 -0.1504793 56.55845609 -0.125 53.125 C-0.11496487 50.79167044 -0.10583995 48.45833678 -0.09765625 46.125 C-0.07565075 40.41656534 -0.04114908 34.70832746 0 29 C-3.3 29 -6.6 29 -10 29 C-10 25.37 -10 21.74 -10 18 C-6.7 18 -3.4 18 0 18 C0 12.06 0 6.12 0 0 Z " fill="#F2F5F3" transform="translate(1538,2289)"/>
<path d="M0 0 C3.96 0 7.92 0 12 0 C12 6.27 12 12.54 12 19 C18.27 19 24.54 19 31 19 C31 21.97 31 24.94 31 28 C24.73 28 18.46 28 12 28 C12.06881138 34.9054691 12.15674757 41.81032892 12.26245117 48.71533203 C12.29571468 51.06454719 12.32374212 53.41384255 12.34643555 55.76318359 C12.37995468 59.1393452 12.43227049 62.51477093 12.48828125 65.890625 C12.49467117 66.94179504 12.5010611 67.99296509 12.50764465 69.07598877 C12.53733589 70.54706085 12.53733589 70.54706085 12.56762695 72.04785156 C12.57873001 72.90944885 12.58983307 73.77104614 12.60127258 74.65875244 C13.09318166 77.54714404 13.94608624 78.92381866 16 81 C18.84566041 81.45718128 21.33616173 81.69521446 24.1875 81.75 C25.31188477 81.79447266 25.31188477 81.79447266 26.45898438 81.83984375 C28.30541307 81.9104079 30.15271261 81.95748476 32 82 C32 85.63 32 89.26 32 93 C28.99900412 93.10890711 26.00203622 93.18773555 23 93.25 C22.16082031 93.28351562 21.32164063 93.31703125 20.45703125 93.3515625 C14.5501132 93.44314262 9.83647039 92.57017089 5 89 C1.10854215 84.15887064 -0.12917462 79.11975332 -0.11352539 73.04785156 C-0.11344986 72.06713684 -0.11337433 71.08642212 -0.11329651 70.07598877 C-0.10813522 69.02481873 -0.10297394 67.97364868 -0.09765625 66.890625 C-0.0962413 65.80867859 -0.09482635 64.72673218 -0.09336853 63.61199951 C-0.08777318 60.1579715 -0.0752215 56.70400841 -0.0625 53.25 C-0.0574844 50.90755302 -0.0529216 48.56510502 -0.04882812 46.22265625 C-0.03780527 40.48174583 -0.02054379 34.74088392 0 29 C-3.3 29 -6.6 29 -10 29 C-10 25.37 -10 21.74 -10 18 C-6.7 18 -3.4 18 0 18 C0 12.06 0 6.12 0 0 Z " fill="#F9FAFA" transform="translate(1130,2289)"/>
<path d="M0 0 C3.96 0 7.92 0 12 0 C12 33.33 12 66.66 12 101 C8.04 101 4.08 101 0 101 C0 67.67 0 34.34 0 0 Z " fill="#FBFCFB" transform="translate(1094,2281)"/>
<path d="M0 0 C2.15140226 1.75269031 4.05055041 3.46577193 5.9921875 5.42578125 C6.54238556 5.96978073 7.09258362 6.51378021 7.65945435 7.07426453 C8.81573074 8.22345496 9.96691966 9.37778418 11.11328125 10.53686523 C12.8744184 12.31191381 14.65829604 14.06159907 16.4453125 15.81054688 C17.56655644 16.93084005 18.6863986 18.05253831 19.8046875 19.17578125 C20.341008 19.69884354 20.87732849 20.22190582 21.42990112 20.76081848 C22.89794922 22.2668457 22.89794922 22.2668457 25 25 C24.9543457 27.24829102 24.9543457 27.24829102 24 29 C21.92578125 30.8515625 21.92578125 30.8515625 19.3125 32.625 C18.46300781 33.21539063 17.61351562 33.80578125 16.73828125 34.4140625 C9.74717312 38.46312085 2.91144306 38.77373526 -5 38 C-10.97317484 36.32064094 -14.49320875 32.99452087 -18 28 C-19.8310096 22.5069712 -20.07669636 16.16706296 -18.19921875 10.64453125 C-14.55331546 4.16710169 -7.74012183 -2.54268882 0 0 Z " fill="#205229" transform="translate(1325,2335)"/>
<path d="M0 0 C4.29 0 8.58 0 13 0 C13 24.75 13 49.5 13 75 C8.71 75 4.42 75 0 75 C0 50.25 0 25.5 0 0 Z " fill="#F0F3F1" transform="translate(1502,2307)"/>
<path d="M0 0 C5.03440431 3.03576741 9.4181178 7.9117566 11.5 13.4375 C11.5 15.7475 11.5 18.0575 11.5 20.4375 C-3.68 20.4375 -18.86 20.4375 -34.5 20.4375 C-33.50441878 11.47726905 -32.5667363 7.65166048 -25.875 2.0859375 C-18.75659902 -2.86135118 -7.93424231 -3.60507321 0 0 Z " fill="#1F5129" transform="translate(962.5,2318.5625)"/>
<path d="M0 0 C4.33153965 2.2808938 7.49329853 4.88438945 10.1640625 9.05078125 C10.5765625 9.64890625 10.9890625 10.24703125 11.4140625 10.86328125 C12.1640625 13.05078125 12.1640625 13.05078125 12.1640625 21.05078125 C-3.0159375 21.05078125 -18.1959375 21.05078125 -33.8359375 21.05078125 C-31.57455718 9.74387963 -31.57455718 9.74387963 -28.0859375 6.11328125 C-27.43109375 5.40300781 -26.77625 4.69273437 -26.1015625 3.9609375 C-18.78790716 -2.20523053 -8.98878841 -3.00864405 0 0 Z " fill="#1F5128" transform="translate(1712.8359375,2317.94921875)"/>
<path d="M0 0 C2.12890625 0.484375 2.12890625 0.484375 4.69140625 2.609375 C6.39414493 6.01485236 6.8322914 7.73298752 6.12890625 11.484375 C4.06640625 14.359375 4.06640625 14.359375 1.12890625 16.484375 C-2.83585781 17.11039038 -4.86871396 17.14383539 -8.24609375 14.921875 C-10.4233566 11.65598072 -10.87109375 9.40453634 -10.87109375 5.484375 C-8.43371663 0.27725116 -5.3650956 -0.31819348 0 0 Z " fill="#F4F6F5" transform="translate(1510.87109375,2278.515625)"/>
</svg>
