<svg width="71" height="71" viewBox="0 0 71 71" fill="none" xmlns="http://www.w3.org/2000/svg">
<g clip-path="url(#clip0_363_37)">
<path d="M21.2998 21.3004C21.9534 21.3004 22.4831 20.7706 22.4831 20.1171V8.28349C22.4834 7.75597 22.1342 7.29197 21.6273 7.14594C21.1203 6.99992 20.578 7.2071 20.2974 7.65405L16.5663 13.591L12.8352 7.65405C12.5548 7.20724 12.0124 6.99992 11.5054 7.14594C10.9984 7.29197 10.6493 7.75597 10.6496 8.28349V20.117C10.6496 20.7706 11.1795 21.3003 11.8329 21.3003C12.4863 21.3003 13.0162 20.7704 13.0162 20.117V12.3898L15.5639 16.4486C15.7948 16.7727 16.1683 16.9652 16.5663 16.9652C16.9643 16.9652 17.3376 16.7727 17.5686 16.4486L20.1163 12.3898V20.1171C20.1163 20.7706 20.6462 21.3004 21.2998 21.3004Z" fill="white"/>
<path d="M35.5 15.9757V12.4257C35.5 9.48467 33.116 7.10059 30.1749 7.10059C27.2339 7.10059 24.8499 9.48467 24.8499 12.4257V15.9757C24.8499 18.9167 27.2339 21.3008 30.1749 21.3008C33.116 21.3008 35.5 18.9167 35.5 15.9757ZM27.2165 15.9757V12.4257C27.2165 10.7918 28.5409 9.46734 30.1748 9.46734C31.8087 9.46734 33.1331 10.7918 33.1331 12.4257V15.9757C33.1331 17.6096 31.8087 18.9341 30.1748 18.9341C28.5411 18.9341 27.2165 17.6096 27.2165 15.9757Z" fill="white"/>
<path d="M41.4168 21.3008C45.3381 21.3008 48.5169 18.122 48.5169 14.2007C48.5169 10.2794 45.3381 7.10059 41.4168 7.10059H40.2335C38.9263 7.10059 37.8667 8.1602 37.8667 9.46734V18.9342C37.8667 20.2414 38.9263 21.301 40.2335 21.301L41.4168 21.3008ZM40.2335 9.46734H41.4168C44.0309 9.46734 46.1501 11.5866 46.1501 14.2007C46.1501 16.8149 44.0309 18.9341 41.4168 18.9341H40.2335V9.46734Z" fill="white"/>
<path d="M59.167 9.4672C59.8206 9.4672 60.3504 8.93733 60.3504 8.28389C60.3504 7.63046 59.8205 7.10059 59.167 7.10059H52.0669C51.4133 7.10059 50.8836 7.63046 50.8836 8.28389V20.1174C50.8836 20.771 51.4135 21.3007 52.0669 21.3007H59.167C59.8206 21.3007 60.3504 20.7708 60.3504 20.1174C60.3504 19.4638 59.8205 18.9341 59.167 18.9341H53.2502V15.384H59.167C59.8206 15.384 60.3504 14.8541 60.3504 14.2007C60.3504 13.5471 59.8205 13.0174 59.167 13.0174H53.2502V9.46734L59.167 9.4672Z" fill="white"/>
<path d="M67.4506 23.6671V4.73337C67.4506 2.11922 65.3314 0 62.7171 0H8.28287C5.66872 0 3.5495 2.11922 3.5495 4.73337V23.667C3.5495 26.2811 5.66872 28.4004 8.28287 28.4004H22.0808C22.7344 28.4004 23.2641 27.8705 23.2641 27.2171C23.2641 26.5636 22.7343 26.0337 22.0808 26.0337H8.28287C6.97573 26.0337 5.91611 24.9741 5.91611 23.667V4.73337C5.91611 3.42623 6.97573 2.36662 8.28287 2.36662H62.7171C64.0243 2.36662 65.0839 3.42623 65.0839 4.73337V23.667C65.0839 24.9741 64.0243 26.0337 62.7171 26.0337H50.0789C49.4253 26.0337 48.8956 26.5636 48.8956 27.2171C48.8956 27.8705 49.4255 28.4004 50.0789 28.4004H62.7171C65.3314 28.4005 67.4506 26.2813 67.4506 23.6671Z" fill="white"/>
<path d="M33.6634 65.9366C34.0723 66.094 34.5346 66.0125 34.8651 65.7249C35.1955 65.4373 35.3402 64.9906 35.2409 64.5639C35.1416 64.1372 34.8146 63.8002 34.3911 63.6882C32.9184 63.2157 31.9229 61.8422 31.9322 60.2956C31.9322 59.642 31.4024 59.1123 30.7489 59.1123C30.0953 59.1123 29.5656 59.642 29.5656 60.2956C29.5552 62.8685 31.2134 65.1512 33.6634 65.9366Z" fill="white"/>
<path d="M25.1965 31.8682C25.4889 31.9844 25.8154 31.9794 26.104 31.8545C26.3927 31.7295 26.6196 31.4946 26.7349 31.202C28.2561 27.3707 31.9611 24.8556 36.0833 24.8556C40.2055 24.8556 43.9105 27.3709 45.4318 31.202C45.576 31.6104 45.9318 31.9075 46.3593 31.9764C46.7869 32.0453 47.218 31.875 47.4832 31.5326C47.7483 31.1902 47.8053 30.7303 47.6315 30.3335C45.7532 25.5989 41.1756 22.4902 36.0821 22.4902C30.9885 22.4902 26.4108 25.5989 24.5326 30.3335C24.2927 30.9405 24.5898 31.6273 25.1965 31.8682Z" fill="white"/>
<path d="M36.0799 27.2168C32.6511 27.22 29.6386 29.4922 28.6934 32.788C28.5333 33.4103 28.8992 34.0465 29.5175 34.2214C30.1359 34.3962 30.7806 34.0457 30.9701 33.4318C31.6249 31.1514 33.7119 29.5813 36.0843 29.5841C38.4567 29.5869 40.54 31.1618 41.1896 33.4437C41.333 33.9532 41.7974 34.3056 42.3269 34.3064C42.4357 34.3058 42.5439 34.2907 42.6487 34.2615C43.2773 34.0835 43.6427 33.4298 43.4652 32.8012C42.5231 29.5016 39.5111 27.2241 36.0799 27.2168Z" fill="white"/>
<path d="M35.4337 70.955L47.2672 70.9999H47.3087C53.1716 70.9928 57.9289 66.2539 57.9589 60.3912C57.9707 56.8341 57.9696 50.3019 57.9672 46.7425C57.9726 45.1889 57.1052 43.7639 55.7226 43.0551C54.34 42.3463 52.6768 42.4739 51.4184 43.3853C50.2781 41.4963 47.8409 40.8588 45.9218 41.9475C45.5739 40.8016 44.741 39.866 43.6431 39.3879C42.5452 38.9096 41.2929 38.9369 40.2169 39.4625V37.2756C40.2169 34.9881 38.3625 33.1338 36.0751 33.1338C33.7877 33.1338 31.9333 34.9881 31.9333 37.2756V45.6064C31.2294 45.1953 30.4304 44.975 29.6151 44.9674H29.5974C26.9888 44.9641 24.8705 47.0744 24.864 49.683L24.8238 60.2658C24.8081 66.1448 29.5546 70.927 35.4337 70.955ZM27.2318 49.6901C27.2371 48.3867 28.2952 47.3329 29.5986 47.3329H29.608C30.7863 47.3364 31.7805 48.2107 31.9346 49.3789V54.4342C31.9346 55.0877 32.4644 55.6175 33.1179 55.6175C33.7713 55.6175 34.3012 55.0877 34.3012 54.4342C34.3012 54.3159 34.3532 51.503 34.3012 37.2756C34.3012 36.2953 35.0959 35.5005 36.0762 35.5005C37.0565 35.5005 37.8512 36.2953 37.8512 37.2756V54.4342C37.8512 55.0877 38.381 55.6175 39.0346 55.6175C39.6881 55.6175 40.2179 55.0877 40.2179 54.4342V43.1923C40.2179 42.212 41.0126 41.4172 41.9929 41.4172C42.9732 41.4172 43.7679 42.212 43.7679 43.1923V54.4342C43.7679 55.0877 44.2978 55.6175 44.9512 55.6175C45.6047 55.6175 46.1345 55.0877 46.1345 54.4342V45.559C46.1345 44.5787 46.9293 43.784 47.9096 43.784C48.8899 43.784 49.6846 44.5787 49.6846 45.559V54.4342C49.6846 55.0877 50.2143 55.6175 50.8679 55.6175C51.5215 55.6175 52.0512 55.0877 52.0512 54.4342V46.7423C52.0512 45.762 52.846 44.9673 53.8262 44.9673C54.8065 44.9673 55.6013 45.762 55.6013 46.7423C55.6013 56.0422 55.612 50.1859 55.593 60.3805C55.5702 64.941 51.87 68.6275 47.3095 68.6332H47.2776L35.4441 68.5882C30.8716 68.566 27.1801 64.8465 27.1926 60.274L27.2318 49.6901Z" fill="white"/>
</g>
<defs>
<clipPath id="clip0_363_37">
<rect width="71" height="71" fill="white"/>
</clipPath>
</defs>
</svg>
