<svg width="56" height="55" viewBox="0 0 56 55" fill="none" xmlns="http://www.w3.org/2000/svg">
<g clip-path="url(#clip0_9_8)">
<path d="M50.0249 10.5205H51.7552C52.3588 10.5205 52.8482 10.0398 52.8482 9.44703C52.8482 8.85424 52.3588 8.37352 51.7552 8.37352H47.6017C46.9981 8.37352 46.5087 8.85424 46.5087 9.44703V13.5264C46.5087 14.1192 46.9981 14.5999 47.6017 14.5999C48.2053 14.5999 48.6947 14.1192 48.6947 13.5264V12.3452C52.0112 16.7059 53.8139 21.997 53.8139 27.5C53.8139 41.4797 42.2339 52.853 28 52.853C13.7661 52.853 2.18607 41.4797 2.18607 27.5C2.18607 13.5203 13.7661 2.14703 28 2.14703C29.0527 2.14703 30.1122 2.20983 31.1492 2.33361C31.7477 2.40467 32.2934 1.98611 32.3662 1.3975C32.4391 0.809 32.0124 0.273746 31.4131 0.20225C30.2888 0.0680608 29.1406 0 28 0C20.5209 0 13.4894 2.86049 8.20102 8.05458C2.91249 13.2486 0 20.1545 0 27.5C0 34.8455 2.91249 41.7514 8.20102 46.9454C13.4894 52.1395 20.5209 55 28 55C35.4791 55 42.5106 52.1395 47.799 46.9454C53.0875 41.7514 56 34.8455 56 27.5C56 21.3014 53.8915 15.3507 50.0249 10.5205Z" fill="#004B2A"/>
<path d="M11.8563 16.2112C11.3462 15.894 10.671 16.0433 10.348 16.544C7.85276 20.4146 6.74814 25.0696 7.23771 29.6515C7.7345 34.3013 9.86536 38.6861 13.2378 41.9985C17.3077 45.9957 22.6538 47.9944 28.0001 47.9944C33.3463 47.9944 38.6923 45.9958 42.7624 41.9985C50.9023 34.0039 50.9023 20.9957 42.7624 13.0012C39.3951 9.69418 34.9378 7.60212 30.2113 7.11045C25.5548 6.62575 20.8203 7.70217 16.8809 10.1409C16.3701 10.457 16.2172 11.1199 16.539 11.6215C16.8609 12.1231 17.5358 12.2733 18.0465 11.9573C25.4723 7.36047 35 8.41391 41.2165 14.5194C48.5041 21.6769 48.5041 33.3228 41.2165 40.4802C33.929 47.6378 22.0711 47.6378 14.7837 40.4802C8.65308 34.4591 7.56442 24.8755 12.1952 17.6926C12.5179 17.1916 12.3663 16.5284 11.8563 16.2112Z" fill="#004B2A"/>
<path d="M42.2095 28.5912H43.5575C44.161 28.5912 44.6505 28.1105 44.6505 27.5177C44.6505 26.9249 44.161 26.4442 43.5575 26.4442H42.2095C41.606 26.4442 41.1165 26.9249 41.1165 27.5177C41.1165 28.1105 41.6059 28.5912 42.2095 28.5912Z" fill="#004B2A"/>
<path d="M11.3495 27.4826C11.3495 28.0754 11.8389 28.5561 12.4425 28.5561H13.7904C14.394 28.5561 14.8835 28.0754 14.8835 27.4826C14.8835 26.8898 14.394 26.4091 13.7904 26.4091H12.4425C11.8389 26.4091 11.3495 26.8897 11.3495 27.4826Z" fill="#004B2A"/>
<path d="M29.1107 13.5442V12.2204C29.1107 11.6276 28.6213 11.1469 28.0177 11.1469C27.4141 11.1469 26.9247 11.6276 26.9247 12.2204V13.5442C26.9247 14.137 27.4141 14.6177 28.0177 14.6177C28.6213 14.6177 29.1107 14.137 29.1107 13.5442Z" fill="#004B2A"/>
<path d="M26.8893 41.4561V42.7799C26.8893 43.3727 27.3787 43.8535 27.9823 43.8535C28.5859 43.8535 29.0753 43.3727 29.0753 42.7799V41.4561C29.0753 40.8633 28.5859 40.3826 27.9823 40.3826C27.3787 40.3826 26.8893 40.8632 26.8893 41.4561Z" fill="#004B2A"/>
<path d="M22.5213 20.6008C22.0943 20.1817 21.4024 20.1817 20.9754 20.6008C20.5486 21.02 20.5486 21.6998 20.9754 22.1191L24.6798 25.7573C24.3959 26.2769 24.2345 26.8703 24.2345 27.5C24.2345 29.5392 25.9237 31.1982 28 31.1982C30.0763 31.1982 31.7655 29.5392 31.7655 27.5C31.7655 26.8703 31.6039 26.2769 31.3202 25.7573L38.7947 18.4163C39.2215 17.9971 39.2215 17.3174 38.7947 16.8981C38.3677 16.479 37.6758 16.479 37.2488 16.8981L29.7743 24.2391C29.2453 23.9603 28.6412 23.8017 28 23.8017C27.3588 23.8017 26.7547 23.9604 26.2257 24.2391L22.5213 20.6008ZM29.5794 27.5C29.5794 28.3554 28.8709 29.0512 28 29.0512C27.1291 29.0512 26.4206 28.3554 26.4206 27.5C26.4206 26.6446 27.1291 25.9488 28 25.9488C28.8709 25.9488 29.5794 26.6446 29.5794 27.5Z" fill="#004B2A"/>
<path d="M14.783 14.5186C14.9874 14.319 15.1043 14.042 15.1043 13.7597C15.1043 13.4773 14.9874 13.2014 14.783 13.0007C14.5797 12.8011 14.2987 12.6862 14.0103 12.6862C13.7228 12.6862 13.4408 12.801 13.2375 13.0007C13.0343 13.2004 12.9172 13.4773 12.9172 13.7597C12.9172 14.0431 13.0342 14.319 13.2375 14.5186C13.4408 14.7182 13.7228 14.8332 14.0103 14.8332C14.2987 14.8332 14.5797 14.7182 14.783 14.5186Z" fill="#004B2A"/>
<path d="M35.5714 3.20745C35.8601 3.20745 36.1421 3.09355 36.3453 2.89291C36.5486 2.69324 36.6657 2.41724 36.6657 2.13394C36.6657 1.8516 36.5487 1.57464 36.3453 1.37496C36.1421 1.1754 35.8601 1.06042 35.5714 1.06042C35.284 1.06042 35.002 1.17529 34.7988 1.37496C34.5955 1.57464 34.4784 1.8516 34.4784 2.13394C34.4784 2.41735 34.5953 2.69324 34.7988 2.89291C35.002 3.09355 35.284 3.20745 35.5714 3.20745Z" fill="#004B2A"/>
</g>
<defs>
<clipPath id="clip0_9_8">
<rect width="56" height="55" fill="white"/>
</clipPath>
</defs>
</svg>
