<svg width="55" height="54" viewBox="0 0 55 54" fill="none" xmlns="http://www.w3.org/2000/svg">
<g clip-path="url(#clip0_9_21)">
<path d="M16.4999 16.2003C17.0062 16.2003 17.4165 15.7973 17.4165 15.3003V6.30007C17.4168 5.89886 17.1463 5.54596 16.7536 5.4349C16.3609 5.32384 15.9408 5.48141 15.7234 5.82134L12.8331 10.3367L9.94286 5.82134C9.72565 5.48152 9.30541 5.32384 8.91267 5.4349C8.51993 5.54596 8.24954 5.89886 8.24976 6.30007V15.3002C8.24976 15.7973 8.66022 16.2002 9.1664 16.2002C9.67258 16.2002 10.0831 15.7972 10.0831 15.3002V9.42316L12.0566 12.5102C12.2355 12.7567 12.5248 12.9031 12.8331 12.9031C13.1414 12.9031 13.4306 12.7567 13.6096 12.5102L15.5831 9.42316V15.3003C15.5831 15.7973 15.9936 16.2003 16.4999 16.2003Z" fill="#004B2A"/>
<path d="M27.5 12.1505V9.45046C27.5 7.21364 25.6532 5.40039 23.3749 5.40039C21.0967 5.40039 19.2499 7.21364 19.2499 9.45046V12.1505C19.2499 14.3873 21.0967 16.2006 23.3749 16.2006C25.6532 16.2006 27.5 14.3873 27.5 12.1505ZM21.0832 12.1505V9.45046C21.0832 8.20781 22.1092 7.20046 23.3748 7.20046C24.6405 7.20046 25.6665 8.20781 25.6665 9.45046V12.1505C25.6665 13.3932 24.6405 14.4005 23.3748 14.4005C22.1093 14.4005 21.0832 13.3932 21.0832 12.1505Z" fill="#004B2A"/>
<path d="M32.0834 16.2006C35.121 16.2006 37.5835 13.7829 37.5835 10.8005C37.5835 7.81809 35.121 5.40039 32.0834 5.40039H31.1668C30.1542 5.40039 29.3334 6.20629 29.3334 7.20046V14.4006C29.3334 15.3948 30.1542 16.2007 31.1668 16.2007L32.0834 16.2006ZM31.1668 7.20046H32.0834C34.1085 7.20046 35.7501 8.81226 35.7501 10.8005C35.7501 12.7887 34.1085 14.4005 32.0834 14.4005H31.1668V7.20046Z" fill="#004B2A"/>
<path d="M45.8336 7.20035C46.3399 7.20035 46.7503 6.79735 46.7503 6.30037C46.7503 5.80339 46.3398 5.40039 45.8336 5.40039H40.3335C39.8272 5.40039 39.4169 5.80339 39.4169 6.30037V15.3005C39.4169 15.7976 39.8273 16.2005 40.3335 16.2005H45.8336C46.3399 16.2005 46.7503 15.7975 46.7503 15.3005C46.7503 14.8034 46.3398 14.4005 45.8336 14.4005H41.2502V11.7005H45.8336C46.3399 11.7005 46.7503 11.2975 46.7503 10.8005C46.7503 10.3034 46.3398 9.9005 45.8336 9.9005H41.2502V7.20046L45.8336 7.20035Z" fill="#004B2A"/>
<path d="M52.2505 18.0004V3.60003C52.2505 1.6118 50.6088 0 48.5837 0H6.41633C4.39128 0 2.74963 1.6118 2.74963 3.60003V18.0002C2.74963 19.9885 4.39128 21.6003 6.41633 21.6003H17.1049C17.6112 21.6003 18.0215 21.1973 18.0215 20.7003C18.0215 20.2033 17.6111 19.8003 17.1049 19.8003H6.41633C5.40375 19.8003 4.58293 18.9944 4.58293 18.0002V3.60003C4.58293 2.60586 5.40375 1.79996 6.41633 1.79996H48.5837C49.5963 1.79996 50.4171 2.60586 50.4171 3.60003V18.0002C50.4171 18.9944 49.5963 19.8003 48.5837 19.8003H38.7935C38.2872 19.8003 37.8769 20.2033 37.8769 20.7003C37.8769 21.1973 38.2873 21.6003 38.7935 21.6003H48.5837C50.6088 21.6004 52.2505 19.9886 52.2505 18.0004Z" fill="#004B2A"/>
<path d="M26.0773 50.1489C26.3941 50.2687 26.7522 50.2066 27.0082 49.9879C27.2642 49.7692 27.3763 49.4294 27.2993 49.1049C27.2224 48.7804 26.9691 48.5241 26.6411 48.4389C25.5002 48.0795 24.7291 47.0349 24.7363 45.8586C24.7363 45.3615 24.3259 44.9586 23.8196 44.9586C23.3133 44.9586 22.903 45.3615 22.903 45.8586C22.8949 47.8154 24.1795 49.5516 26.0773 50.1489Z" fill="#004B2A"/>
<path d="M19.5185 24.2378C19.7449 24.3262 19.9979 24.3224 20.2215 24.2273C20.4451 24.1323 20.6209 23.9536 20.7101 23.7311C21.8886 20.8172 24.7586 18.9042 27.9519 18.9042C31.1452 18.9042 34.0152 20.8173 35.1936 23.7311C35.3054 24.0417 35.581 24.2676 35.9122 24.32C36.2434 24.3725 36.5774 24.2429 36.7828 23.9825C36.9882 23.7221 37.0323 23.3723 36.8977 23.0705C35.4427 19.4696 31.8966 17.1052 27.9509 17.1052C24.0052 17.1052 20.4591 19.4696 19.0041 23.0705C18.8183 23.5322 19.0485 24.0546 19.5185 24.2378Z" fill="#004B2A"/>
<path d="M27.9493 20.7001C25.2932 20.7025 22.9595 22.4306 22.2273 24.9374C22.1034 25.4106 22.3867 25.8945 22.8657 26.0275C23.3448 26.1605 23.8442 25.8939 23.991 25.4269C24.4983 23.6926 26.1149 22.4985 27.9527 22.5006C29.7905 22.5027 31.4043 23.7005 31.9075 25.436C32.0186 25.8235 32.3783 26.0915 32.7885 26.0922C32.8728 26.0917 32.9566 26.0802 33.0378 26.058C33.5248 25.9227 33.8078 25.4255 33.6703 24.9474C32.9405 22.4378 30.6072 20.7057 27.9493 20.7001Z" fill="#004B2A"/>
<path d="M27.4487 53.9659L36.6155 54H36.6476C41.1893 53.9947 44.8745 50.3904 44.8978 45.9314C44.9069 43.226 44.906 38.2579 44.9042 35.5507C44.9084 34.3691 44.2365 33.2853 43.1654 32.7462C42.0944 32.2072 40.806 32.3042 39.8312 32.9974C38.9479 31.5606 37.0599 31.0758 35.5733 31.9038C35.3037 31.0323 34.6585 30.3207 33.8081 29.9571C32.9576 29.5933 31.9875 29.6141 31.154 30.0138V28.3505C31.154 26.6108 29.7175 25.2004 27.9455 25.2004C26.1736 25.2004 24.7371 26.6108 24.7371 28.3505V34.6867C24.1918 34.374 23.5728 34.2065 22.9413 34.2007H22.9276C20.9068 34.1981 19.2659 35.8032 19.2609 37.7872L19.2297 45.8361C19.2176 50.3074 22.8945 53.9446 27.4487 53.9659ZM21.0951 37.7926C21.0992 36.8013 21.9188 35.9998 22.9285 35.9998H22.9358C23.8486 36.0024 24.6187 36.6674 24.7381 37.5559V41.4007C24.7381 41.8978 25.1485 42.3007 25.6547 42.3007C26.1609 42.3007 26.5714 41.8978 26.5714 41.4007C26.5714 41.3108 26.6117 39.1714 26.5714 28.3505C26.5714 27.605 27.187 27.0005 27.9464 27.0005C28.7058 27.0005 29.3214 27.605 29.3214 28.3505V41.4007C29.3214 41.8978 29.7318 42.3007 30.2381 42.3007C30.7444 42.3007 31.1547 41.8978 31.1547 41.4007V32.8505C31.1547 32.105 31.7704 31.5005 32.5297 31.5005C33.2891 31.5005 33.9048 32.105 33.9048 32.8505V41.4007C33.9048 41.8978 34.3152 42.3007 34.8214 42.3007C35.3276 42.3007 35.7381 41.8978 35.7381 41.4007V34.6506C35.7381 33.905 36.3537 33.3006 37.1131 33.3006C37.8725 33.3006 38.4881 33.905 38.4881 34.6506V41.4007C38.4881 41.8978 38.8985 42.3007 39.4047 42.3007C39.911 42.3007 40.3214 41.8978 40.3214 41.4007V35.5506C40.3214 34.805 40.937 34.2006 41.6964 34.2006C42.4558 34.2006 43.0714 34.805 43.0714 35.5506C43.0714 42.6238 43.0797 38.1696 43.065 45.9233C43.0474 49.3918 40.181 52.1956 36.6483 52.2H36.6235L27.4568 52.1658C23.9147 52.1489 21.055 49.32 21.0647 45.8423L21.0951 37.7926Z" fill="#004B2A"/>
</g>
<defs>
<clipPath id="clip0_9_21">
<rect width="55" height="54" fill="white"/>
</clipPath>
</defs>
</svg>
